<?xml version="1.0" standalone="no"?>
<!DOCTYPE svg PUBLIC "-//W3C//DTD SVG 1.1//EN" "http://www.w3.org/Graphics/SVG/1.1/DTD/svg11.dtd" >
<svg>
<metadata>
Created by FontForge 20090622 at Tue Apr  4 16:06:26 2017
 By deploy user
&#194;&#169; 2005 Microsoft Corporation. All Rights Reserved.
</metadata>
<defs>
<font id="Calibri-BoldItalic" horiz-adv-x="1080" >
  <font-face 
    font-family="Calibri"
    font-weight="700"
    font-style="italic"
    font-stretch="normal"
    units-per-em="2048"
    panose-1="2 15 7 2 3 4 4 10 2 4"
    ascent="1536"
    descent="-512"
    x-height="960"
    cap-height="1294"
    bbox="-824 -381 2538 1950"
    underline-thickness="186"
    underline-position="-86"
    slope="-11"
    unicode-range="U+0009-U+FB04"
  />
<missing-glyph horiz-adv-x="1038" 
d="M992 1294v-1294h-945v1294h945zM885 101v1092h-732v-1092h732zM783 886q0 -54 -16 -104.5t-50 -89.5t-86 -64.5t-124 -31.5l-30 -121q-3 -13 -25.5 -18.5t-59.5 -5.5q-22 0 -37.5 1t-24.5 3.5t-12.5 7t-2.5 12.5l25 167q5 33 22.5 46.5t43.5 13.5h11q47 0 80 15t53 39
t29 53.5t9 59.5q0 20 -6.5 38.5t-21 33t-38 23t-58.5 8.5q-38 0 -67 -6.5t-49.5 -14t-33.5 -14t-19 -6.5q-8 0 -11.5 7t-3.5 21q0 7 2 21t5 29.5t8 29.5t12 21q8 7 27.5 16t47 16.5t60.5 12.5t67 5q69 0 120.5 -17.5t85.5 -48t51 -71t17 -87.5zM474 323q0 -9 -2 -23t-6 -30
t-11 -30.5t-16 -24.5q-14 -13 -35.5 -20t-53.5 -7q-28 0 -45.5 4.5t-27 12.5t-12.5 18.5t-3 22.5q0 11 2 25.5t6.5 30t12 30.5t18.5 25q13 14 33.5 20t53.5 6q26 0 43 -4t26.5 -11.5t13 -18.5t3.5 -26zM0 -397z" />
    <glyph glyph-name="f_b.liga" unicode="fb" horiz-adv-x="1713" 
d="M935 1350q2 9 9 16.5t22 13t39.5 9t62.5 3.5q36 0 60 -3t37 -8.5t17.5 -13.5t2.5 -18l-72 -358q-4 -23 -10.5 -48.5l-13.5 -50.5t-14.5 -48.5t-15.5 -41.5q19 32 52.5 64.5t76 58.5t91.5 42t101 16q56 0 98.5 -14.5t73 -39.5t50.5 -59t32 -71.5t16.5 -77.5t4.5 -78
q0 -66 -11.5 -141t-37 -149t-64.5 -142t-93.5 -120t-125 -83t-157.5 -31q-84 0 -148.5 33.5t-112.5 100.5l-15 -75q-4 -21 -32 -31.5t-88 -10.5q-30 0 -50 2.5t-31.5 7.5t-15.5 12.5t-2 17.5l231 1158q-3 -5 -9 -9t-15 -4q-7 0 -19 3t-30 6.5t-43 6.5t-59 3q-47 0 -79 -9
t-53 -28.5t-34 -50.5t-21 -74l-15 -76h148q13 0 19.5 -9.5t6.5 -30.5q0 -10 -1.5 -26t-5.5 -34.5t-9.5 -36.5t-13 -33t-17 -24.5t-20.5 -9.5h-149l-157 -784q-17 -83 -46.5 -146t-74.5 -105.5t-106.5 -64t-139.5 -21.5q-52 0 -87 8t-45 16q-5 6 -7 13t-2 20q0 6 1.5 20
t4.5 30.5t7.5 34.5t10 33t12.5 24.5t16 9.5q6 0 12 -1t13 -2.5t16.5 -2.5t24.5 -1q32 0 55.5 9.5t40.5 29.5t29 51.5t21 76.5l151 752h-112q-12 0 -18.5 8.5t-6.5 32.5q0 10 1.5 26t5 34t8.5 36.5t13 33t17.5 24t22.5 9.5h110l19 98q16 85 48 149t82.5 107t122.5 64.5
t170 21.5q26 0 59.5 -2.5t64 -7t54.5 -11t31 -12.5q4 -5 6 -8t4 -9zM1397 619q0 25 -4 52t-15 49t-31.5 36t-53.5 14q-45 0 -90.5 -26.5t-85 -72.5t-70.5 -107t-45 -130l-28 -136q34 -55 77.5 -81.5t98.5 -26.5q41 0 75 19.5t61.5 52t48 75t34.5 90.5t21 97t7 95z" />
    <glyph glyph-name="f_f_b.liga" unicode="ffb" horiz-adv-x="2296" 
d="M2239 643q0 -66 -12 -141t-37 -149t-64.5 -142t-94 -120t-125 -83t-157.5 -31q-84 0 -148.5 33.5t-111.5 100.5l-16 -77q-3 -21 -30.5 -30.5t-88.5 -9.5t-82.5 10t-17.5 30l232 1161q-3 -5 -9 -9t-15 -4q-8 0 -19.5 2.5l-30 6.5t-43.5 6.5t-59 2.5q-47 0 -79 -8.5
t-53.5 -28t-34 -50.5t-21.5 -74l-15 -79h149q14 0 20 -9.5t6 -30.5q0 -10 -1.5 -26t-5.5 -34.5t-9.5 -36.5t-13 -33t-17 -24.5t-19.5 -9.5h-150l-151 -756q-17 -86 -47 -151.5t-75.5 -110t-107.5 -67.5t-142 -23q-59 0 -99.5 8t-51.5 20q-10 9 -10 31q0 7 1.5 22t4 32.5
t7 36t10 33.5t13 24.5t16.5 9.5q8 0 16 -2t18.5 -5t23.5 -5t30 -2q32 0 55.5 9t40.5 28.5t29 50.5t21 74l147 743h-332l-157 -784q-17 -83 -46.5 -146t-74.5 -105.5t-106.5 -64t-139.5 -21.5q-52 0 -87 8t-45 16q-5 6 -7 13t-2 20q0 6 1.5 20t4.5 30.5t7.5 34.5t10 33
t12.5 24.5t16 9.5q6 0 12 -1t13 -2.5t16.5 -2.5t24.5 -1q32 0 55.5 9t40.5 29t29 52t21 77l151 752h-112q-12 0 -18.5 8.5t-6.5 32.5q0 10 1.5 26t5 34t8.5 36.5t13 33t17.5 24t22.5 9.5h110l17 86q17 85 47.5 149t76.5 107t107 65t140 22q26 0 51.5 -2.5t47 -7t37 -10.5
t21.5 -12q6 -5 8.5 -14t2.5 -22q0 -6 -1.5 -19.5t-4 -31t-6.5 -35.5t-9.5 -33t-12.5 -24.5t-15 -9.5q-6 0 -15.5 3l-21.5 6.5t-27.5 6.5t-33.5 3q-32 0 -55.5 -9t-40.5 -28.5t-29 -50.5t-20 -74l-13 -65h332l19 98q17 85 48 149.5t81 107.5t122.5 65t172.5 22q27 0 60 -2.5
t63.5 -7t54 -10.5t30.5 -13q4 -4 6 -8.5t3 -10.5q2 9 9.5 16.5t23 13t40 9t62.5 3.5q36 0 59.5 -3t36.5 -8.5t17 -13.5t2 -18l-71 -358l-11 -48.5t-13 -50.5t-14.5 -48.5t-14.5 -41.5q18 32 51.5 64.5t76.5 58.5t92.5 42t99.5 16q56 0 98.5 -14.5t73 -39.5t51 -59
t32.5 -71.5t16.5 -77.5t4.5 -78zM1980 619q0 25 -3.5 52t-15 49t-31.5 36t-53 14q-45 0 -91 -27t-86 -73t-71 -107t-44 -130l-28 -135q36 -55 78.5 -81.5t97.5 -26.5q41 0 75 19.5t61.5 52t48 75t34.5 90.5t21 97t7 95z" />
    <glyph glyph-name="uniFB00" unicode="ff" horiz-adv-x="1230" 
d="M1415 1335q0 -6 -1.5 -19.5t-4.5 -31t-7 -35.5t-9.5 -33t-12 -24.5t-14.5 -9.5q-6 0 -15.5 3t-21.5 6t-27.5 6t-34.5 3q-32 0 -55.5 -8.5t-40.5 -28t-28.5 -50.5t-20.5 -74l-15 -79h163q14 0 20.5 -9.5t6.5 -30.5q0 -10 -1.5 -26t-5.5 -34.5t-10 -36.5t-13 -33
t-16.5 -24.5t-20.5 -9.5h-164l-152 -756q-17 -86 -47 -151.5t-75.5 -110t-107.5 -67.5t-142 -23q-59 0 -99.5 8t-51.5 20q-10 9 -10 31q0 7 1.5 22t4.5 32.5t7 36t10 33.5t13 24.5t16 9.5q8 0 16 -2t18.5 -5t23.5 -5t30 -2q32 0 55.5 9t40.5 28.5t29 50.5t21 74l148 743
h-332l-154 -770q-18 -88 -48 -154t-75.5 -109.5t-107 -65.5t-141.5 -22q-54 0 -94 8.5t-53 20.5q-5 5 -7.5 12.5t-2.5 21.5q0 6 1.5 20t4.5 30.5t7 34.5t9.5 33t12.5 24.5t16 9.5q13 0 32.5 -6.5t52.5 -6.5q32 0 55.5 9t40.5 28.5t28.5 50.5t20.5 74l152 757h-112
q-12 0 -18.5 8.5t-6.5 32.5q0 10 1.5 26t5 34t8.5 36.5t13 33t17.5 24t22.5 9.5h110l17 86q17 85 47.5 149t76.5 107t107 65t140 22q26 0 51.5 -2.5t47 -7t37 -10.5t21.5 -12q6 -5 8.5 -14t2.5 -22q0 -6 -1.5 -19.5t-4 -31t-6.5 -35.5t-9.5 -33t-12.5 -24.5t-15 -9.5
q-6 0 -15.5 3l-21.5 6.5t-27.5 6.5t-33.5 3q-32 0 -55.5 -9t-40.5 -28.5t-29 -50.5t-20 -74l-13 -65h332l19 97q17 85 47 149.5t75.5 108t107 65.5t141.5 22q26 0 51.5 -2.5t47 -7t37 -10t21.5 -11.5q5 -6 8 -14.5t3 -21.5z" />
    <glyph glyph-name="f_h.liga" unicode="fh" horiz-adv-x="1711" 
d="M1628 727q0 -36 -3.5 -71.5t-10.5 -70.5l-110 -551q-2 -10 -9.5 -17.5t-23 -12.5t-40.5 -7.5t-61 -2.5q-37 0 -60.5 2.5t-36.5 7.5t-17.5 12.5t-1.5 17.5l105 535q4 21 7 47.5t3 47.5q0 22 -4 40.5t-14 32t-26 21t-39 7.5q-40 0 -84.5 -26t-84 -71t-70.5 -105t-44 -127
l-81 -402q-2 -10 -9.5 -17.5t-23 -12.5t-40.5 -7.5t-62 -2.5q-36 0 -59.5 2.5t-36.5 7.5t-17.5 12.5t-2.5 17.5l231 1158q-3 -5 -9 -9t-15 -4q-7 0 -19 3t-30 6.5t-43 6.5t-59 3q-47 0 -79 -9t-53 -28.5t-34 -50.5t-21 -74l-15 -76h148q13 0 19.5 -9.5t6.5 -30.5
q0 -10 -1.5 -26t-5.5 -34.5t-9.5 -36.5t-13 -33t-17 -24.5t-20.5 -9.5h-149l-157 -784q-17 -83 -46.5 -146t-74.5 -105.5t-106.5 -64t-139.5 -21.5q-52 0 -87 8t-45 16q-5 6 -7 13t-2 20q0 6 1.5 20t4.5 30.5t7.5 34.5t10 33t12.5 24.5t16 9.5q6 0 12 -1t13 -2.5t16.5 -2.5
t24.5 -1q32 0 55.5 9.5t40.5 29.5t29 51.5t21 76.5l151 752h-112q-12 0 -18.5 8.5t-6.5 32.5q0 10 1.5 26t5 34t8.5 36.5t13 33t17.5 24t22.5 9.5h110l19 98q16 85 48 149t82.5 107t122.5 64.5t170 21.5q26 0 59.5 -2.5t64 -7t54.5 -11t31 -12.5q4 -5 6 -8t4 -9q2 9 9 16.5
t22 13t39.5 9t62.5 3.5q37 0 60.5 -3t36.5 -8.5t17.5 -13.5t2.5 -18l-72 -362q-4 -22 -10.5 -47l-13.5 -49.5t-14.5 -47.5t-15.5 -41q20 32 53 64t75 58t91.5 42.5t102.5 16.5q67 0 114 -19t77 -53t43 -81t13 -103z" />
    <glyph glyph-name="f_f_h.liga" unicode="ffh" horiz-adv-x="2293" 
d="M2211 727q0 -36 -3.5 -71.5t-10.5 -70.5l-110 -551q-2 -10 -9.5 -17.5t-23 -12.5t-40.5 -7.5t-62 -2.5q-36 0 -59.5 2.5t-36.5 7.5t-17.5 12.5t-2.5 17.5l107 535l6.5 47.5t3.5 47.5q0 22 -4.5 40.5t-14.5 32t-26 21t-38 7.5q-41 0 -85.5 -26t-84.5 -71t-70.5 -105
t-43.5 -127l-81 -402q-2 -10 -9.5 -17.5t-23 -12.5t-40.5 -7.5t-62 -2.5t-60.5 2.5t-36.5 7.5t-17 12.5t-2 17.5l232 1161q-3 -5 -9 -9t-15 -4q-8 0 -19.5 2.5l-30 6.5t-43.5 6.5t-59 2.5q-47 0 -79 -8.5t-53.5 -28t-34 -50.5t-21.5 -74l-15 -79h148q14 0 20.5 -9.5
t6.5 -30.5q0 -10 -1.5 -26t-5.5 -34.5t-10 -36.5t-13.5 -33t-17 -24.5t-19.5 -9.5h-149l-152 -756q-17 -86 -47 -151.5t-75.5 -110t-107.5 -67.5t-142 -23q-59 0 -99.5 8t-51.5 20q-10 9 -10 31q0 7 1.5 22t4.5 32.5t7 36t10 33.5t13 24.5t16 9.5q8 0 16 -2t18.5 -5t23.5 -5
t30 -2q32 0 55.5 9t40.5 28.5t29 50.5t21 74l148 743h-332l-158 -784q-17 -83 -46.5 -146t-74 -105.5t-106 -64t-139.5 -21.5q-52 0 -87 8t-45 16q-5 6 -7 13t-2 20q0 6 1.5 20t4.5 30.5t7.5 34.5t10 33t12.5 24.5t16 9.5q6 0 12 -1t13 -2.5t16.5 -2.5t24.5 -1
q32 0 55.5 9.5t40.5 29.5t29 51.5t21 76.5l151 752h-112q-12 0 -18.5 8.5t-6.5 32.5q0 10 1.5 26t5 34t8.5 36.5t13 33t17.5 24t22.5 9.5h110l17 86q17 85 47.5 149t76.5 107t107 65t140 22q26 0 51.5 -2.5t47 -7t37 -10.5t21.5 -12q6 -5 8.5 -14t2.5 -22q0 -6 -1.5 -19.5
t-4 -31t-6.5 -35.5t-9.5 -33t-12.5 -24.5t-15 -9.5q-6 0 -15.5 3l-21.5 6.5t-27.5 6.5t-33.5 3q-32 0 -55.5 -9t-40.5 -28.5t-29 -50.5t-20 -74l-13 -65h332l19 98q17 85 47.5 149.5t80.5 107.5t123 65t173 22q27 0 60 -2.5t63.5 -7t54 -10.5t30.5 -13q4 -4 6 -8.5t3 -10.5
q2 9 9.5 16.5t22.5 13t39.5 9t62.5 3.5q37 0 60.5 -3t36.5 -8.5t17 -13.5t2 -18l-71 -362l-11 -47t-13.5 -49.5l-15 -47.5t-14.5 -41q19 32 52 64t75.5 58t92 42.5t101.5 16.5q68 0 115 -19t77 -53t43 -81t13 -103z" />
    <glyph glyph-name="uniFB01" unicode="fi" horiz-adv-x="1135" 
d="M1030 960q38 0 53.5 -17t9.5 -52l-171 -857q-2 -10 -9.5 -17.5t-23 -12.5t-40.5 -7.5t-62 -2.5q-36 0 -59.5 2.5t-36.5 7.5t-17.5 12.5t-2.5 17.5l144 722h-331l-158 -784q-17 -83 -46.5 -146t-74.5 -105.5t-106.5 -64t-139.5 -21.5q-52 0 -87 8t-45 16q-5 6 -7 13t-2 20
q0 6 1.5 20t4.5 30.5t7.5 34.5t10 33t12.5 24.5t16 9.5q6 0 12 -1t13 -2.5t16.5 -2.5t24.5 -1q32 0 55.5 9.5t40.5 29.5t29 51.5t21 76.5l151 752h-112q-12 0 -18.5 8.5t-6.5 32.5q0 10 1.5 26t5 34t8.5 36.5t13 33t17.5 24t22.5 9.5h110l19 97q16 85 46.5 149.5t75.5 108
t106 65.5t139 22q27 0 51 -2.5t43 -7t32.5 -9.5t18.5 -11q5 -5 7.5 -13.5t2.5 -20.5q0 -6 -1.5 -20t-4.5 -31t-7 -35t-9.5 -33t-12.5 -24.5t-15 -9.5q-7 0 -14.5 2.5t-17.5 5t-23.5 5t-31.5 2.5q-31 0 -53 -8.5t-38 -28t-27.5 -50.5t-19.5 -74l-15 -79h505zM1180 1226
q-8 -37 -19.5 -62.5t-30.5 -41t-48.5 -22t-71.5 -6.5t-68.5 6.5t-39 22t-14 41t5.5 62.5q7 36 18.5 61t31 41t48.5 23t71 7q43 0 68.5 -7t39 -23t15 -41t-5.5 -61z" />
    <glyph glyph-name="f_igrave.liga" unicode="f&#xec;" horiz-adv-x="1135" 
d="M1127 1114q3 -14 2.5 -24t-9.5 -16t-28 -9t-53 -3q-28 0 -46 1.5t-28 6t-15.5 11t-9.5 16.5l-100 248q-4 11 -3.5 21t13 17.5t38.5 12t72 4.5q34 0 54 -2t31 -6.5t15.5 -12.5t7.5 -20zM1030 960q38 0 53.5 -17t9.5 -52l-171 -857q-2 -10 -9.5 -17.5t-23 -12.5t-40.5 -7.5
t-62 -2.5q-36 0 -59.5 2.5t-36.5 7.5t-17.5 12.5t-2.5 17.5l144 722h-332l-157 -784q-17 -83 -46.5 -146t-74.5 -105.5t-106.5 -64t-139.5 -21.5q-52 0 -87 8t-45 16q-5 6 -7 13t-2 20q0 6 1.5 20t4.5 30.5t7.5 34.5t10 33t12.5 24.5t16 9.5q6 0 12 -1t13 -2.5t16.5 -2.5
t24.5 -1q32 0 55.5 9.5t40.5 29.5t29 51.5t21 76.5l151 752h-112q-12 0 -18.5 8.5t-6.5 32.5q0 10 1.5 26t5 34t8.5 36.5t13 33t17.5 24t22.5 9.5h110l19 97q16 85 46 149t74 107.5t102.5 65t133.5 21.5q23 0 44.5 -2t39.5 -6t30 -8.5t17 -9.5q6 -6 8.5 -15t2.5 -21
q0 -6 -1.5 -20t-4 -31t-6.5 -35t-10 -33t-12.5 -24.5t-13.5 -9.5t-13 2t-14.5 4.5t-19.5 4.5t-25 2q-28 0 -49.5 -9t-36.5 -28.5t-26 -50.5t-19 -74l-15 -76h505z" />
    <glyph glyph-name="f_iacute.liga" unicode="f&#xed;" horiz-adv-x="1135" 
d="M1030 960q38 0 53.5 -17t9.5 -52l-171 -857q-2 -10 -9.5 -17.5t-23 -12.5t-40.5 -7.5t-62 -2.5q-36 0 -59.5 2.5t-36.5 7.5t-17.5 12.5t-2.5 17.5l144 722h-332l-157 -784q-17 -83 -46.5 -146t-74.5 -105.5t-106.5 -64t-139.5 -21.5q-52 0 -87 8t-45 16q-5 6 -7 13t-2 20
q0 6 1.5 20t4.5 30.5t7.5 34.5t10 33t12.5 24.5t16 9.5q6 0 12 -1t13 -2.5t16.5 -2.5t24.5 -1q32 0 55.5 9.5t40.5 29.5t29 51.5t21 76.5l151 752h-112q-12 0 -18.5 8.5t-6.5 32.5q0 10 1.5 26t5 34t8.5 36.5t13 33t17.5 24t22.5 9.5h110l19 97q16 85 46.5 149t75.5 107.5
t106 65t139 21.5q26 0 50.5 -2.5t45 -6.5t35 -9.5t20.5 -11.5q5 -5 8 -13.5t3 -22.5q0 -6 -1.5 -20t-4.5 -30.5t-7 -34.5t-9.5 -33.5t-12.5 -25t-14 -9.5t-15.5 2.5l-19 5.5t-24.5 6t-32 3q-32 0 -55 -9t-39.5 -28.5t-28 -50.5t-19.5 -74l-15 -76h505zM1102 1115
q-8 -10 -16 -16.5t-21 -10.5t-32 -6t-48 -2q-35 0 -55 3t-28 9.5t-5.5 16.5t11.5 23l152 229q8 11 18 19t25.5 12.5t38.5 6.5t56 2q46 0 72 -4.5t37.5 -12t9.5 -17t-11 -20.5zM643 957z" />
    <glyph glyph-name="f_icircumflex.liga" unicode="f&#xee;" horiz-adv-x="1135" 
d="M945 1112q-8 -12 -16 -19t-20.5 -10.5t-31 -4.5t-47.5 -1q-33 0 -52 3t-25 11t1 23t25 38l174 214q7 10 17.5 16t25.5 9.5t37.5 5t53.5 1.5q32 0 53 -2t35 -6t22 -10t13 -14l93 -223q8 -20 10 -33t-5.5 -20.5t-27 -10t-54.5 -2.5q-32 0 -51.5 1t-30 4.5t-15 10.5t-7.5 19
l-59 149zM1030 960q38 0 53.5 -17t9.5 -52l-171 -857q-2 -10 -9.5 -17.5t-23 -12.5t-40.5 -7.5t-62 -2.5q-36 0 -59.5 2.5t-36.5 7.5t-17.5 12.5t-2.5 17.5l144 722h-332l-157 -784q-17 -83 -46.5 -146t-74.5 -105.5t-106.5 -64t-139.5 -21.5q-52 0 -87 8t-45 16q-5 6 -7 13
t-2 20q0 6 1.5 20t4.5 30.5t7.5 34.5t10 33t12.5 24.5t16 9.5q6 0 12 -1t13 -2.5t16.5 -2.5t24.5 -1q32 0 55.5 9.5t40.5 29.5t29 51.5t21 76.5l151 752h-112q-12 0 -18.5 8.5t-6.5 32.5q0 10 1.5 26t5 34t8.5 36.5t13 33t17.5 24t22.5 9.5h110l19 97q16 85 46 149t74 107.5
t102.5 65t133.5 21.5q23 0 44.5 -2t39.5 -6t30 -8.5t17 -9.5q6 -6 8.5 -15t2.5 -21q0 -6 -1.5 -19.5t-4 -30t-7 -33.5t-10 -31.5t-12.5 -24t-14 -9.5t-13 2t-14.5 4.5t-19.5 4.5t-25 2q-28 0 -49 -9t-36 -28.5t-25.5 -50.5t-19.5 -74l-15 -81h505z" />
    <glyph glyph-name="f_itilde.liga" unicode="f&#x129;" horiz-adv-x="1153" 
d="M1354 1319q0 -9 -2 -32t-8.5 -52t-19.5 -60t-35 -57t-54.5 -43t-77.5 -17q-48 0 -80 18t-55 39l-42 39t-41 18q-23 0 -36.5 -20t-19.5 -65q0 -7 -3 -12t-11 -9t-23 -6t-39 -2q-21 0 -34.5 2t-21 6t-10 10t-2.5 14q0 7 2 29t8.5 51t19.5 60.5t35.5 57.5t55 43.5t78.5 17.5
t77.5 -18t55.5 -39.5l43 -39.5t40 -18q23 0 36.5 19.5t17.5 65.5q1 8 5 13.5t12.5 9t22.5 5.5t36 2q43 0 56.5 -7t13.5 -23zM1049 960q38 0 53.5 -16.5t8.5 -52.5l-171 -857q-2 -10 -9 -17.5t-22.5 -12.5t-40.5 -7.5t-62 -2.5t-60.5 2.5t-36.5 7.5t-17 12.5t-2 17.5l144 722
h-351l-157 -784q-17 -83 -46.5 -146t-74.5 -105.5t-106.5 -64t-139.5 -21.5q-52 0 -87 8t-45 16q-5 6 -7 13t-2 20q0 6 1.5 20t4.5 30.5t7.5 34.5t10 33t12.5 24.5t16 9.5q6 0 12 -1t13 -2.5t16.5 -2.5t24.5 -1q32 0 55.5 9.5t40.5 29.5t29 51.5t21 76.5l151 752h-112
q-12 0 -18.5 8.5t-6.5 32.5q0 10 1.5 26t5 34t8.5 36.5t13 33t17.5 24t22.5 9.5h110l21 107q16 81 44.5 143t71.5 104.5t101.5 64t133.5 21.5q37 0 65.5 -6t36.5 -13q5 -5 7 -12.5t2 -21.5q0 -4 -1 -17.5t-4 -30.5t-7 -36t-9 -34.5t-12 -25.5t-14 -10q-4 0 -8 0.5t-9.5 1.5
t-13 2t-17.5 1q-27 0 -46 -9t-33.5 -28.5t-24.5 -50.5t-18 -73l-15 -77h524z" />
    <glyph glyph-name="f_idieresis.liga" unicode="f&#xef;" horiz-adv-x="1153" 
d="M793 1226q7 37 18 61t28 37.5t41 18.5t56 5t53 -5t32 -18.5t12 -37.5t-7 -61q-7 -37 -18 -61.5t-27.5 -38.5t-39.5 -19.5t-55 -5.5t-53.5 5.5t-32.5 19.5t-13 38.5t6 61.5zM1101 1226q8 37 19 61t28 37.5t40.5 18.5t55.5 5t53 -5t31.5 -18.5t12 -37.5t-6.5 -61
q-7 -37 -17.5 -61.5t-27 -38.5t-40 -19.5t-55.5 -5.5t-53 5.5t-32.5 19.5t-13 38.5t5.5 61.5zM1049 960q38 0 53.5 -16.5t8.5 -52.5l-171 -857q-2 -10 -9 -17.5t-22.5 -12.5t-40.5 -7.5t-62 -2.5t-60.5 2.5t-36.5 7.5t-17 12.5t-2 17.5l144 722h-351l-157 -784
q-17 -83 -46.5 -146t-74.5 -105.5t-106.5 -64t-139.5 -21.5q-52 0 -87 8t-45 16q-5 6 -7 13t-2 20q0 6 1.5 20t4.5 30.5t7.5 34.5t10 33t12.5 24.5t16 9.5q6 0 12 -1t13 -2.5t16.5 -2.5t24.5 -1q32 0 55.5 9.5t40.5 29.5t29 51.5t21 76.5l151 752h-112q-12 0 -18.5 8.5
t-6.5 32.5q0 10 1.5 26t5 34t8.5 36.5t13 33t17.5 24t22.5 9.5h110l21 107q16 81 44.5 143t71.5 104.5t101.5 64t133.5 21.5q20 0 38.5 -1.5t34 -4.5t26.5 -7t15 -8q5 -6 8 -14.5t3 -21.5q0 -5 -1.5 -18.5t-4 -31t-6.5 -36.5t-9.5 -35t-12 -26.5t-14.5 -10.5q-5 0 -10.5 1.5
l-13 3.5t-17 3.5t-21.5 1.5q-27 0 -46 -8.5t-33 -27.5t-24 -49.5t-18 -72.5l-15 -77h524z" />
    <glyph glyph-name="f_imacron.liga" unicode="f&#x12b;" horiz-adv-x="1153" 
d="M1299 1323q16 0 23.5 -10t7.5 -29q0 -6 -1.5 -19t-4.5 -29t-8 -33t-12.5 -31t-17.5 -23t-22 -9h-450q-18 0 -25.5 9.5t-7.5 29.5q0 7 1.5 20.5t4.5 29t8.5 32.5t12.5 31t17 22.5t24 8.5h450zM1049 960q38 0 53.5 -16.5t8.5 -52.5l-171 -857q-2 -10 -9 -17.5t-22.5 -12.5
t-40.5 -7.5t-62 -2.5t-60.5 2.5t-36.5 7.5t-17 12.5t-2 17.5l144 722h-351l-157 -784q-17 -83 -46.5 -146t-74.5 -105.5t-106.5 -64t-139.5 -21.5q-52 0 -87 8t-45 16q-5 6 -7 13t-2 20q0 6 1.5 20t4.5 30.5t7.5 34.5t10 33t12.5 24.5t16 9.5q6 0 12 -1t13 -2.5t16.5 -2.5
t24.5 -1q32 0 55.5 9.5t40.5 29.5t29 51.5t21 76.5l151 752h-112q-12 0 -18.5 8.5t-6.5 32.5q0 10 1.5 26t5 34t8.5 36.5t13 33t17.5 24t22.5 9.5h110l21 107q16 81 44.5 143t71.5 104.5t101.5 64t133.5 21.5q20 0 38.5 -1.5t34 -4.5t26.5 -7t15 -8q5 -6 8 -14.5t3 -21.5
q0 -5 -1 -18t-4 -30.5t-6.5 -36t-9 -34t-12 -26t-14.5 -10.5q-5 0 -10.5 1.5l-13 3.5t-17 3.5t-21.5 1.5q-27 0 -46 -9t-33.5 -28.5t-24.5 -50.5t-18 -73l-15 -77h524z" />
    <glyph glyph-name="f_ibreve.liga" unicode="f&#x12d;" horiz-adv-x="1153" 
d="M1195 1369q8 8 24.5 12.5t49.5 4.5q26 0 42 -1.5t24.5 -5t11.5 -8t3 -10.5q0 -4 -2.5 -27.5t-13 -55.5t-30 -68.5t-54.5 -67t-86.5 -51t-124.5 -20.5q-72 0 -118.5 17t-73.5 44t-37 61.5t-10 69.5q0 13 1 29.5t3.5 32t6.5 28.5t10 18q6 6 22.5 10.5t50.5 4.5
q23 0 38.5 -2t24 -6t12 -9.5t3.5 -13.5t-2 -21.5t-2 -24.5q0 -37 19 -58.5t66 -21.5q30 0 51 9t35.5 23t23 31t14 33l9.5 27.5t9 16.5zM1049 960q38 0 53.5 -16.5t8.5 -52.5l-171 -857q-2 -10 -9 -17.5t-22.5 -12.5t-40.5 -7.5t-62 -2.5t-60.5 2.5t-36.5 7.5t-17 12.5
t-2 17.5l144 722h-351l-157 -784q-17 -83 -46.5 -146t-74.5 -105.5t-106.5 -64t-139.5 -21.5q-52 0 -87 8t-45 16q-5 6 -7 13t-2 20q0 6 1.5 20t4.5 30.5t7.5 34.5t10 33t12.5 24.5t16 9.5q6 0 12 -1t13 -2.5t16.5 -2.5t24.5 -1q32 0 55.5 9.5t40.5 29.5t29 51.5t21 76.5
l151 752h-112q-12 0 -18.5 8.5t-6.5 32.5q0 10 1.5 26t5 34t8.5 36.5t13 33t17.5 24t22.5 9.5h110l21 107q16 81 44.5 143t71.5 104.5t101.5 64t133.5 21.5q37 0 66 -6t37 -13q5 -5 7 -12.5t2 -21.5q0 -4 -1 -17.5t-4 -30.5t-7 -36t-9 -34.5t-12 -25.5t-14 -10q-5 0 -9 0.5
t-9.5 1.5t-13 2t-17.5 1q-27 0 -46 -9t-33.5 -28.5t-24.5 -50.5t-18 -73l-15 -77h524z" />
    <glyph glyph-name="f_iogonek.liga" unicode="f&#x12f;" horiz-adv-x="1135" 
d="M922 32q-4 -18 -12.5 -32.5t-21.5 -25.5l-69 -58q-34 -29 -49.5 -47t-15.5 -36q0 -15 11.5 -24t38.5 -9h88q16 0 21.5 -6t5.5 -18q0 -8 -2 -22.5t-6 -30t-9.5 -29t-11.5 -19.5q-8 -7 -26.5 -14t-43 -13t-53 -9.5t-55.5 -3.5q-101 0 -154 35.5t-53 105.5q0 23 5.5 45
t18.5 45t34 46.5t52 49.5l51 42l149 752h-332l-157 -784q-17 -83 -46.5 -146t-74.5 -105.5t-106.5 -64t-139.5 -21.5q-52 0 -87 8t-45 16q-5 6 -7 13t-2 20q0 6 1.5 20t4.5 30.5t7 34.5t10 33t13 24.5t16 9.5q6 0 12.5 -1t13.5 -2.5t16.5 -2.5t23.5 -1q32 0 55.5 9.5
t40.5 29.5t29 51.5t21 76.5l151 752h-112q-12 0 -18.5 8.5t-6.5 32.5q0 10 1.5 26t5 34t8.5 36.5t13 33t17.5 24t22.5 9.5h110l19 97q16 85 46.5 149.5t75.5 108t106 65.5t139 22q27 0 51 -2.5t43 -7t32.5 -9.5t18.5 -11q6 -6 8 -14t2 -20q0 -6 -1.5 -20t-4.5 -31t-7 -35
t-9.5 -33t-12.5 -24.5t-15 -9.5q-7 0 -14.5 2.5t-17.5 5t-23.5 5t-31.5 2.5q-31 0 -53 -8.5t-38 -28t-27.5 -50.5t-19.5 -74l-15 -79h505q38 0 53.5 -17t9.5 -52zM1180 1226q-8 -37 -19.5 -62.5t-30.5 -41t-48.5 -22t-71.5 -6.5t-68.5 6.5t-39 22t-14 41t5.5 62.5
q7 36 18.5 61t31 41t48.5 23t71 7q43 0 68.5 -7t39 -23t15 -41t-5.5 -61z" />
    <glyph glyph-name="f_dotlessi.liga" unicode="f&#x131;" horiz-adv-x="1135" 
d="M1030 960q38 0 53.5 -17t9.5 -52l-171 -857q-2 -10 -9.5 -17.5t-23 -12.5t-40.5 -7.5t-62 -2.5q-36 0 -59.5 2.5t-36.5 7.5t-17.5 12.5t-2.5 17.5l144 722h-332l-157 -784q-17 -83 -46.5 -146t-74.5 -105.5t-106.5 -64t-139.5 -21.5q-52 0 -87 8t-45 16q-5 6 -7 13t-2 20
q0 6 1.5 20t4.5 30.5t7.5 34.5t10 33t12.5 24.5t16 9.5q6 0 12 -1t13 -2.5t16.5 -2.5t24.5 -1q32 0 55.5 9.5t40.5 29.5t29 51.5t21 76.5l151 752h-112q-12 0 -18.5 8.5t-6.5 32.5q0 10 1.5 26t5 34t8.5 36.5t13 33t17.5 24t22.5 9.5h110l19 97q16 85 46.5 149t75.5 107.5
t106 65t139 21.5q26 0 50.5 -2.5t45 -6.5t35 -9.5t20.5 -11.5q5 -5 8 -13.5t3 -22.5q0 -6 -1.5 -20t-4.5 -30.5t-7 -34.5t-9.5 -33.5t-12.5 -25t-14 -9.5t-15.5 2.5l-19 5.5t-24.5 6t-32 3q-32 0 -55 -9t-39.5 -28.5t-28 -50.5t-19.5 -74l-15 -76h505z" />
    <glyph glyph-name="uniFB03" unicode="ffi" horiz-adv-x="1718" 
d="M483 756l-157 -784q-17 -83 -46.5 -146t-74.5 -105.5t-106.5 -64t-139.5 -21.5q-52 0 -87 8t-45 16q-5 6 -7 13t-2 20q0 6 1.5 20t4.5 30.5t7.5 34.5t10 33t12.5 24.5t16 9.5q6 0 12 -1t13 -2.5t16.5 -2.5t24.5 -1q32 0 55.5 9.5t40.5 29.5t29 51.5t21 76.5l151 752h-112
q-12 0 -18.5 8.5t-6.5 32.5q0 10 1.5 26t5 34t8.5 36.5t13 33t17.5 24t22.5 9.5h110l17 86q17 85 47.5 149t76.5 107t107 65t140 22q26 0 51.5 -2.5t47 -7t37 -10.5t21.5 -12q6 -5 8.5 -14t2.5 -22q0 -6 -1.5 -19.5t-4 -31t-6.5 -35.5t-9.5 -33t-12.5 -24.5t-15 -9.5
q-6 0 -15.5 3l-21.5 6.5t-27.5 6.5t-33.5 3q-32 0 -55.5 -9t-40.5 -28.5t-29 -50.5t-20 -74l-13 -65h332l19 97q17 85 47 149.5t75 108t106 65.5t140 22q27 0 51 -2.5t43 -7t32.5 -9.5t19.5 -11q5 -6 7 -14t2 -20q0 -6 -1.5 -20t-4 -30.5t-6.5 -34.5t-9.5 -33t-12.5 -24.5
t-14 -9.5t-15.5 2t-19 5t-24 5t-31.5 2q-31 0 -53 -9t-38.5 -28.5t-28 -50.5t-19.5 -73l-15 -79h506q38 0 53.5 -16.5t9.5 -52.5l-171 -857q-2 -10 -9.5 -17.5t-23 -12.5t-40.5 -7.5t-62 -2.5t-60.5 2.5t-36.5 7.5t-17 12.5t-2 17.5l144 722h-332l-152 -756
q-17 -86 -47 -151.5t-75.5 -110t-107.5 -67.5t-142 -23q-59 0 -99.5 8t-51.5 20q-10 9 -10 31q0 7 1.5 22t4.5 32.5t7 36t10 33.5t13 24.5t16 9.5q8 0 16 -2t18.5 -5t23.5 -5t30 -2q32 0 55.5 9t40.5 28.5t29 50.5t21 74l148 743h-332zM1763 1226q-8 -37 -19.5 -62.5
t-31 -41t-48.5 -22t-71 -6.5t-68.5 6.5t-39.5 22t-14.5 41t5.5 62.5q8 36 19.5 61t31 41t48.5 23t72 7q42 0 68 -7t39 -23t14.5 -41t-5.5 -61z" />
    <glyph glyph-name="f_f_igrave.liga" unicode="ff&#xec;" horiz-adv-x="1718" 
d="M857 960l19 97q17 85 47 149.5t73.5 108t102 65.5t133.5 22q23 0 44.5 -2t39.5 -6t30 -8.5t17 -9.5q6 -5 9 -14t3 -21q0 -6 -1.5 -20t-4.5 -31t-7 -35t-9.5 -33t-12.5 -24.5t-15 -9.5q-5 0 -11.5 2t-15 4t-19 4t-26.5 2q-28 0 -48.5 -8.5t-36 -28t-26.5 -50.5t-20 -74
l-15 -79h506q38 0 53.5 -16.5t9.5 -52.5l-171 -857q-2 -10 -9.5 -17.5t-23 -12.5t-40.5 -7.5t-62 -2.5t-60.5 2.5t-36.5 7.5t-17 12.5t-2 17.5l144 722h-332l-152 -756q-17 -86 -47 -151.5t-75.5 -110t-107.5 -67.5t-142 -23q-59 0 -99.5 8t-51.5 20q-10 9 -10 31
q0 7 1.5 22t4.5 32.5t7 36t10 33.5t13 24.5t16 9.5q8 0 16 -2t18.5 -5t23.5 -5t30 -2q32 0 55.5 9t40.5 28.5t29 50.5t21 74l148 743h-332l-157 -784q-17 -83 -46.5 -146t-74.5 -105.5t-106.5 -64t-139.5 -21.5q-52 0 -87 8t-45 16q-5 6 -7 13t-2 20q0 6 1.5 20t4.5 30.5
t7.5 34.5t10 33t12.5 24.5t16 9.5q6 0 12 -1t13 -2.5t16.5 -2.5t24.5 -1q32 0 55.5 9.5t40.5 29.5t29 51.5t21 76.5l151 752h-112q-12 0 -18.5 8.5t-6.5 32.5q0 10 1.5 26t5 34t8.5 36.5t13 33t17.5 24t22.5 9.5h110l17 86q17 85 47.5 149t76.5 107t107 65t140 22
q26 0 51.5 -2.5t47 -7t37 -10.5t21.5 -12q6 -5 8.5 -14t2.5 -22q0 -6 -1.5 -19.5t-4 -31t-6.5 -35.5t-9.5 -33t-12.5 -24.5t-15 -9.5q-6 0 -15.5 3l-21.5 6.5t-27.5 6.5t-33.5 3q-32 0 -55.5 -9t-40.5 -28.5t-29 -50.5t-20 -74l-13 -65h332zM1710 1114q3 -14 2.5 -24
t-9.5 -16t-28 -9t-52 -3q-29 0 -47 1.5t-28 6t-15.5 11t-9.5 16.5l-99 248q-5 11 -4.5 21t13 17.5t38.5 12t73 4.5q33 0 53 -2t31.5 -6.5t16 -12.5t7.5 -20z" />
    <glyph glyph-name="f_f_iacute.liga" unicode="ff&#xed;" horiz-adv-x="1718" 
d="M483 756l-157 -784q-17 -83 -46.5 -146t-74.5 -105.5t-106.5 -64t-139.5 -21.5q-52 0 -87 8t-45 16q-5 6 -7 13t-2 20q0 6 1.5 20t4.5 30.5t7.5 34.5t10 33t12.5 24.5t16 9.5q6 0 12 -1t13 -2.5t16.5 -2.5t24.5 -1q32 0 55.5 9.5t40.5 29.5t29 51.5t21 76.5l151 752h-112
q-12 0 -18.5 8.5t-6.5 32.5q0 10 1.5 26t5 34t8.5 36.5t13 33t17.5 24t22.5 9.5h110l17 86q17 85 47.5 149t76.5 107t107 65t140 22q26 0 51.5 -2.5t47 -7t37 -10.5t21.5 -12q6 -5 8.5 -14t2.5 -22q0 -6 -1.5 -19.5t-4 -31t-6.5 -35.5t-9.5 -33t-12.5 -24.5t-15 -9.5
q-6 0 -15.5 3l-21.5 6.5t-27.5 6.5t-33.5 3q-32 0 -55.5 -9t-40.5 -28.5t-29 -50.5t-20 -74l-13 -65h332l19 97q17 85 47 149.5t75 108t106 65.5t140 22q27 0 53.5 -3t48 -7.5t37 -10t21.5 -11.5q5 -5 8 -14t3 -22q0 -6 -1.5 -19.5t-4.5 -30.5t-7 -35t-9.5 -33t-12 -24.5
t-14.5 -9.5q-7 0 -17 3t-22.5 6t-28 6t-33.5 3q-33 0 -56 -9t-39.5 -28.5t-28 -50.5t-19.5 -73l-15 -79h506q38 0 53.5 -16.5t9.5 -52.5l-171 -857q-2 -10 -9.5 -17.5t-23 -12.5t-40.5 -7.5t-62 -2.5t-60.5 2.5t-36.5 7.5t-17 12.5t-2 17.5l144 722h-332l-152 -756
q-17 -86 -47 -151.5t-75.5 -110t-107.5 -67.5t-142 -23q-59 0 -99.5 8t-51.5 20q-10 9 -10 31q0 7 1.5 22t4.5 32.5t7 36t10 33.5t13 24.5t16 9.5q8 0 16 -2t18.5 -5t23.5 -5t30 -2q32 0 55.5 9t40.5 28.5t29 50.5t21 74l148 743h-332zM1690 1113q-8 -10 -16.5 -16.5
t-21.5 -10.5t-32 -6t-48 -2q-35 0 -54.5 3t-27.5 9.5t-5.5 16.5t11.5 24l152 228q8 12 18 20t25.5 12.5t38 6.5t56.5 2q46 0 72 -4.5t37 -12t9.5 -17.5t-11.5 -21z" />
    <glyph glyph-name="f_f_icircumflex.liga" unicode="ff&#xee;" horiz-adv-x="1718" 
d="M1528 1112q-8 -12 -16 -19t-21 -10.5t-32 -4.5t-49 -1q-33 0 -51 3t-23 11.5t2 23.5t24 37l174 214q7 10 17.5 16t26 9.5t37.5 5t54 1.5q31 0 52 -2t35 -6t22 -10t12 -14l94 -223q8 -20 10 -33t-6 -20.5t-27.5 -10t-54.5 -2.5q-32 0 -51 1t-30 4.5t-15.5 10.5t-7.5 19
l-58 149zM857 960l19 97q17 85 47 149.5t73.5 108t102 65.5t133.5 22q23 0 44.5 -2t39.5 -6t30 -8.5t17 -9.5q6 -5 9 -14t3 -21q0 -5 -1.5 -18t-5 -29.5l-7.5 -34t-9.5 -32t-12.5 -24.5t-14 -10q-5 0 -11.5 2l-15 4.5t-19 4.5t-26.5 2q-28 0 -48.5 -10t-36 -30.5t-26.5 -52
t-20 -74.5l-15 -79h506q38 0 53.5 -16.5t9.5 -52.5l-171 -857q-2 -10 -9.5 -17.5t-23 -12.5t-40.5 -7.5t-62 -2.5t-60.5 2.5t-36.5 7.5t-17 12.5t-2 17.5l144 722h-332l-152 -756q-17 -86 -47 -151.5t-75.5 -110t-107.5 -67.5t-142 -23q-59 0 -99.5 8t-51.5 20q-10 9 -10 31
q0 7 1.5 22t4.5 32.5t7 36t10 33.5t13 24.5t16 9.5q8 0 16 -2t18.5 -5t23.5 -5t30 -2q32 0 55.5 9t40.5 28.5t29 50.5t21 74l148 743h-332l-157 -784q-17 -83 -46.5 -146t-74.5 -105.5t-106.5 -64t-139.5 -21.5q-52 0 -87 8t-45 16q-5 6 -7 13t-2 20q0 6 1.5 20t4.5 30.5
t7.5 34.5t10 33t12.5 24.5t16 9.5q6 0 12 -1t13 -2.5t16.5 -2.5t24.5 -1q32 0 55.5 9.5t40.5 29.5t29 51.5t21 76.5l151 752h-112q-12 0 -18.5 8.5t-6.5 32.5q0 10 1.5 26t5 34t8.5 36.5t13 33t17.5 24t22.5 9.5h110l17 86q17 85 47.5 149t76.5 107t107 65t140 22
q26 0 51.5 -2.5t47 -7t37 -10.5t21.5 -12q6 -5 8.5 -14t2.5 -22q0 -6 -1.5 -19.5t-4 -31t-6.5 -35.5t-9.5 -33t-12.5 -24.5t-15 -9.5q-6 0 -15.5 3l-21.5 6.5t-27.5 6.5t-33.5 3q-32 0 -55.5 -9t-40.5 -28.5t-29 -50.5t-20 -74l-13 -65h332z" />
    <glyph glyph-name="f_f_itilde.liga" unicode="ff&#x129;" horiz-adv-x="1736" 
d="M857 960l20 101q17 84 45.5 148t71 107t99.5 64.5t132 21.5q39 0 68.5 -6t38.5 -15q5 -5 7 -12.5t2 -21.5q0 -6 -1.5 -20t-4.5 -31t-7.5 -35.5t-9.5 -34t-12 -25t-14 -9.5q-9 0 -19 3t-29 3q-27 0 -45.5 -9t-33 -28.5t-24.5 -50.5t-19 -74l-15 -76h524q39 0 54.5 -16.5
t8.5 -52.5l-170 -857q-3 -10 -10.5 -17.5t-23 -12.5t-40 -7.5t-61.5 -2.5t-60.5 2.5t-36.5 7.5t-17.5 12.5t-2.5 17.5l144 722h-350l-152 -756q-17 -86 -47 -151.5t-75.5 -110t-107.5 -67.5t-142 -23q-59 0 -99.5 8t-51.5 20q-10 9 -10 31q0 7 1.5 22t4.5 32.5t7 36t10 33.5
t13 24.5t16 9.5q8 0 16 -2t18.5 -5t23.5 -5t30 -2q32 0 55.5 9t40.5 28.5t29 50.5t21 74l148 743h-332l-157 -784q-17 -83 -46.5 -146t-74.5 -105.5t-106.5 -64t-139.5 -21.5q-52 0 -87 8t-45 16q-5 6 -7 13t-2 20q0 6 1.5 20t4.5 30.5t7.5 34.5t10 33t12.5 24.5t16 9.5
q6 0 12 -1t13 -2.5t16.5 -2.5t24.5 -1q32 0 55.5 9.5t40.5 29.5t29 51.5t21 76.5l151 752h-112q-12 0 -18.5 8.5t-6.5 32.5q0 10 1.5 26t5 34t8.5 36.5t13 33t17.5 24t22.5 9.5h110l17 86q17 85 47.5 149t76.5 107t107 65t140 22q26 0 51.5 -2.5t47 -7t37 -10.5t21.5 -12
q6 -5 8.5 -14t2.5 -22q0 -6 -1.5 -19.5t-4 -31t-6.5 -35.5t-9.5 -33t-12.5 -24.5t-15 -9.5q-6 0 -15.5 3l-21.5 6.5t-27.5 6.5t-33.5 3q-32 0 -55.5 -9t-40.5 -28.5t-29 -50.5t-20 -74l-13 -65h332zM1938 1319q0 -9 -2 -32t-9 -52t-20 -60t-35 -57t-54.5 -43t-77.5 -17
q-32 0 -56.5 8.5t-44 21t-34.5 27.5l-28.5 28t-26.5 21t-28 8q-23 0 -36.5 -20t-18.5 -65q-1 -7 -4 -12t-11 -9t-23 -6t-39 -2q-22 0 -35 2t-20.5 6t-10.5 10t-3 14q0 7 2 29t9 51t20 60.5t35 57.5t54.5 43.5t78.5 17.5q31 0 55.5 -8.5t43.5 -21.5t35 -27.5l29.5 -27.5
t26.5 -21.5t27 -8.5q23 0 36.5 19.5t18.5 65.5q1 8 4.5 13.5t12 9t22 5.5t36.5 2q42 0 56.5 -7t14.5 -23z" />
    <glyph glyph-name="f_f_idieresis.liga" unicode="ff&#xef;" horiz-adv-x="1736" 
d="M1376 1226q7 37 18 61t28 37.5t40.5 18.5t55.5 5q33 0 54 -5t32 -18.5t12 -37.5t-6 -61q-8 -37 -18.5 -61.5t-27.5 -38.5t-40 -19.5t-55 -5.5t-53.5 5.5t-33 19.5t-13 38.5t6.5 61.5zM1684 1226q8 37 19 61t28 37.5t40.5 18.5t55.5 5t53 -5t32 -18.5t12 -37.5t-6 -61
q-8 -37 -19 -61.5t-27.5 -38.5t-39.5 -19.5t-55 -5.5t-53.5 5.5t-32.5 19.5t-12.5 38.5t5.5 61.5zM857 960l19 97q17 85 45.5 149.5t71.5 108t100.5 65.5t131.5 22q20 0 39 -2t35.5 -5.5t28 -8t17.5 -9.5q5 -5 7.5 -12t2.5 -21q0 -6 -1.5 -20t-4.5 -31.5t-7.5 -35.5
t-9.5 -33.5t-12 -25.5t-14 -10q-5 0 -11 1.5t-13 3.5t-16 3.5t-21 1.5q-27 0 -46 -8.5t-33.5 -27.5t-24.5 -49.5t-19 -73.5l-15 -79h524q39 0 54.5 -16.5t8.5 -52.5l-170 -857q-3 -10 -10.5 -17.5t-23 -12.5t-40 -7.5t-61.5 -2.5t-60.5 2.5t-36.5 7.5t-17.5 12.5t-2.5 17.5
l144 722h-350l-152 -756q-17 -86 -47 -151.5t-75.5 -110t-107.5 -67.5t-142 -23q-59 0 -99.5 8t-51.5 20q-10 9 -10 31q0 7 1.5 22t4.5 32.5t7 36t10 33.5t13 24.5t16 9.5q8 0 16 -2t18.5 -5t23.5 -5t30 -2q32 0 55.5 9t40.5 28.5t29 50.5t21 74l148 743h-332l-157 -784
q-17 -83 -46.5 -146t-74.5 -105.5t-106.5 -64t-139.5 -21.5q-52 0 -87 8t-45 16q-5 6 -7 13t-2 20q0 6 1.5 20t4.5 30.5t7.5 34.5t10 33t12.5 24.5t16 9.5q6 0 12 -1t13 -2.5t16.5 -2.5t24.5 -1q32 0 55.5 9.5t40.5 29.5t29 51.5t21 76.5l151 752h-112q-12 0 -18.5 8.5
t-6.5 32.5q0 10 1.5 26t5 34t8.5 36.5t13 33t17.5 24t22.5 9.5h110l17 86q17 85 47.5 149t76.5 107t107 65t140 22q26 0 51.5 -2.5t47 -7t37 -10.5t21.5 -12q6 -5 8.5 -14t2.5 -22q0 -6 -1.5 -19.5t-4 -31t-6.5 -35.5t-9.5 -33t-12.5 -24.5t-15 -9.5q-6 0 -15.5 3l-21.5 6.5
t-27.5 6.5t-33.5 3q-32 0 -55.5 -9t-40.5 -28.5t-29 -50.5t-20 -74l-13 -65h332z" />
    <glyph glyph-name="f_f_imacron.liga" unicode="ff&#x12b;" horiz-adv-x="1736" 
d="M857 960l19 97q17 85 45.5 149.5t71.5 108t100.5 65.5t131.5 22q20 0 39 -2t35.5 -5.5t28 -8t17.5 -9.5q5 -5 7.5 -12t2.5 -21q0 -6 -1.5 -20t-4.5 -31.5t-7.5 -35.5t-9.5 -33.5t-12 -25.5t-14 -10q-5 0 -11 1.5t-13 3.5t-16 3.5t-21 1.5q-27 0 -46 -8.5t-33.5 -27.5
t-24.5 -49.5t-19 -73.5l-15 -79h524q39 0 54.5 -16.5t8.5 -52.5l-170 -857q-3 -10 -10.5 -17.5t-23 -12.5t-40 -7.5t-61.5 -2.5t-60.5 2.5t-36.5 7.5t-17.5 12.5t-2.5 17.5l144 722h-350l-152 -756q-17 -86 -47 -151.5t-75.5 -110t-107.5 -67.5t-142 -23q-59 0 -99.5 8
t-51.5 20q-10 9 -10 31q0 7 1.5 22t4.5 32.5t7 36t10 33.5t13 24.5t16 9.5q8 0 16 -2t18.5 -5t23.5 -5t30 -2q32 0 55.5 9t40.5 28.5t29 50.5t21 74l148 743h-332l-157 -784q-17 -83 -46.5 -146t-74.5 -105.5t-106.5 -64t-139.5 -21.5q-52 0 -87 8t-45 16q-5 6 -7 13t-2 20
q0 6 1.5 20t4.5 30.5t7.5 34.5t10 33t12.5 24.5t16 9.5q6 0 12 -1t13 -2.5t16.5 -2.5t24.5 -1q32 0 55.5 9.5t40.5 29.5t29 51.5t21 76.5l151 752h-112q-12 0 -18.5 8.5t-6.5 32.5q0 10 1.5 26t5 34t8.5 36.5t13 33t17.5 24t22.5 9.5h110l17 86q17 85 47.5 149t76.5 107
t107 65t140 22q26 0 51.5 -2.5t47 -7t37 -10.5t21.5 -12q6 -5 8.5 -14t2.5 -22q0 -6 -1.5 -19.5t-4 -31t-6.5 -35.5t-9.5 -33t-12.5 -24.5t-15 -9.5q-6 0 -15.5 3l-21.5 6.5t-27.5 6.5t-33.5 3q-32 0 -55.5 -9t-40.5 -28.5t-29 -50.5t-20 -74l-13 -65h332zM1882 1323
q16 0 23 -10t7 -29q0 -6 -1.5 -19t-4.5 -29t-7.5 -33t-12 -31t-17.5 -23t-22 -9h-450q-19 0 -26 9.5t-7 29.5q0 10 3 33.5t11 48.5t21 43.5t33 18.5h450z" />
    <glyph glyph-name="f_f_ibreve.liga" unicode="ff&#x12d;" horiz-adv-x="1736" 
d="M857 960l20 101q17 84 45.5 148t71 107t99.5 64.5t132 21.5q39 0 68.5 -6t38.5 -15q5 -5 7 -12.5t2 -21.5q0 -6 -1.5 -20t-4.5 -31t-7.5 -35.5t-9.5 -34t-12 -25t-14 -9.5q-9 0 -19 3t-29 3q-27 0 -45.5 -9t-33 -28.5t-24.5 -50.5t-19 -74l-15 -76h524q39 0 54.5 -16.5
t8.5 -52.5l-170 -857q-3 -10 -10.5 -17.5t-23 -12.5t-40 -7.5t-61.5 -2.5t-60.5 2.5t-36.5 7.5t-17.5 12.5t-2.5 17.5l144 722h-350l-152 -756q-17 -86 -47 -151.5t-75.5 -110t-107.5 -67.5t-142 -23q-59 0 -99.5 8t-51.5 20q-10 9 -10 31q0 7 1.5 22t4.5 32.5t7 36t10 33.5
t13 24.5t16 9.5q8 0 16 -2t18.5 -5t23.5 -5t30 -2q32 0 55.5 9t40.5 28.5t29 50.5t21 74l148 743h-332l-157 -784q-17 -83 -46.5 -146t-74.5 -105.5t-106.5 -64t-139.5 -21.5q-52 0 -87 8t-45 16q-5 6 -7 13t-2 20q0 6 1.5 20t4.5 30.5t7.5 34.5t10 33t12.5 24.5t16 9.5
q6 0 12 -1t13 -2.5t16.5 -2.5t24.5 -1q32 0 55.5 9.5t40.5 29.5t29 51.5t21 76.5l151 752h-112q-12 0 -18.5 8.5t-6.5 32.5q0 10 1.5 26t5 34t8.5 36.5t13 33t17.5 24t22.5 9.5h110l17 86q17 85 47.5 149t76.5 107t107 65t140 22q26 0 51.5 -2.5t47 -7t37 -10.5t21.5 -12
q6 -5 8.5 -14t2.5 -22q0 -6 -1.5 -19.5t-4 -31t-6.5 -35.5t-9.5 -33t-12.5 -24.5t-15 -9.5q-6 0 -15.5 3l-21.5 6.5t-27.5 6.5t-33.5 3q-32 0 -55.5 -9t-40.5 -28.5t-29 -50.5t-20 -74l-13 -65h332zM1778 1369q8 8 24.5 12.5t49.5 4.5q26 0 42 -1.5t24.5 -5t11 -8t2.5 -10.5
q0 -4 -2.5 -27.5t-12.5 -55.5t-30 -68.5t-54 -67t-86 -51t-125 -20.5t-119 17t-73 44t-37 61.5t-10 69.5q0 13 1 29.5t3.5 32t6.5 28.5t10 18q6 6 22 10.5t50 4.5q24 0 39 -2t24 -6t12.5 -9.5t3.5 -13.5t-2 -21.5t-2 -24.5q0 -37 18.5 -58.5t65.5 -21.5q30 0 51 9t35.5 23
t23.5 31t15 33t9.5 27.5t8.5 16.5z" />
    <glyph glyph-name="f_f_dotlessi.liga" unicode="ff&#x131;" horiz-adv-x="1718" 
d="M483 756l-157 -784q-17 -83 -46.5 -146t-74.5 -105.5t-106.5 -64t-139.5 -21.5q-52 0 -87 8t-45 16q-5 6 -7 13t-2 20q0 6 1.5 20t4.5 30.5t7.5 34.5t10 33t12.5 24.5t16 9.5q6 0 12 -1t13 -2.5t16.5 -2.5t24.5 -1q32 0 55.5 9.5t40.5 29.5t29 51.5t21 76.5l151 752h-112
q-12 0 -18.5 8.5t-6.5 32.5q0 10 1.5 26t5 34t8.5 36.5t13 33t17.5 24t22.5 9.5h110l17 86q17 85 47.5 149t76.5 107t107 65t140 22q26 0 51.5 -2.5t47 -7t37 -10.5t21.5 -12q6 -5 8.5 -14t2.5 -22q0 -6 -1.5 -19.5t-4 -31t-6.5 -35.5t-9.5 -33t-12.5 -24.5t-15 -9.5
q-6 0 -15.5 3l-21.5 6.5t-27.5 6.5t-33.5 3q-32 0 -55.5 -9t-40.5 -28.5t-29 -50.5t-20 -74l-13 -65h332l19 97q17 85 47 149.5t75 108t106 65.5t140 22q25 0 49.5 -2.5t45 -6.5t35 -9t20.5 -11q5 -6 8 -14.5t3 -21.5q0 -6 -1.5 -20t-4.5 -30.5t-7 -34.5t-9.5 -33t-12 -24.5
t-14.5 -9.5q-7 0 -15.5 2t-19 5t-24.5 5.5t-32 2.5q-33 0 -56 -9t-39.5 -28.5t-28 -50.5t-19.5 -73l-15 -79h506q38 0 53.5 -16.5t9.5 -52.5l-171 -857q-2 -10 -9.5 -17.5t-23 -12.5t-40.5 -7.5t-62 -2.5t-60.5 2.5t-36.5 7.5t-17 12.5t-2 17.5l144 722h-332l-152 -756
q-17 -86 -47 -151.5t-75.5 -110t-107.5 -67.5t-142 -23q-59 0 -99.5 8t-51.5 20q-10 9 -10 31q0 7 1.5 22t4.5 32.5t7 36t10 33.5t13 24.5t16 9.5q8 0 16 -2t18.5 -5t23.5 -5t30 -2q32 0 55.5 9t40.5 28.5t29 50.5t21 74l148 743h-332z" />
    <glyph glyph-name="f_j.liga" unicode="fj" horiz-adv-x="1135" 
d="M916 4q-18 -88 -45.5 -154.5t-70.5 -111.5t-103.5 -67.5t-143.5 -22.5q-31 0 -57.5 3t-46 7.5t-32 10t-16.5 9.5q-5 5 -7.5 12.5t-2.5 19.5q0 7 1.5 21.5t4.5 31.5t7.5 35t10.5 32.5t13 24t16 9.5q8 0 15.5 -2.5t17.5 -5t23.5 -5t33.5 -2.5q24 0 44 8t36.5 26t29 47.5
t21.5 73.5l150 752h-332l-157 -784q-17 -83 -46.5 -146t-74.5 -105.5t-106.5 -64t-139.5 -21.5q-54 0 -88.5 8t-43.5 16q-9 10 -9 31q0 7 1.5 22t4.5 32t7.5 35.5t10.5 33.5t13 24.5t16 9.5q7 0 13.5 -1.5l13.5 -3t16.5 -2.5t24.5 -1q31 0 54 9.5t40 29.5t28.5 51t20.5 75
l151 752h-112q-12 0 -18.5 8.5t-6.5 32.5q0 10 1.5 26t5 34t8.5 36.5t13 33t17.5 24t22.5 9.5h110l18 94q17 85 47.5 150t75.5 109t106 66.5t139 22.5q27 0 51 -2.5t43.5 -7t33 -9.5t18.5 -11q5 -5 7.5 -13.5t2.5 -20.5q0 -6 -1.5 -20t-4.5 -31t-7 -35t-9.5 -33t-12.5 -24.5
t-15 -9.5q-7 0 -14.5 2.5t-18 5t-24 5t-31.5 2.5q-31 0 -53 -8.5t-38 -28t-27.5 -50.5t-19.5 -74l-15 -79h505q38 0 53.5 -17t9.5 -52zM1180 1226q-8 -37 -19.5 -62.5t-30.5 -41t-48.5 -22t-71.5 -6.5t-68.5 6.5t-39 22t-14 41t5.5 62.5q7 36 18.5 61t31 41t48.5 23t71 7
q43 0 68.5 -7t39 -23t15 -41t-5.5 -61z" />
    <glyph glyph-name="f_jcircumflex.liga" unicode="f&#x135;" horiz-adv-x="1135" 
d="M945 1112q-8 -12 -16 -19t-20.5 -10.5t-31 -4.5t-47.5 -1q-33 0 -52 3t-25 11t1 23t25 38l174 214q7 10 17.5 16t25.5 9.5t37.5 5t53.5 1.5q32 0 53 -2t35 -6t22 -10t13 -14l93 -223q8 -20 10 -33t-5.5 -20.5t-27 -10t-54.5 -2.5q-32 0 -51.5 1t-30 4.5t-15 10.5t-7.5 19
l-59 149zM525 960h505q38 0 53.5 -17t9.5 -52l-178 -887q-18 -87 -45.5 -153.5t-70 -111.5t-103 -68t-143.5 -23q-31 0 -57 3t-45 7.5t-31 10t-17 9.5q-4 5 -6.5 12.5t-2.5 19.5q0 7 1.5 21.5t4.5 32t7.5 36t10.5 33.5t13.5 25t16.5 10q8 0 15 -2.5t16.5 -5.5t22.5 -5t33 -2
q24 0 44 8t36 26.5t28.5 48t21.5 73.5l150 747h-332l-157 -784q-17 -83 -46.5 -146t-74.5 -105.5t-106.5 -64t-139.5 -21.5q-54 0 -88.5 8t-43.5 16q-9 10 -9 31q0 7 1.5 22t4.5 32t7.5 35.5t10.5 33.5t13 24.5t16 9.5q7 0 13.5 -1.5l13.5 -3t16.5 -2.5t24.5 -1q31 0 54 9.5
t40 29.5t28.5 51t20.5 75l151 752h-112q-12 0 -18.5 8.5t-6.5 32.5q0 10 1.5 26t5 34t8.5 36.5t13 33t17.5 24t22.5 9.5h110l19 97q17 85 46.5 149t73.5 107.5t102.5 65t133.5 21.5q23 0 44.5 -2t39.5 -6t30 -8.5t17 -9.5q6 -6 8.5 -15t2.5 -21q0 -6 -1.5 -19.5t-4 -30
t-7 -33.5t-10 -31.5t-12.5 -24t-14 -9.5t-13 2t-14.5 4.5t-19.5 4.5t-25 2q-28 0 -49 -9.5t-36.5 -29t-26 -50t-18.5 -73.5z" />
    <glyph glyph-name="f_f_j.liga" unicode="ffj" horiz-adv-x="1719" 
d="M1499 4q-18 -87 -45.5 -153.5t-70.5 -111.5t-104 -68t-144 -23q-31 0 -57 3t-45.5 7.5t-32 10t-16.5 9.5q-5 5 -8 12.5t-3 19.5q0 7 2 21.5t5 31.5t7.5 35t11 32.5t13.5 24t16 9.5t16.5 -2.5t17 -5t22.5 -5t33 -2.5q24 0 44.5 8t36.5 26t28.5 47.5t21.5 73.5l150 752
h-332l-154 -770q-17 -86 -47.5 -151.5t-76 -110t-107 -67t-141.5 -22.5q-59 0 -100 8t-52 20q-10 8 -10 30q0 12 3.5 38t10 52.5t16 47t22.5 20.5q8 0 16.5 -2t19 -5t23.5 -5t29 -2q33 0 56 9t40 28.5t29 50.5t21 74l151 757h-332l-157 -784q-17 -83 -46.5 -146
t-74.5 -105.5t-106.5 -64t-139.5 -21.5q-52 0 -87 8t-45 16q-5 6 -7 13t-2 20q0 6 1.5 20t4.5 30.5t7.5 34.5t10 33t12.5 24.5t16 9.5q6 0 12 -1t13 -2.5t16.5 -2.5t24.5 -1q32 0 55.5 9.5t40.5 29.5t29 51.5t21 76.5l151 752h-112q-12 0 -18.5 8.5t-6.5 32.5q0 10 1.5 26
t5 34t8.5 36.5t13 33t17.5 24t22.5 9.5h110l17 86q17 85 47.5 149t76.5 107t107 65t140 22q26 0 51.5 -2.5t47 -7t37 -10.5t21.5 -12q6 -5 8.5 -14t2.5 -22q0 -6 -1.5 -19.5t-4 -31t-6.5 -35.5t-9.5 -33t-12.5 -24.5t-15 -9.5q-6 0 -15.5 3l-21.5 6.5t-27.5 6.5t-33.5 3
q-32 0 -55.5 -9t-40.5 -28.5t-29 -50.5t-20 -74l-13 -65h332l19 97q17 85 47 149.5t75 108t106 65.5t140 22q27 0 51 -2.5t43 -7t32.5 -9.5t19.5 -11q5 -5 7 -13.5t2 -20.5q0 -6 -1.5 -20t-4 -30.5t-6.5 -34.5t-9.5 -33t-12.5 -24.5t-14 -9.5t-15.5 2t-19 5t-24 5t-31.5 2
q-31 0 -53 -9t-38.5 -28.5t-28 -50.5t-19.5 -73l-15 -79h506q38 0 53.5 -16.5t9.5 -52.5zM1763 1226q-8 -37 -19.5 -62.5t-31 -41t-48.5 -22t-71 -6.5t-68.5 6.5t-39.5 22t-14.5 41t5.5 62.5q8 36 19.5 61t31 41t48.5 23t72 7q42 0 68 -7t39 -23t14.5 -41t-5.5 -61z" />
    <glyph glyph-name="f_k.liga" unicode="fk" horiz-adv-x="1613" 
d="M1645 930q0 -16 -13 -37.5t-45 -54.5l-315 -297l205 -430q10 -24 14.5 -42t4.5 -28q0 -13 -6.5 -21.5t-22 -14.5t-42 -8.5t-66.5 -2.5t-64.5 2t-38 6.5t-20 12.5t-9.5 21l-211 470l-94 -472q-2 -10 -9.5 -17.5t-23 -12.5t-40.5 -7.5t-62 -2.5q-36 0 -59.5 2.5t-36.5 7.5
t-17.5 12.5t-2.5 17.5l231 1158q-3 -5 -9 -9t-15 -4q-7 0 -19 3t-30 6.5t-43 6.5t-59 3q-47 0 -79 -9t-53 -28.5t-34 -50.5t-21 -74l-15 -76h148q13 0 19.5 -9.5t6.5 -30.5q0 -10 -1.5 -26t-5.5 -34.5t-9.5 -36.5t-13 -33t-17 -24.5t-20.5 -9.5h-149l-157 -784
q-17 -83 -46.5 -146t-74.5 -105.5t-106.5 -64t-139.5 -21.5q-52 0 -87 8t-45 16q-5 6 -7 13t-2 20q0 6 1.5 20t4.5 30.5t7.5 34.5t10 33t12.5 24.5t16 9.5q6 0 12 -1t13 -2.5t16.5 -2.5t24.5 -1q32 0 55.5 9.5t40.5 29.5t29 51.5t21 76.5l151 752h-112q-12 0 -18.5 8.5
t-6.5 32.5q0 10 1.5 26t5 34t8.5 36.5t13 33t17.5 24t22.5 9.5h110l19 98q16 85 48 149t82.5 107t122.5 64.5t170 21.5q26 0 59.5 -2.5t64 -7t54.5 -11t31 -12.5q4 -5 6 -8t4 -9q2 9 9 16.5t22 13t39.5 9t62.5 3.5q37 0 60.5 -3t36.5 -8.5t17.5 -13.5t2.5 -18l-157 -783
l334 357q10 12 22 20.5t30 13.5t43.5 7t63.5 2t62 -2t38 -6.5t19 -11.5t5 -16z" />
    <glyph glyph-name="f_f_k.liga" unicode="ffk" horiz-adv-x="2197" 
d="M2229 930q0 -16 -13 -37.5t-44 -54.5l-316 -297l205 -430q10 -24 14.5 -42t4.5 -28q0 -12 -6.5 -21t-22 -15t-42 -8.5t-66.5 -2.5t-64.5 2.5t-38 7.5t-20 13t-10.5 19l-210 470l-95 -472q-2 -10 -9.5 -17.5t-23 -12.5t-40.5 -7.5t-62 -2.5t-60.5 2.5t-36.5 7.5t-17 12.5
t-2 17.5l233 1161q-3 -5 -9.5 -9t-15.5 -4q-8 0 -19.5 2.5l-30 6.5t-43.5 6.5t-59 2.5q-47 0 -79 -8.5t-53 -28t-33.5 -50.5t-21.5 -74l-15 -79h148q14 0 20.5 -9.5t6.5 -30.5q0 -10 -1.5 -26t-5.5 -34.5t-10 -36.5t-13.5 -33t-17 -24.5t-19.5 -9.5h-149l-152 -756
q-17 -86 -47 -151.5t-75.5 -110t-107.5 -67.5t-142 -23q-59 0 -99.5 8t-51.5 20q-10 9 -10 31q0 7 1.5 22t4 32.5t7 36t10 33.5t13 24.5t16.5 9.5q8 0 16 -2t18.5 -5t23.5 -5t30 -2q32 0 55.5 9t40.5 28.5t29 50.5t21 74l148 743h-333l-157 -784q-17 -83 -46.5 -146
t-74.5 -105.5t-106.5 -64t-139.5 -21.5q-52 0 -87 8t-45 16q-5 6 -7 13t-2 20q0 6 1.5 20t4.5 30.5t7.5 34.5t10 33t12.5 24.5t16 9.5q6 0 12 -1t13 -2.5t16.5 -2.5t24.5 -1q32 0 55.5 9t40.5 29t29 52t21 77l151 752h-112q-12 0 -18.5 8.5t-6.5 32.5q0 10 1.5 26t5 34
t8.5 36.5t13 33t17.5 24t22.5 9.5h110l17 86q17 85 47.5 149t76.5 107t107 65t140 22q26 0 51.5 -2.5t47 -7t37 -10.5t21.5 -12q6 -5 8.5 -14t2.5 -22q0 -6 -1.5 -19.5t-4 -31t-6.5 -35.5t-9.5 -33t-12.5 -24.5t-15 -9.5q-6 0 -15.5 3l-21.5 6.5t-27.5 6.5t-33.5 3
q-32 0 -55.5 -9t-40.5 -28.5t-29 -50.5t-20 -74l-13 -65h333l19 98q17 85 47.5 149.5t80.5 107.5t122 65t171 22q27 0 60.5 -2.5t64.5 -7t54.5 -11t31.5 -13.5q3 -3 5 -7.5t4 -10.5q2 9 9 16.5t22.5 13t40 9t62.5 3.5q37 0 60.5 -3t36.5 -8.5t17 -13.5t2 -18l-156 -783
l333 357q9 11 21 19.5t30.5 13.5t44.5 7.5t63 2.5q38 0 62.5 -2.5t38.5 -7t19 -11t5 -15.5z" />
    <glyph glyph-name="uniFB02" unicode="fl" horiz-adv-x="1135" 
d="M922 36q-4 -21 -33.5 -31.5t-92.5 -10.5q-39 0 -64 3t-39 8t-19 13t-3 18l231 1156q-3 -5 -9 -9t-15 -4q-7 0 -19 3t-30 6.5t-43 6.5t-59 3q-47 0 -79 -9t-53 -28.5t-34 -50.5t-21 -74l-15 -76h148q13 0 19.5 -9.5t6.5 -30.5q0 -10 -1.5 -26t-5.5 -34.5t-9.5 -36.5
t-13 -33t-17 -24.5t-20.5 -9.5h-149l-157 -784q-17 -83 -46.5 -146t-74.5 -105.5t-106.5 -64t-139.5 -21.5q-52 0 -87 8t-45 16q-5 6 -7 13t-2 20q0 6 1.5 20t4.5 30.5t7.5 34.5t10 33t12.5 24.5t16 9.5q6 0 12 -1t13 -2.5t16.5 -2.5t24.5 -1q32 0 55.5 9.5t40.5 29.5
t29 51.5t21 76.5l151 752h-112q-12 0 -18.5 8.5t-6.5 32.5q0 10 1.5 26t5 34t8.5 36.5t13 33t17.5 24t22.5 9.5h110l19 98q16 85 48 149t82.5 107t122.5 64.5t170 21.5q26 0 59.5 -2.5t64 -7t54.5 -11t31 -12.5q4 -5 6 -8t4 -9q2 9 9 16.5t22 13t39.5 9t62.5 3.5q36 0 60 -3
t37 -8.5t17.5 -13.5t2.5 -18z" />
    <glyph glyph-name="f_lacute.liga" unicode="f&#x13a;" horiz-adv-x="1135" 
d="M922 36q-4 -21 -33.5 -31.5t-92.5 -10.5q-39 0 -64 3t-39 8t-19 13t-3 18l231 1156q-3 -5 -9 -9t-15 -4q-7 0 -19 3t-30 6.5t-43 6.5t-59 3q-47 0 -79 -9t-53 -28.5t-34 -50.5t-21 -74l-15 -76h148q13 0 19.5 -9.5t6.5 -30.5q0 -10 -1.5 -26t-5.5 -34.5t-9.5 -36.5
t-13 -33t-17 -24.5t-20.5 -9.5h-149l-157 -784q-17 -83 -46.5 -146t-74.5 -105.5t-106.5 -64t-139.5 -21.5q-52 0 -87 8t-45 16q-5 6 -7 13t-2 20q0 6 1.5 20t4.5 30.5t7.5 34.5t10 33t12.5 24.5t16 9.5q6 0 12 -1t13 -2.5t16.5 -2.5t24.5 -1q32 0 55.5 9.5t40.5 29.5
t29 51.5t21 76.5l151 752h-112q-12 0 -18.5 8.5t-6.5 32.5q0 10 1.5 26t5 34t8.5 36.5t13 33t17.5 24t22.5 9.5h110l19 98q16 85 48 149t82.5 107t122.5 64.5t170 21.5q26 0 59.5 -2.5t64 -7t54.5 -11t31 -12.5q4 -5 6 -8t4 -9q2 9 9 16.5t22 13t39.5 9t62.5 3.5q36 0 60 -3
t37 -8.5t17.5 -13.5t2.5 -18zM1211 1489q-11 -9 -21.5 -15.5t-25 -10.5t-36 -6.5t-52.5 -2.5q-68 0 -83.5 13t10.5 40l189 204q13 14 26 23t31 14t43 7t61 2q47 0 72 -6t34 -15.5t3.5 -21.5t-20.5 -25zM675 1362z" />
    <glyph glyph-name="f_lcaron.liga" unicode="f&#x13e;" horiz-adv-x="1258" 
d="M922 36q-4 -21 -33.5 -31.5t-92.5 -10.5q-39 0 -64 3t-39 8t-19 13t-3 18l231 1156q-3 -5 -9 -9t-15 -4q-7 0 -19 3t-30 6.5t-43 6.5t-59 3q-47 0 -79 -9t-53 -28.5t-34 -50.5t-21 -74l-15 -76h148q13 0 19.5 -9.5t6.5 -30.5q0 -10 -1.5 -26t-5.5 -34.5t-9.5 -36.5
t-13 -33t-17 -24.5t-20.5 -9.5h-149l-157 -784q-17 -83 -46.5 -146t-74.5 -105.5t-106.5 -64t-139.5 -21.5q-52 0 -87 8t-45 16q-5 6 -7 13t-2 20q0 6 1.5 20t4.5 30.5t7.5 34.5t10 33t12.5 24.5t16 9.5q6 0 12 -1t13 -2.5t16.5 -2.5t24.5 -1q32 0 55.5 9.5t40.5 29.5
t29 51.5t21 76.5l151 752h-112q-12 0 -18.5 8.5t-6.5 32.5q0 10 1.5 26t5 34t8.5 36.5t13 33t17.5 24t22.5 9.5h110l19 98q16 85 48 149t82.5 107t122.5 64.5t170 21.5q26 0 59.5 -2.5t64 -7t54.5 -11t31 -12.5q4 -5 6 -8t4 -9q2 9 9 16.5t22 13t39.5 9t62.5 3.5q36 0 60 -3
t37 -8.5t17.5 -13.5t2.5 -18zM1355 1038q-6 -11 -14 -17.5t-21 -10t-32 -5t-48 -1.5q-23 0 -36 2.5t-19 7.5t-6 14t4 22l116 305q4 12 12.5 20.5t23 14.5t37.5 9t56 3q36 0 57 -3.5t30 -9.5t8.5 -15.5t-7.5 -21.5zM955 988z" />
    <glyph glyph-name="f_lcommaaccent.liga" unicode="f&#x13c;" horiz-adv-x="1135" 
d="M922 36q-4 -21 -33.5 -31.5t-92.5 -10.5q-39 0 -64 3t-39 8t-19 13t-3 18l231 1156q-3 -5 -9 -9t-15 -4q-7 0 -19 3t-30 6.5t-43 6.5t-59 3q-47 0 -79 -9t-53 -28.5t-34 -50.5t-21 -74l-15 -76h148q13 0 19.5 -9.5t6.5 -30.5q0 -10 -1.5 -26t-5.5 -34.5t-9.5 -36.5
t-13 -33t-17 -24.5t-20.5 -9.5h-149l-157 -784q-17 -83 -46.5 -146t-74.5 -105.5t-106.5 -64t-139.5 -21.5q-52 0 -87 8t-45 16q-5 6 -7 13t-2 20q0 6 1.5 20t4.5 30.5t7.5 34.5t10 33t12.5 24.5t16 9.5q6 0 12 -1t13 -2.5t16.5 -2.5t24.5 -1q32 0 55.5 9.5t40.5 29.5
t29 51.5t21 76.5l151 752h-112q-12 0 -18.5 8.5t-6.5 32.5q0 10 1.5 26t5 34t8.5 36.5t13 33t17.5 24t22.5 9.5h110l19 98q16 85 48 149t82.5 107t122.5 64.5t170 21.5q26 0 59.5 -2.5t64 -7t54.5 -11t31 -12.5q4 -5 6 -8t4 -9q2 9 9 16.5t22 13t39.5 9t62.5 3.5q36 0 60 -3
t37 -8.5t17.5 -13.5t2.5 -18zM745 -330q-7 -10 -14.5 -16.5t-20.5 -11t-34 -6t-53 -1.5q-31 0 -49 2.5t-25.5 9t-7 16.5t7.5 24l88 190q5 11 14 19.5t25 13.5t42.5 7t66.5 2t62.5 -4t31.5 -11.5t7 -18.5t-12 -25z" />
    <glyph glyph-name="uniFB04" unicode="ffl" horiz-adv-x="1718" 
d="M1505 34q-4 -21 -34.5 -30.5t-92.5 -9.5q-40 0 -64.5 2.5t-38.5 7.5t-18.5 12.5t-2.5 17.5l232 1161q-3 -5 -9 -9t-15 -4q-8 0 -19.5 2.5l-30 6.5t-43.5 6.5t-59 2.5q-47 0 -79 -8.5t-53.5 -28t-34 -50.5t-21.5 -74l-15 -79h149q14 0 20 -9.5t6 -30.5q0 -10 -1.5 -26
t-5.5 -34.5t-9.5 -36.5t-13 -33t-17 -24.5t-19.5 -9.5h-150l-151 -756q-17 -86 -47 -151.5t-75.5 -110t-107.5 -67.5t-142 -23q-59 0 -99.5 8t-51.5 20q-10 9 -10 31q0 7 1.5 22t4 32.5t7 36t10 33.5t13 24.5t16.5 9.5q8 0 16 -2t18.5 -5t23.5 -5t30 -2q32 0 55.5 9
t40.5 28.5t29 50.5t21 74l147 743h-332l-157 -784q-17 -83 -46.5 -146t-74.5 -105.5t-106.5 -64t-139.5 -21.5q-52 0 -87 8t-45 16q-5 6 -7 13t-2 20q0 6 1.5 20t4.5 30.5t7.5 34.5t10 33t12.5 24.5t16 9.5q6 0 12 -1t13 -2.5t16.5 -2.5t24.5 -1q32 0 55.5 9t40.5 29t29 52
t21 77l151 752h-112q-12 0 -18.5 8.5t-6.5 32.5q0 10 1.5 26t5 34t8.5 36.5t13 33t17.5 24t22.5 9.5h110l17 86q17 85 47.5 149t76.5 107t107 65t140 22q26 0 51.5 -2.5t47 -7t37 -10.5t21.5 -12q6 -5 8.5 -14t2.5 -22q0 -6 -1.5 -19.5t-4 -31t-6.5 -35.5t-9.5 -33
t-12.5 -24.5t-15 -9.5q-6 0 -15.5 3l-21.5 6.5t-27.5 6.5t-33.5 3q-32 0 -55.5 -9t-40.5 -28.5t-29 -50.5t-20 -74l-13 -65h332l19 98q17 85 47.5 149.5t80.5 107.5t123 65t173 22q27 0 60 -2.5t63.5 -7t54 -10.5t30.5 -13q4 -4 6 -8.5t3 -10.5q2 9 9.5 16.5t22.5 13t39.5 9
t62.5 3.5q37 0 60 -3t36.5 -8.5t17.5 -13.5t2 -18z" />
    <glyph glyph-name="f_t.liga" unicode="ft" horiz-adv-x="1293" 
d="M1324 917q0 -10 -1.5 -25.5t-5.5 -33.5t-10 -36t-13 -32.5t-16.5 -24t-21.5 -9.5h-195l-84 -419l-4.5 -35.5t-2.5 -33.5q0 -40 19 -58.5t60 -18.5q24 0 40.5 3.5t29.5 8t22 8t17 3.5t13.5 -7.5t5.5 -24.5q0 -19 -4 -43t-10.5 -46.5t-14.5 -41t-17 -27.5t-27.5 -17
t-43 -14t-52 -9.5t-56.5 -3.5q-60 0 -105.5 12.5t-76.5 39.5t-46 69t-15 102q0 11 1 25.5t3 30.5t4.5 32.5t5.5 29.5l87 435h-327l-157 -784q-17 -83 -46.5 -146t-74.5 -105.5t-106.5 -64t-139.5 -21.5q-52 0 -87 8t-45 16q-5 6 -7 13t-2 20q0 6 1.5 20t4.5 30.5t7.5 34.5
t10 33t12.5 24.5t16 9.5q6 0 12 -1t13 -2.5t16.5 -2.5t24.5 -1q32 0 55.5 9.5t40.5 29.5t29 51.5t21 76.5l151 752h-112q-12 0 -18.5 8.5t-6.5 32.5q0 10 1.5 26t5 34t8.5 36.5t13 33t17.5 24t22.5 9.5h110l19 99q16 84 47 148t76.5 107t107 64.5t139.5 21.5q26 0 50.5 -2.5
t44.5 -6.5t34.5 -10t20.5 -12q5 -5 8 -13.5t3 -22.5q0 -6 -1.5 -19.5t-4.5 -30.5t-7 -35t-9.5 -33.5t-12.5 -25t-14 -9.5t-15 2.5l-19.5 6t-26 6.5t-33.5 3q-31 0 -54.5 -9t-40 -28.5t-28.5 -50.5t-20 -74l-14 -76h328l40 199q2 10 9.5 18t22.5 13.5t40 8t61 2.5
q37 0 60.5 -2.5t37 -8t18 -13.5t2.5 -18l-40 -199h193q16 0 22 -11t6 -32z" />
    <glyph glyph-name="f_tcommaaccent.liga" unicode="f&#x163;" horiz-adv-x="1293" 
d="M1324 917q0 -10 -1.5 -25.5t-5.5 -33.5t-10 -36t-13 -32.5t-16.5 -24t-21.5 -9.5h-195l-84 -419l-4.5 -35.5t-2.5 -33.5q0 -40 19 -58.5t60 -18.5q24 0 40.5 3.5t29.5 8t22 8t17 3.5t13.5 -7.5t5.5 -24.5q0 -19 -4 -43t-10.5 -46.5t-14.5 -41t-17 -27.5t-27.5 -17
t-43 -14t-52 -9.5t-56.5 -3.5q-60 0 -105.5 12.5t-76.5 39.5t-46 69t-15 102q0 11 1 25.5t3 30.5t4.5 32.5t5.5 29.5l87 435h-327l-157 -784q-17 -83 -46.5 -146t-74.5 -105.5t-106.5 -64t-139.5 -21.5q-52 0 -87 8t-45 16q-5 6 -7 13t-2 20q0 6 1.5 20t4.5 30.5t7.5 34.5
t10 33t12.5 24.5t16 9.5q6 0 12 -1t13 -2.5t16.5 -2.5t24.5 -1q32 0 55.5 9.5t40.5 29.5t29 51.5t21 76.5l151 752h-112q-12 0 -18.5 8.5t-6.5 32.5q0 10 1.5 26t5 34t8.5 36.5t13 33t17.5 24t22.5 9.5h110l19 99q16 84 47 148t76.5 107t107 64.5t139.5 21.5q26 0 50.5 -2.5
t44.5 -6.5t34.5 -10t20.5 -12q5 -5 8 -13.5t3 -22.5q0 -6 -1.5 -19.5t-4.5 -30.5t-7 -35t-9.5 -33.5t-12.5 -25t-14 -9.5t-15 2.5l-19.5 6t-26 6.5t-33.5 3q-31 0 -54.5 -9t-40 -28.5t-28.5 -50.5t-20 -74l-14 -76h328l40 199q2 10 9.5 18t22.5 13.5t40 8t61 2.5
q37 0 60.5 -2.5t37 -8t18 -13.5t2.5 -18l-40 -199h193q16 0 22 -11t6 -32zM843 -330q-7 -10 -14.5 -16.5t-20.5 -11t-34 -6t-53 -1.5q-31 0 -49 2.5t-25.5 9t-7 16.5t7.5 24l88 190q5 11 14 19.5t25 13.5t42.5 7t66.5 2t62.5 -4t31.5 -11.5t7 -18.5t-12 -25z" />
    <glyph glyph-name="f_tcaron.liga" unicode="f&#x165;" horiz-adv-x="1340" 
d="M1324 917q0 -10 -1.5 -25.5t-5.5 -33.5t-10 -36t-13 -32.5t-16.5 -24t-21.5 -9.5h-195l-84 -419l-4.5 -35.5t-2.5 -33.5q0 -40 19 -58.5t60 -18.5q24 0 40.5 3.5t29.5 8t22 8t17 3.5t13.5 -7.5t5.5 -24.5q0 -19 -4 -43t-10.5 -46.5t-14.5 -41t-17 -27.5t-27.5 -17
t-43 -14t-52 -9.5t-56.5 -3.5q-60 0 -105.5 12.5t-76.5 39.5t-46 69t-15 102q0 11 1 25.5t3 30.5t4.5 32.5t5.5 29.5l87 435h-327l-157 -784q-17 -83 -46.5 -146t-74.5 -105.5t-106.5 -64t-139.5 -21.5q-52 0 -87 8t-45 16q-5 6 -7 13t-2 20q0 6 1.5 20t4.5 30.5t7.5 34.5
t10 33t12.5 24.5t16 9.5q6 0 12 -1t13 -2.5t16.5 -2.5t24.5 -1q32 0 55.5 9.5t40.5 29.5t29 51.5t21 76.5l151 752h-112q-12 0 -18.5 8.5t-6.5 32.5q0 10 1.5 26t5 34t8.5 36.5t13 33t17.5 24t22.5 9.5h110l19 99q16 84 47 148t76.5 107t107 64.5t139.5 21.5q26 0 50.5 -2.5
t44.5 -6.5t34.5 -10t20.5 -12q5 -5 8 -13.5t3 -22.5q0 -6 -1.5 -19.5t-4.5 -30.5t-7 -35t-9.5 -33.5t-12.5 -25t-14 -9.5t-15 2.5l-19.5 6t-26 6.5t-33.5 3q-31 0 -54.5 -9t-40 -28.5t-28.5 -50.5t-20 -74l-14 -76h328l40 199q2 10 9.5 18t22.5 13.5t40 8t61 2.5
q37 0 60.5 -2.5t37 -8t18 -13.5t2.5 -18l-40 -199h193q16 0 22 -11t6 -32zM1404 1158q-6 -11 -14 -17.5t-21 -10t-32 -5t-48 -1.5q-23 0 -36 2.5t-19 7.5t-6 14t4 22l116 305q4 12 12.5 20.5t23 14.5t37.5 9t56 3q36 0 57 -3.5t30 -9.5t8.5 -15.5t-7.5 -21.5zM1004 1108z
" />
    <glyph glyph-name="t_f.liga" unicode="tf" horiz-adv-x="1296" 
d="M1481 1332q0 -6 -1.5 -19.5t-4.5 -30.5t-7 -35t-9.5 -33.5t-12 -25t-14.5 -9.5q-6 0 -15.5 3t-22 6.5t-28 6.5t-33.5 3q-32 0 -55.5 -9t-40.5 -28.5t-29 -50.5t-20 -74l-15 -76h163q14 0 20.5 -9.5t6.5 -30.5q0 -10 -1.5 -26t-5.5 -34.5t-10 -36.5t-13.5 -33t-17 -24.5
t-20.5 -9.5h-163l-154 -770q-17 -86 -47.5 -151.5t-76 -110t-107.5 -67t-142 -22.5q-58 0 -99 8t-53 20q-9 9 -9 30q0 12 3.5 38t9.5 52.5t16 47t23 20.5q8 0 16 -2t18.5 -5t24 -5t29.5 -2q33 0 56 9t40 28.5t29 50.5t21 74l151 757h-403l-84 -419q-3 -15 -5.5 -35.5
t-2.5 -33.5q0 -40 19 -58.5t60 -18.5q24 0 41 3.5t29.5 8l21.5 8t17 3.5t13.5 -7.5t5.5 -24.5q0 -19 -4 -43t-10.5 -46.5t-14.5 -41t-17 -27.5t-27 -17t-42.5 -14t-52.5 -9.5t-56 -3.5q-60 0 -105.5 12.5t-76.5 39.5t-46.5 69t-15.5 102q0 11 1 25.5t3.5 30.5l5 32.5
t5.5 29.5l87 435h-108q-13 0 -19 8.5t-6 32.5q0 17 3.5 44.5t11.5 54t21 45.5t31 19h107l40 199q2 10 9.5 18t23 13.5t40 8t61.5 2.5q36 0 60 -2.5t37 -8t17.5 -13.5t2.5 -18l-40 -199h403l20 97q17 85 47.5 149t76 107.5t107 65t140.5 21.5q26 0 51 -2.5t46.5 -7t37 -10.5
t21.5 -12q6 -5 9 -14t3 -22z" />
    <glyph glyph-name="t_i.liga" unicode="ti" horiz-adv-x="1199" 
d="M986 34q-2 -10 -9.5 -17.5t-23 -12.5t-40 -7.5t-61.5 -2.5q-36 0 -60 2.5t-37.5 7.5t-18 12.5t-1.5 17.5l144 722h-401l-84 -419q-3 -15 -5.5 -35.5t-2.5 -33.5q0 -40 19 -58.5t60 -18.5q24 0 41 3.5t29.5 8l21.5 8t17 3.5t13.5 -7.5t5.5 -24.5q0 -19 -4 -43t-10.5 -46.5
t-14.5 -41t-17 -27.5t-27 -17t-42.5 -14t-52.5 -9.5t-56 -3.5q-60 0 -105.5 12.5t-76.5 39.5t-46.5 69t-15.5 102q0 11 1 25.5t3.5 30.5l5 32.5t5.5 29.5l87 435h-108q-13 0 -19 8.5t-6 32.5q0 17 3.5 44.5t11.5 54t21 45.5t31 19h107l40 199q2 10 9.5 18t23 13.5t40 8
t61.5 2.5q36 0 60 -2.5t37.5 -8t17.5 -13.5t2 -18l-40 -199h577q42 0 55 -18t6 -52zM1243 1226q-7 -37 -19 -62.5t-31.5 -41t-49 -22t-71.5 -6.5t-68.5 6.5t-40 22t-15.5 41t5 62.5q8 36 19.5 61t31.5 41t49 23t72 7q42 0 68.5 -7t40 -23t15 -41t-5.5 -61z" />
    <glyph glyph-name="t_igrave.liga" unicode="t&#xec;" horiz-adv-x="1199" 
d="M986 34q-2 -10 -9.5 -17.5t-23 -12.5t-40 -7.5t-61.5 -2.5q-36 0 -60 2.5t-37.5 7.5t-18 12.5t-1.5 17.5l144 722h-401l-84 -419q-3 -15 -5.5 -35.5t-2.5 -33.5q0 -40 19 -58.5t60 -18.5q24 0 41 3.5t29.5 8l21.5 8t17 3.5t13.5 -7.5t5.5 -24.5q0 -19 -4 -43t-10.5 -46.5
t-14.5 -41t-17 -27.5t-27 -17t-42.5 -14t-52.5 -9.5t-56 -3.5q-60 0 -105.5 12.5t-76.5 39.5t-46.5 69t-15.5 102q0 11 1 25.5t3.5 30.5l5 32.5t5.5 29.5l87 435h-108q-13 0 -19 8.5t-6 32.5q0 17 3.5 44.5t11.5 54t21 45.5t31 19h107l40 199q2 10 9.5 18t23 13.5t40 8
t61.5 2.5q36 0 60 -2.5t37.5 -8t17.5 -13.5t2 -18l-40 -199h577q42 0 55 -18t6 -52zM1171 1135q8 -13 9.5 -23t-7 -16.5t-28.5 -9.5t-55 -3q-29 0 -48 1.5t-31.5 6t-21 11t-16.5 16.5l-183 232q-9 11 -9.5 21t11.5 17.5t39 11.5t73 4q34 0 56 -1.5t37 -6.5t24 -12.5
t16 -19.5zM517 960z" />
    <glyph glyph-name="t_iacute.liga" unicode="t&#xed;" horiz-adv-x="1199" 
d="M986 34q-2 -10 -9.5 -17.5t-23 -12.5t-40 -7.5t-61.5 -2.5q-36 0 -60 2.5t-37.5 7.5t-18 12.5t-1.5 17.5l144 722h-401l-84 -419q-3 -15 -5.5 -35.5t-2.5 -33.5q0 -40 19 -58.5t60 -18.5q24 0 41 3.5t29.5 8l21.5 8t17 3.5t13.5 -7.5t5.5 -24.5q0 -19 -4 -43t-10.5 -46.5
t-14.5 -41t-17 -27.5t-27 -17t-42.5 -14t-52.5 -9.5t-56 -3.5q-60 0 -105.5 12.5t-76.5 39.5t-46.5 69t-15.5 102q0 11 1 25.5t3.5 30.5l5 32.5t5.5 29.5l87 435h-108q-13 0 -19 8.5t-6 32.5q0 17 3.5 44.5t11.5 54t21 45.5t31 19h107l40 199q2 10 9.5 18t23 13.5t40 8
t61.5 2.5q36 0 60 -2.5t37.5 -8t17.5 -13.5t2 -18l-40 -199h577q42 0 55 -18t6 -52zM1161 1118q-8 -10 -16 -16.5t-21 -10.5t-32 -6t-48 -2q-35 0 -55 3t-28 9.5t-5.5 16.5t11.5 23l152 229q8 11 18 19t25.5 12.5t38.5 6.5t56 2q46 0 72 -4.5t37.5 -12t9.5 -17t-11 -20.5z
M702 960z" />
    <glyph glyph-name="t_icircumflex.liga" unicode="t&#xee;" horiz-adv-x="1199" 
d="M986 34q-2 -10 -9.5 -17.5t-23 -12.5t-40 -7.5t-61.5 -2.5q-36 0 -60 2.5t-37.5 7.5t-18 12.5t-1.5 17.5l144 722h-401l-84 -419q-3 -15 -5.5 -35.5t-2.5 -33.5q0 -40 19 -58.5t60 -18.5q24 0 41 3.5t29.5 8l21.5 8t17 3.5t13.5 -7.5t5.5 -24.5q0 -19 -4 -43t-10.5 -46.5
t-14.5 -41t-17 -27.5t-27 -17t-42.5 -14t-52.5 -9.5t-56 -3.5q-60 0 -105.5 12.5t-76.5 39.5t-46.5 69t-15.5 102q0 11 1 25.5t3.5 30.5l5 32.5t5.5 29.5l87 435h-108q-13 0 -19 8.5t-6 32.5q0 17 3.5 44.5t11.5 54t21 45.5t31 19h107l40 199q2 10 9.5 18t23 13.5t40 8
t61.5 2.5q36 0 60 -2.5t37.5 -8t17.5 -13.5t2 -18l-40 -199h577q42 0 55 -18t6 -52zM1355 1149q10 -19 13 -31.5t-5.5 -20t-29.5 -11t-60 -3.5q-32 0 -50 1.5t-28 5.5t-14.5 10.5t-9.5 17.5l-74 150l-134 -150q-9 -11 -18 -18t-22 -10.5t-33 -5t-49 -1.5q-40 0 -61 3.5
t-26.5 11t1.5 20.5t25 31l202 223q8 10 19 15.5t27 9.5t38.5 5.5t53.5 1.5q32 0 53 -2t35 -6t22 -10t13 -14zM520 960z" />
    <glyph glyph-name="t_idieresis.liga" unicode="t&#xef;" horiz-adv-x="1199" 
d="M986 34q-2 -10 -9.5 -17.5t-23 -12.5t-40 -7.5t-61.5 -2.5q-36 0 -60 2.5t-37.5 7.5t-18 12.5t-1.5 17.5l144 722h-401l-84 -419q-3 -15 -5.5 -35.5t-2.5 -33.5q0 -40 19 -58.5t60 -18.5q24 0 41 3.5t29.5 8l21.5 8t17 3.5t13.5 -7.5t5.5 -24.5q0 -19 -4 -43t-10.5 -46.5
t-14.5 -41t-17 -27.5t-27 -17t-42.5 -14t-52.5 -9.5t-56 -3.5q-60 0 -105.5 12.5t-76.5 39.5t-46.5 69t-15.5 102q0 11 1 25.5t3.5 30.5l5 32.5t5.5 29.5l87 435h-108q-13 0 -19 8.5t-6 32.5q0 17 3.5 44.5t11.5 54t21 45.5t31 19h107l40 199q2 10 9.5 18t23 13.5t40 8
t61.5 2.5q36 0 60 -2.5t37.5 -8t17.5 -13.5t2 -18l-40 -199h577q42 0 55 -18t6 -52zM802 1225q7 37 18.5 61t29.5 38t42 19t57 5t54.5 -5t33 -19t13 -38t-6.5 -61q-7 -37 -18 -61t-28 -38t-41 -19t-56 -5q-34 0 -56 5t-34 19t-14 38t6 61zM1138 1225q7 37 19 61t29.5 38
t42 19t56.5 5q33 0 55 -5t33 -19t12.5 -38t-5.5 -61q-8 -37 -19 -61t-28.5 -38t-41 -19t-56.5 -5t-55 5t-34 19t-14 38t6 61zM548 960z" />
    <glyph glyph-name="t_imacron.liga" unicode="t&#x12b;" horiz-adv-x="1199" 
d="M986 34q-2 -10 -9.5 -17.5t-23 -12.5t-40 -7.5t-61.5 -2.5q-36 0 -60 2.5t-37.5 7.5t-18 12.5t-1.5 17.5l144 722h-401l-84 -419q-3 -15 -5.5 -35.5t-2.5 -33.5q0 -40 19 -58.5t60 -18.5q24 0 41 3.5t29.5 8l21.5 8t17 3.5t13.5 -7.5t5.5 -24.5q0 -19 -4 -43t-10.5 -46.5
t-14.5 -41t-17 -27.5t-27 -17t-42.5 -14t-52.5 -9.5t-56 -3.5q-60 0 -105.5 12.5t-76.5 39.5t-46.5 69t-15.5 102q0 11 1 25.5t3.5 30.5l5 32.5t5.5 29.5l87 435h-108q-13 0 -19 8.5t-6 32.5q0 17 3.5 44.5t11.5 54t21 45.5t31 19h107l40 199q2 10 9.5 18t23 13.5t40 8
t61.5 2.5q36 0 60 -2.5t37.5 -8t17.5 -13.5t2 -18l-40 -199h577q42 0 55 -18t6 -52zM1394 1284q0 -7 -1.5 -20t-4.5 -28.5t-7.5 -32.5t-12 -31t-17 -23t-22.5 -9h-511q-17 0 -25 9t-8 30q0 10 3 33.5t10.5 48.5t21 43.5t35.5 18.5h511q16 0 22 -10.5t6 -28.5zM537 960z" />
    <glyph glyph-name="t_itilde.liga" unicode="t&#x129;" horiz-adv-x="1199" 
d="M986 34q-2 -10 -9.5 -17.5t-23 -12.5t-40 -7.5t-61.5 -2.5q-36 0 -60 2.5t-37.5 7.5t-18 12.5t-1.5 17.5l144 722h-401l-84 -419q-3 -15 -5.5 -35.5t-2.5 -33.5q0 -40 19 -58.5t60 -18.5q24 0 41 3.5t29.5 8l21.5 8t17 3.5t13.5 -7.5t5.5 -24.5q0 -19 -4 -43t-10.5 -46.5
t-14.5 -41t-17 -27.5t-27 -17t-42.5 -14t-52.5 -9.5t-56 -3.5q-60 0 -105.5 12.5t-76.5 39.5t-46.5 69t-15.5 102q0 11 1 25.5t3.5 30.5l5 32.5t5.5 29.5l87 435h-108q-13 0 -19 8.5t-6 32.5q0 17 3.5 44.5t11.5 54t21 45.5t31 19h107l40 199q2 10 9.5 18t23 13.5t40 8
t61.5 2.5q36 0 60 -2.5t37.5 -8t17.5 -13.5t2 -18l-40 -199h577q42 0 55 -18t6 -52zM1446 1347q0 -6 -2 -27.5t-9.5 -50.5t-23 -61.5t-41.5 -59.5t-64.5 -44.5t-93.5 -17.5q-39 0 -68.5 8t-53.5 21t-43.5 27.5l-37 27t-35 21t-37.5 8.5q-33 0 -49.5 -23.5t-21.5 -61.5
q-2 -9 -5.5 -14.5t-12.5 -8.5t-24.5 -4t-39.5 -1q-22 0 -36 1.5t-21.5 5t-10 9t-2.5 13.5q0 6 2 27.5t9.5 50.5t22.5 61t41 59t65 45t94 18q37 0 67 -8t54 -21t43.5 -27.5l37.5 -27.5t35.5 -21t36.5 -8q30 0 48.5 21.5t23.5 63.5q1 17 17.5 22.5t61.5 5.5q46 0 59.5 -6.5
t13.5 -22.5zM473 960z" />
    <glyph glyph-name="t_ibreve.liga" unicode="t&#x12d;" horiz-adv-x="1199" 
d="M986 34q-2 -10 -9.5 -17.5t-23 -12.5t-40 -7.5t-61.5 -2.5q-36 0 -60 2.5t-37.5 7.5t-18 12.5t-1.5 17.5l144 722h-401l-84 -419q-3 -15 -5.5 -35.5t-2.5 -33.5q0 -40 19 -58.5t60 -18.5q24 0 41 3.5t29.5 8l21.5 8t17 3.5t13.5 -7.5t5.5 -24.5q0 -19 -4 -43t-10.5 -46.5
t-14.5 -41t-17 -27.5t-27 -17t-42.5 -14t-52.5 -9.5t-56 -3.5q-60 0 -105.5 12.5t-76.5 39.5t-46.5 69t-15.5 102q0 11 1 25.5t3.5 30.5l5 32.5t5.5 29.5l87 435h-108q-13 0 -19 8.5t-6 32.5q0 17 3.5 44.5t11.5 54t21 45.5t31 19h107l40 199q2 10 9.5 18t23 13.5t40 8
t61.5 2.5q36 0 60 -2.5t37.5 -8t17.5 -13.5t2 -18l-40 -199h577q42 0 55 -18t6 -52zM1406 1373q0 -10 -4.5 -35.5t-17 -57.5t-36 -66.5t-60.5 -63t-91 -46.5t-128 -18q-76 0 -125.5 16t-78.5 44t-40.5 64.5t-11.5 75.5q0 11 1 26t3 29.5t5.5 26t8.5 16.5q9 8 27.5 12t51.5 4
q24 0 39.5 -2t24.5 -6t12 -9.5t3 -12.5q0 -9 -1.5 -20.5t-1.5 -22.5q0 -19 5 -34t16 -26t29.5 -17t46.5 -6t52 7t43.5 21.5t33.5 36t22 52.5q4 10 9.5 17.5t15.5 12t26 7t41 2.5q26 0 41.5 -2t24 -5t11.5 -8.5t3 -11.5zM539 960z" />
    <glyph glyph-name="t_iogonek.liga" unicode="t&#x12f;" horiz-adv-x="1199" 
d="M1092 960q45 0 58.5 -18.5t6.5 -54.5l-171 -853q-4 -18 -13 -33.5t-22 -26.5l-70 -58q-35 -29 -48.5 -47t-13.5 -36q0 -15 10.5 -24t38.5 -9h87q16 0 22 -6t6 -18q0 -8 -2 -22.5t-6 -30.5t-10 -30.5t-12 -20.5q-8 -7 -26 -13.5t-42.5 -12t-51.5 -8.5t-51 -3
q-107 0 -160 36.5t-53 109.5q0 22 5.5 43t18.5 43.5t34 45.5t52 49l51 42l149 752h-401l-84 -419q-3 -15 -5.5 -35.5t-2.5 -33.5q0 -40 19 -58.5t60 -18.5q24 0 41 3.5t29.5 8l21.5 8t17 3.5t13.5 -7.5t5.5 -24.5q0 -19 -4 -43t-10.5 -46.5t-14.5 -41t-17 -27.5t-27 -17
t-42.5 -14t-52.5 -9.5t-56 -3.5q-60 0 -105.5 12.5t-76.5 39.5t-46.5 69t-15.5 102q0 11 1 25.5t3.5 30.5l5 32.5t5.5 29.5l87 435h-108q-13 0 -19 8.5t-6 32.5q0 17 3.5 44.5t11.5 54t21 45.5t31 19h107l40 199q2 10 9.5 18t23 13.5t40 8t61.5 2.5q36 0 60 -2.5t37 -8
t17.5 -13.5t2.5 -18l-40 -199h573zM1244 1226q-8 -37 -19.5 -62.5t-31.5 -41t-49.5 -22t-71.5 -6.5t-68.5 6.5t-40 22t-15 41t5.5 62.5q8 36 19.5 61t31.5 41t49 23t71 7q43 0 69 -7t39.5 -23t15.5 -41t-5 -61z" />
    <glyph glyph-name="t_dotlessi.liga" unicode="t&#x131;" horiz-adv-x="1199" 
d="M986 34q-2 -10 -9.5 -17.5t-23 -12.5t-40 -7.5t-61.5 -2.5q-36 0 -60 2.5t-37.5 7.5t-18 12.5t-1.5 17.5l144 722h-401l-84 -419q-3 -15 -5.5 -35.5t-2.5 -33.5q0 -40 19 -58.5t60 -18.5q24 0 41 3.5t29.5 8l21.5 8t17 3.5t13.5 -7.5t5.5 -24.5q0 -19 -4 -43t-10.5 -46.5
t-14.5 -41t-17 -27.5t-27 -17t-42.5 -14t-52.5 -9.5t-56 -3.5q-60 0 -105.5 12.5t-76.5 39.5t-46.5 69t-15.5 102q0 11 1 25.5t3.5 30.5l5 32.5t5.5 29.5l87 435h-108q-13 0 -19 8.5t-6 32.5q0 17 3.5 44.5t11.5 54t21 45.5t31 19h107l40 199q2 10 9.5 18t23 13.5t40 8
t61.5 2.5q36 0 60 -2.5t37.5 -8t17.5 -13.5t2 -18l-40 -199h577q42 0 55 -18t6 -52z" />
    <glyph glyph-name="t_t.liga" unicode="tt" horiz-adv-x="1344" 
d="M1374 917q0 -10 -2 -25.5t-5.5 -33.5t-9 -36t-13 -32.5t-17 -24t-20.5 -9.5h-196l-83 -419q-4 -15 -6 -35.5t-2 -33.5q0 -40 19 -58.5t60 -18.5q24 0 40.5 3.5t29 8l22 8t17.5 3.5t13 -7.5t5 -24.5q0 -19 -3.5 -43t-10 -46.5t-14.5 -41t-17 -27.5t-27 -17t-42.5 -14
t-52.5 -9.5t-56 -3.5q-61 0 -106.5 12.5t-76.5 39.5t-46.5 69t-15.5 102q0 11 1.5 25.5t3.5 30.5t4.5 32.5t5.5 29.5l88 435h-383l-84 -419q-3 -15 -5.5 -35.5t-2.5 -33.5q0 -40 19 -58.5t60 -18.5q24 0 41 3.5t29.5 8l21.5 8t17 3.5t13.5 -7.5t5.5 -24.5q0 -19 -4 -43
t-10.5 -46.5t-14.5 -41t-17 -27.5t-27 -17t-42.5 -14t-52.5 -9.5t-56 -3.5q-60 0 -105.5 12.5t-76.5 39.5t-46.5 69t-15.5 102q0 11 1 25.5t3.5 30.5l5 32.5t5.5 29.5l87 435h-108q-13 0 -19 8.5t-6 32.5q0 17 3.5 44.5t11.5 54t21 45.5t31 19h107l40 199q2 10 9.5 18
t23 13.5t40 8t61.5 2.5q36 0 60 -2.5t37 -8t17.5 -13.5t2.5 -18l-40 -199h383l49 247q2 10 9.5 18t23 13t40 8t61.5 3q36 0 59.5 -3t37 -8t18 -13t2.5 -18l-49 -247h193q16 0 22 -11t6 -32z" />
    <glyph glyph-name="t_t_f.liga" unicode="ttf" horiz-adv-x="1930" 
d="M2115 1332q0 -6 -1.5 -19.5t-4.5 -30.5t-7 -35t-9.5 -33.5t-12.5 -25t-15 -9.5q-6 0 -15.5 3l-21.5 6.5t-27 6.5t-34 3q-32 0 -55.5 -9t-40.5 -28.5t-29 -50.5t-20 -74l-15 -76h162q15 0 21 -9.5t6 -30.5q0 -10 -1.5 -26t-5.5 -34.5t-10 -36.5t-13 -33t-16.5 -24.5
t-20.5 -9.5h-164l-154 -770q-17 -86 -47 -151.5t-75.5 -110t-107.5 -67t-142 -22.5q-59 0 -99 8t-52 20q-10 7 -10 30q0 12 3 38t9.5 52.5t16.5 47t23 20.5q7 0 15.5 -2t19 -5t24 -5t29.5 -2q32 0 55.5 9t40.5 28.5t29 50.5t20 74l152 757h-404l-83 -419q-4 -15 -6 -35.5
t-2 -33.5q0 -40 19 -58.5t60 -18.5q24 0 40.5 3.5t29 8l22 8t17.5 3.5t13 -7.5t5 -24.5q0 -19 -3.5 -43t-10 -46.5t-14.5 -41t-17 -27.5t-27 -17t-42.5 -14t-52.5 -9.5t-56 -3.5q-61 0 -106.5 12.5t-76.5 39.5t-46.5 69t-15.5 102q0 11 1.5 25.5t3.5 30.5t4.5 32.5t5.5 29.5
l88 435h-383l-84 -419q-3 -15 -5.5 -35.5t-2.5 -33.5q0 -40 19 -58.5t60 -18.5q24 0 41 3.5t29.5 8l21.5 8t17 3.5t13.5 -7.5t5.5 -24.5q0 -19 -4 -43t-10.5 -46.5t-14.5 -41t-17 -27.5t-27 -17t-42.5 -14t-52.5 -9.5t-56 -3.5q-60 0 -105.5 12.5t-76.5 39.5t-46.5 69
t-15.5 102q0 11 1 25.5t3.5 30.5l5 32.5t5.5 29.5l87 435h-108q-13 0 -19 8.5t-6 32.5q0 17 3.5 44.5t11.5 54t21 45.5t31 19h107l40 199q2 10 9.5 18t23 13.5t40 8t61.5 2.5q36 0 60 -2.5t37 -8t17.5 -13.5t2.5 -18l-40 -199h383l49 247q2 10 9.5 18t23 13t40 8t61.5 3
q36 0 59.5 -3t37 -8t18 -13t2.5 -18l-49 -247h403l20 97q16 85 47 149t76.5 107.5t106.5 65t140 21.5q26 0 51.5 -2.5t47 -7t37 -10.5t21.5 -12q6 -5 9 -14t3 -22z" />
    <glyph glyph-name="t_t_i.liga" unicode="tti" horiz-adv-x="1832" 
d="M1620 34q-3 -10 -10 -17.5t-22.5 -12.5t-40.5 -7.5t-61 -2.5q-37 0 -60.5 2.5t-37 7.5t-18 12.5t-1.5 17.5l144 722h-402l-83 -419q-4 -15 -6 -35.5t-2 -33.5q0 -40 19 -58.5t60 -18.5q24 0 40.5 3.5t29 8l22 8t17.5 3.5t13 -7.5t5 -24.5q0 -19 -3.5 -43t-10 -46.5
t-14.5 -41t-17 -27.5t-27 -17t-42.5 -14t-52.5 -9.5t-56 -3.5q-61 0 -106.5 12.5t-76.5 39.5t-46.5 69t-15.5 102q0 11 1.5 25.5t3.5 30.5t4.5 32.5t5.5 29.5l88 435h-383l-84 -419q-3 -15 -5.5 -35.5t-2.5 -33.5q0 -40 19 -58.5t60 -18.5q24 0 41 3.5t29.5 8l21.5 8t17 3.5
t13.5 -7.5t5.5 -24.5q0 -19 -4 -43t-10.5 -46.5t-14.5 -41t-17 -27.5t-27 -17t-42.5 -14t-52.5 -9.5t-56 -3.5q-60 0 -105.5 12.5t-76.5 39.5t-46.5 69t-15.5 102q0 11 1 25.5t3.5 30.5l5 32.5t5.5 29.5l87 435h-108q-13 0 -19 8.5t-6 32.5q0 17 3.5 44.5t11.5 54t21 45.5
t31 19h107l40 199q2 10 9.5 18t23 13.5t40 8t61.5 2.5q36 0 60 -2.5t37 -8t17.5 -13.5t2.5 -18l-40 -199h383l49 247q2 10 9.5 18t23 13t40 8t61.5 3q36 0 59.5 -3t37 -8t18 -13t2.5 -18l-49 -247h576q42 0 55 -18t6 -52zM1876 1226q-7 -37 -18.5 -62.5t-31 -41t-49 -22
t-71.5 -6.5t-68.5 6.5t-40 22t-15.5 41t5 62.5q7 36 19 61t31.5 41t49 23t71.5 7q43 0 69 -7t40 -23t15.5 -41t-6.5 -61z" />
    <glyph glyph-name="t_t_igrave.liga" unicode="tt&#xec;" horiz-adv-x="1832" 
d="M1620 34q-3 -10 -10 -17.5t-22.5 -12.5t-40.5 -7.5t-61 -2.5q-37 0 -60.5 2.5t-37 7.5t-18 12.5t-1.5 17.5l144 722h-402l-83 -419q-4 -15 -6 -35.5t-2 -33.5q0 -40 19 -58.5t60 -18.5q24 0 40.5 3.5t29 8l22 8t17.5 3.5t13 -7.5t5 -24.5q0 -19 -3.5 -43t-10 -46.5
t-14.5 -41t-17 -27.5t-27 -17t-42.5 -14t-52.5 -9.5t-56 -3.5q-61 0 -106.5 12.5t-76.5 39.5t-46.5 69t-15.5 102q0 11 1.5 25.5t3.5 30.5t4.5 32.5t5.5 29.5l88 435h-383l-84 -419q-3 -15 -5.5 -35.5t-2.5 -33.5q0 -40 19 -58.5t60 -18.5q24 0 41 3.5t29.5 8l21.5 8t17 3.5
t13.5 -7.5t5.5 -24.5q0 -19 -4 -43t-10.5 -46.5t-14.5 -41t-17 -27.5t-27 -17t-42.5 -14t-52.5 -9.5t-56 -3.5q-60 0 -105.5 12.5t-76.5 39.5t-46.5 69t-15.5 102q0 11 1 25.5t3.5 30.5l5 32.5t5.5 29.5l87 435h-108q-13 0 -19 8.5t-6 32.5q0 17 3.5 44.5t11.5 54t21 45.5
t31 19h107l40 199q2 10 9.5 18t23 13.5t40 8t61.5 2.5q36 0 60 -2.5t37 -8t17.5 -13.5t2.5 -18l-40 -199h383l49 247q2 10 9.5 18t23 13t40 8t61.5 3q36 0 59.5 -3t37 -8t18 -13t2.5 -18l-49 -247h576q42 0 55 -18t6 -52zM1808 1135q8 -13 9.5 -23t-7 -16.5t-28.5 -9.5
t-55 -3q-29 0 -48 1.5t-31.5 6t-21 11t-16.5 16.5l-183 232q-9 11 -9.5 21t11.5 17.5t39 11.5t73 4q34 0 56 -1.5t37 -6.5t24 -12.5t16 -19.5zM1154 960z" />
    <glyph glyph-name="t_t_iacute.liga" unicode="tt&#xed;" horiz-adv-x="1832" 
d="M1620 34q-3 -10 -10 -17.5t-22.5 -12.5t-40.5 -7.5t-61 -2.5q-37 0 -60.5 2.5t-37 7.5t-18 12.5t-1.5 17.5l144 722h-402l-83 -419q-4 -15 -6 -35.5t-2 -33.5q0 -40 19 -58.5t60 -18.5q24 0 40.5 3.5t29 8l22 8t17.5 3.5t13 -7.5t5 -24.5q0 -19 -3.5 -43t-10 -46.5
t-14.5 -41t-17 -27.5t-27 -17t-42.5 -14t-52.5 -9.5t-56 -3.5q-61 0 -106.5 12.5t-76.5 39.5t-46.5 69t-15.5 102q0 11 1.5 25.5t3.5 30.5t4.5 32.5t5.5 29.5l88 435h-383l-84 -419q-3 -15 -5.5 -35.5t-2.5 -33.5q0 -40 19 -58.5t60 -18.5q24 0 41 3.5t29.5 8l21.5 8t17 3.5
t13.5 -7.5t5.5 -24.5q0 -19 -4 -43t-10.5 -46.5t-14.5 -41t-17 -27.5t-27 -17t-42.5 -14t-52.5 -9.5t-56 -3.5q-60 0 -105.5 12.5t-76.5 39.5t-46.5 69t-15.5 102q0 11 1 25.5t3.5 30.5l5 32.5t5.5 29.5l87 435h-108q-13 0 -19 8.5t-6 32.5q0 17 3.5 44.5t11.5 54t21 45.5
t31 19h107l40 199q2 10 9.5 18t23 13.5t40 8t61.5 2.5q36 0 60 -2.5t37 -8t17.5 -13.5t2.5 -18l-40 -199h383l49 247q2 10 9.5 18t23 13t40 8t61.5 3q36 0 59.5 -3t37 -8t18 -13t2.5 -18l-49 -247h576q42 0 55 -18t6 -52zM1798 1118q-8 -10 -16 -16.5t-21 -10.5t-32 -6
t-48 -2q-35 0 -55 3t-28 9.5t-5.5 16.5t11.5 23l152 229q8 11 18 19t25.5 12.5t38.5 6.5t56 2q46 0 72 -4.5t37.5 -12t9.5 -17t-11 -20.5zM1339 960z" />
    <glyph glyph-name="t_t_icircumflex.liga" unicode="tt&#xee;" horiz-adv-x="1832" 
d="M1620 34q-3 -10 -10 -17.5t-22.5 -12.5t-40.5 -7.5t-61 -2.5q-37 0 -60.5 2.5t-37 7.5t-18 12.5t-1.5 17.5l144 722h-402l-83 -419q-4 -15 -6 -35.5t-2 -33.5q0 -40 19 -58.5t60 -18.5q24 0 40.5 3.5t29 8l22 8t17.5 3.5t13 -7.5t5 -24.5q0 -19 -3.5 -43t-10 -46.5
t-14.5 -41t-17 -27.5t-27 -17t-42.5 -14t-52.5 -9.5t-56 -3.5q-61 0 -106.5 12.5t-76.5 39.5t-46.5 69t-15.5 102q0 11 1.5 25.5t3.5 30.5t4.5 32.5t5.5 29.5l88 435h-383l-84 -419q-3 -15 -5.5 -35.5t-2.5 -33.5q0 -40 19 -58.5t60 -18.5q24 0 41 3.5t29.5 8l21.5 8t17 3.5
t13.5 -7.5t5.5 -24.5q0 -19 -4 -43t-10.5 -46.5t-14.5 -41t-17 -27.5t-27 -17t-42.5 -14t-52.5 -9.5t-56 -3.5q-60 0 -105.5 12.5t-76.5 39.5t-46.5 69t-15.5 102q0 11 1 25.5t3.5 30.5l5 32.5t5.5 29.5l87 435h-108q-13 0 -19 8.5t-6 32.5q0 17 3.5 44.5t11.5 54t21 45.5
t31 19h107l40 199q2 10 9.5 18t23 13.5t40 8t61.5 2.5q36 0 60 -2.5t37 -8t17.5 -13.5t2.5 -18l-40 -199h383l49 247q2 10 9.5 18t23 13t40 8t61.5 3q36 0 59.5 -3t37 -8t18 -13t2.5 -18l-49 -247h576q42 0 55 -18t6 -52zM1989 1149q10 -19 13 -31.5t-5.5 -20t-29.5 -11
t-60 -3.5q-32 0 -50 1.5t-28 5.5t-14.5 10.5t-9.5 17.5l-74 150l-134 -150q-9 -11 -18 -18t-22 -10.5t-33 -5t-49 -1.5q-40 0 -61 3.5t-26.5 11t1.5 20.5t25 31l202 223q8 10 19 15.5t27 9.5t38.5 5.5t53.5 1.5q32 0 53 -2t35 -6t22 -10t13 -14zM1154 960z" />
    <glyph glyph-name="t_t_idieresis.liga" unicode="tt&#xef;" horiz-adv-x="1832" 
d="M1620 34q-3 -10 -10 -17.5t-22.5 -12.5t-40.5 -7.5t-61 -2.5q-37 0 -60.5 2.5t-37 7.5t-18 12.5t-1.5 17.5l144 722h-402l-83 -419q-4 -15 -6 -35.5t-2 -33.5q0 -40 19 -58.5t60 -18.5q24 0 40.5 3.5t29 8l22 8t17.5 3.5t13 -7.5t5 -24.5q0 -19 -3.5 -43t-10 -46.5
t-14.5 -41t-17 -27.5t-27 -17t-42.5 -14t-52.5 -9.5t-56 -3.5q-61 0 -106.5 12.5t-76.5 39.5t-46.5 69t-15.5 102q0 11 1.5 25.5t3.5 30.5t4.5 32.5t5.5 29.5l88 435h-383l-84 -419q-3 -15 -5.5 -35.5t-2.5 -33.5q0 -40 19 -58.5t60 -18.5q24 0 41 3.5t29.5 8l21.5 8t17 3.5
t13.5 -7.5t5.5 -24.5q0 -19 -4 -43t-10.5 -46.5t-14.5 -41t-17 -27.5t-27 -17t-42.5 -14t-52.5 -9.5t-56 -3.5q-60 0 -105.5 12.5t-76.5 39.5t-46.5 69t-15.5 102q0 11 1 25.5t3.5 30.5l5 32.5t5.5 29.5l87 435h-108q-13 0 -19 8.5t-6 32.5q0 17 3.5 44.5t11.5 54t21 45.5
t31 19h107l40 199q2 10 9.5 18t23 13.5t40 8t61.5 2.5q36 0 60 -2.5t37 -8t17.5 -13.5t2.5 -18l-40 -199h383l49 247q2 10 9.5 18t23 13t40 8t61.5 3q36 0 59.5 -3t37 -8t18 -13t2.5 -18l-49 -247h576q42 0 55 -18t6 -52zM1436 1225q7 37 18.5 61t29.5 38t42 19t57 5
t54.5 -5t33 -19t13 -38t-6.5 -61q-7 -37 -18 -61t-28 -38t-41 -19t-56 -5q-34 0 -56 5t-34 19t-14 38t6 61zM1772 1225q7 37 19 61t29.5 38t42 19t56.5 5q33 0 55 -5t33 -19t12.5 -38t-5.5 -61q-8 -37 -19 -61t-28.5 -38t-41 -19t-56.5 -5t-55 5t-34 19t-14 38t6 61z
M1182 960z" />
    <glyph glyph-name="t_t_imacron.liga" unicode="tt&#x12b;" horiz-adv-x="1832" 
d="M1620 34q-3 -10 -10 -17.5t-22.5 -12.5t-40.5 -7.5t-61 -2.5q-37 0 -60.5 2.5t-37 7.5t-18 12.5t-1.5 17.5l144 722h-402l-83 -419q-4 -15 -6 -35.5t-2 -33.5q0 -40 19 -58.5t60 -18.5q24 0 40.5 3.5t29 8l22 8t17.5 3.5t13 -7.5t5 -24.5q0 -19 -3.5 -43t-10 -46.5
t-14.5 -41t-17 -27.5t-27 -17t-42.5 -14t-52.5 -9.5t-56 -3.5q-61 0 -106.5 12.5t-76.5 39.5t-46.5 69t-15.5 102q0 11 1.5 25.5t3.5 30.5t4.5 32.5t5.5 29.5l88 435h-383l-84 -419q-3 -15 -5.5 -35.5t-2.5 -33.5q0 -40 19 -58.5t60 -18.5q24 0 41 3.5t29.5 8l21.5 8t17 3.5
t13.5 -7.5t5.5 -24.5q0 -19 -4 -43t-10.5 -46.5t-14.5 -41t-17 -27.5t-27 -17t-42.5 -14t-52.5 -9.5t-56 -3.5q-60 0 -105.5 12.5t-76.5 39.5t-46.5 69t-15.5 102q0 11 1 25.5t3.5 30.5l5 32.5t5.5 29.5l87 435h-108q-13 0 -19 8.5t-6 32.5q0 17 3.5 44.5t11.5 54t21 45.5
t31 19h107l40 199q2 10 9.5 18t23 13.5t40 8t61.5 2.5q36 0 60 -2.5t37 -8t17.5 -13.5t2.5 -18l-40 -199h383l49 247q2 10 9.5 18t23 13t40 8t61.5 3q36 0 59.5 -3t37 -8t18 -13t2.5 -18l-49 -247h576q42 0 55 -18t6 -52zM2028 1284q0 -7 -1.5 -20t-4.5 -28.5t-7.5 -32.5
t-12 -31t-17 -23t-22.5 -9h-511q-17 0 -25 9t-8 30q0 10 3 33.5t10.5 48.5t21 43.5t35.5 18.5h511q16 0 22 -10.5t6 -28.5zM1171 960z" />
    <glyph glyph-name="t_t_itilde.liga" unicode="tt&#x129;" horiz-adv-x="1832" 
d="M1620 34q-3 -10 -10 -17.5t-22.5 -12.5t-40.5 -7.5t-61 -2.5q-37 0 -60.5 2.5t-37 7.5t-18 12.5t-1.5 17.5l144 722h-402l-83 -419q-4 -15 -6 -35.5t-2 -33.5q0 -40 19 -58.5t60 -18.5q24 0 40.5 3.5t29 8l22 8t17.5 3.5t13 -7.5t5 -24.5q0 -19 -3.5 -43t-10 -46.5
t-14.5 -41t-17 -27.5t-27 -17t-42.5 -14t-52.5 -9.5t-56 -3.5q-61 0 -106.5 12.5t-76.5 39.5t-46.5 69t-15.5 102q0 11 1.5 25.5t3.5 30.5t4.5 32.5t5.5 29.5l88 435h-383l-84 -419q-3 -15 -5.5 -35.5t-2.5 -33.5q0 -40 19 -58.5t60 -18.5q24 0 41 3.5t29.5 8l21.5 8t17 3.5
t13.5 -7.5t5.5 -24.5q0 -19 -4 -43t-10.5 -46.5t-14.5 -41t-17 -27.5t-27 -17t-42.5 -14t-52.5 -9.5t-56 -3.5q-60 0 -105.5 12.5t-76.5 39.5t-46.5 69t-15.5 102q0 11 1 25.5t3.5 30.5l5 32.5t5.5 29.5l87 435h-108q-13 0 -19 8.5t-6 32.5q0 17 3.5 44.5t11.5 54t21 45.5
t31 19h107l40 199q2 10 9.5 18t23 13.5t40 8t61.5 2.5q36 0 60 -2.5t37 -8t17.5 -13.5t2.5 -18l-40 -199h383l49 247q2 10 9.5 18t23 13t40 8t61.5 3q36 0 59.5 -3t37 -8t18 -13t2.5 -18l-49 -247h576q42 0 55 -18t6 -52zM2082 1347q0 -6 -2 -27.5t-9.5 -50.5t-23 -61.5
t-41.5 -59.5t-64.5 -44.5t-93.5 -17.5q-39 0 -68.5 8t-53.5 21t-43.5 27.5l-37 27t-35 21t-37.5 8.5q-33 0 -49.5 -23.5t-21.5 -61.5q-2 -9 -5.5 -14.5t-12.5 -8.5t-24.5 -4t-39.5 -1q-22 0 -36 1.5t-21.5 5t-10 9t-2.5 13.5q0 6 2 27.5t9.5 50.5t22.5 61t41 59t65 45t94 18
q37 0 67 -8t54 -21t43.5 -27.5l37.5 -27.5t35.5 -21t36.5 -8q30 0 48.5 21.5t23.5 63.5q1 17 17.5 22.5t61.5 5.5q46 0 59.5 -6.5t13.5 -22.5zM1109 960z" />
    <glyph glyph-name="t_t_ibreve.liga" unicode="tt&#x12d;" horiz-adv-x="1832" 
d="M1620 34q-3 -10 -10 -17.5t-22.5 -12.5t-40.5 -7.5t-61 -2.5q-37 0 -60.5 2.5t-37 7.5t-18 12.5t-1.5 17.5l144 722h-402l-83 -419q-4 -15 -6 -35.5t-2 -33.5q0 -40 19 -58.5t60 -18.5q24 0 40.5 3.5t29 8l22 8t17.5 3.5t13 -7.5t5 -24.5q0 -19 -3.5 -43t-10 -46.5
t-14.5 -41t-17 -27.5t-27 -17t-42.5 -14t-52.5 -9.5t-56 -3.5q-61 0 -106.5 12.5t-76.5 39.5t-46.5 69t-15.5 102q0 11 1.5 25.5t3.5 30.5t4.5 32.5t5.5 29.5l88 435h-383l-84 -419q-3 -15 -5.5 -35.5t-2.5 -33.5q0 -40 19 -58.5t60 -18.5q24 0 41 3.5t29.5 8l21.5 8t17 3.5
t13.5 -7.5t5.5 -24.5q0 -19 -4 -43t-10.5 -46.5t-14.5 -41t-17 -27.5t-27 -17t-42.5 -14t-52.5 -9.5t-56 -3.5q-60 0 -105.5 12.5t-76.5 39.5t-46.5 69t-15.5 102q0 11 1 25.5t3.5 30.5l5 32.5t5.5 29.5l87 435h-108q-13 0 -19 8.5t-6 32.5q0 17 3.5 44.5t11.5 54t21 45.5
t31 19h107l40 199q2 10 9.5 18t23 13.5t40 8t61.5 2.5q36 0 60 -2.5t37 -8t17.5 -13.5t2.5 -18l-40 -199h383l49 247q2 10 9.5 18t23 13t40 8t61.5 3q36 0 59.5 -3t37 -8t18 -13t2.5 -18l-49 -247h576q42 0 55 -18t6 -52zM2040 1373q0 -10 -4.5 -35.5t-17 -57.5t-36 -66.5
t-60.5 -63t-91 -46.5t-128 -18q-76 0 -125.5 16t-78.5 44t-40.5 64.5t-11.5 75.5q0 11 1 26t3 29.5t5.5 26t8.5 16.5q9 8 27.5 12t51.5 4q24 0 39.5 -2t24.5 -6t12 -9.5t3 -12.5q0 -9 -1.5 -20.5t-1.5 -22.5q0 -19 5 -34t16 -26t29.5 -17t46.5 -6t52 7t43.5 21.5t33.5 36
t22 52.5q4 10 9.5 17.5t15.5 12t26 7t41 2.5q26 0 41.5 -2t24 -5t11.5 -8.5t3 -11.5zM1173 960z" />
    <glyph glyph-name="t_t_iogonek.liga" unicode="tt&#x12f;" horiz-adv-x="1832" 
d="M1620 34q-4 -18 -13 -33.5t-23 -26.5l-69 -58q-35 -29 -48.5 -47t-13.5 -36q0 -15 10.5 -24t38.5 -9h87q16 0 22 -6t6 -18q0 -8 -2.5 -22.5t-6 -30.5t-9.5 -30.5t-12 -20.5q-7 -7 -26 -13.5t-43.5 -12t-51.5 -8.5t-51 -3q-106 0 -159.5 36.5t-53.5 109.5q0 22 5.5 43
t18.5 43.5t34 45.5t52 49l51 42l150 752h-402l-83 -419q-4 -15 -6 -35.5t-2 -33.5q0 -40 19 -58.5t60 -18.5q24 0 40.5 3.5t29 8l22 8t17.5 3.5t13 -7.5t5 -24.5q0 -19 -3.5 -43t-10 -46.5t-14.5 -41t-17 -27.5t-27 -17t-42.5 -14t-52.5 -9.5t-56 -3.5q-61 0 -106.5 12.5
t-76.5 39.5t-46.5 69t-15.5 102q0 11 1.5 25.5t3.5 30.5t4.5 32.5t5.5 29.5l88 435h-383l-84 -419q-3 -15 -5.5 -35.5t-2.5 -33.5q0 -40 19 -58.5t60 -18.5q24 0 41 3.5t29.5 8l21.5 8t17 3.5t13.5 -7.5t5.5 -24.5q0 -19 -4 -43t-10.5 -46.5t-14.5 -41t-17 -27.5t-27 -17
t-42.5 -14t-52.5 -9.5t-56 -3.5q-60 0 -105.5 12.5t-76.5 39.5t-46.5 69t-15.5 102q0 11 1 25.5t3.5 30.5l5 32.5t5.5 29.5l87 435h-108q-13 0 -19 8.5t-6 32.5q0 17 3.5 44.5t11.5 54t21 45.5t31 19h107l40 199q2 10 9.5 18t23 13.5t40 8t61.5 2.5q36 0 60 -2.5t37 -8
t17.5 -13.5t2.5 -18l-40 -199h383l49 247q2 10 9.5 18t23 13t40 8t61.5 3q36 0 59.5 -3t37 -8t18 -13t2.5 -18l-49 -247h576q42 0 55 -18t6 -52zM1877 1226q-7 -37 -19 -62.5t-31.5 -41t-49 -22t-71.5 -6.5t-68.5 6.5t-40 22t-15.5 41t6 62.5q7 36 19 61t31.5 41t49 23
t71.5 7q43 0 69 -7t39.5 -23t15.5 -41t-6 -61z" />
    <glyph glyph-name="t_t_dotlessi.liga" unicode="tt&#x131;" horiz-adv-x="1832" 
d="M1620 34q-3 -10 -10 -17.5t-22.5 -12.5t-40.5 -7.5t-61 -2.5q-37 0 -60.5 2.5t-37 7.5t-18 12.5t-1.5 17.5l144 722h-402l-83 -419q-4 -15 -6 -35.5t-2 -33.5q0 -40 19 -58.5t60 -18.5q24 0 40.5 3.5t29 8l22 8t17.5 3.5t13 -7.5t5 -24.5q0 -19 -3.5 -43t-10 -46.5
t-14.5 -41t-17 -27.5t-27 -17t-42.5 -14t-52.5 -9.5t-56 -3.5q-61 0 -106.5 12.5t-76.5 39.5t-46.5 69t-15.5 102q0 11 1.5 25.5t3.5 30.5t4.5 32.5t5.5 29.5l88 435h-383l-84 -419q-3 -15 -5.5 -35.5t-2.5 -33.5q0 -40 19 -58.5t60 -18.5q24 0 41 3.5t29.5 8l21.5 8t17 3.5
t13.5 -7.5t5.5 -24.5q0 -19 -4 -43t-10.5 -46.5t-14.5 -41t-17 -27.5t-27 -17t-42.5 -14t-52.5 -9.5t-56 -3.5q-60 0 -105.5 12.5t-76.5 39.5t-46.5 69t-15.5 102q0 11 1 25.5t3.5 30.5l5 32.5t5.5 29.5l87 435h-108q-13 0 -19 8.5t-6 32.5q0 17 3.5 44.5t11.5 54t21 45.5
t31 19h107l40 199q2 10 9.5 18t23 13.5t40 8t61.5 2.5q36 0 60 -2.5t37 -8t17.5 -13.5t2.5 -18l-40 -199h383l49 247q2 10 9.5 18t23 13t40 8t61.5 3q36 0 59.5 -3t37 -8t18 -13t2.5 -18l-49 -247h576q42 0 55 -18t6 -52z" />
    <glyph glyph-name=".notdef" horiz-adv-x="1038" 
d="M992 1294v-1294h-945v1294h945zM885 101v1092h-732v-1092h732zM783 886q0 -54 -16 -104.5t-50 -89.5t-86 -64.5t-124 -31.5l-30 -121q-3 -13 -25.5 -18.5t-59.5 -5.5q-22 0 -37.5 1t-24.5 3.5t-12.5 7t-2.5 12.5l25 167q5 33 22.5 46.5t43.5 13.5h11q47 0 80 15t53 39
t29 53.5t9 59.5q0 20 -6.5 38.5t-21 33t-38 23t-58.5 8.5q-38 0 -67 -6.5t-49.5 -14t-33.5 -14t-19 -6.5q-8 0 -11.5 7t-3.5 21q0 7 2 21t5 29.5t8 29.5t12 21q8 7 27.5 16t47 16.5t60.5 12.5t67 5q69 0 120.5 -17.5t85.5 -48t51 -71t17 -87.5zM474 323q0 -9 -2 -23t-6 -30
t-11 -30.5t-16 -24.5q-14 -13 -35.5 -20t-53.5 -7q-28 0 -45.5 4.5t-27 12.5t-12.5 18.5t-3 22.5q0 11 2 25.5t6.5 30t12 30.5t18.5 25q13 14 33.5 20t53.5 6q26 0 43 -4t26.5 -11.5t13 -18.5t3.5 -26zM0 -397z" />
    <glyph glyph-name="glyph1" horiz-adv-x="0" 
 />
    <glyph glyph-name="glyph1" horiz-adv-x="0" 
 />
    <glyph glyph-name="glyph2" horiz-adv-x="0" 
 />
    <glyph glyph-name="uni0009" unicode="&#x9;" horiz-adv-x="463" 
 />
    <glyph glyph-name="uni0009" unicode="&#xa0;" horiz-adv-x="463" 
 />
    <glyph glyph-name="uni0009" unicode=" " horiz-adv-x="463" 
 />
    <glyph glyph-name="uni0009" unicode="&#xd;" horiz-adv-x="463" 
 />
    <glyph glyph-name="A" unicode="A" horiz-adv-x="1241" 
d="M1126 98q5 -36 4.5 -57t-14 -31.5t-44.5 -13t-85 -2.5q-38 0 -62 1.5t-37 5.5t-18 12t-6 22l-35 260h-486l-134 -254q-7 -14 -16 -23.5t-26 -14.5t-45.5 -7t-71.5 -2q-46 0 -71.5 3t-34 14.5t-2 32.5t25.5 56l628 1148q10 17 20 27.5t28.5 16t50 7t82.5 1.5
q59 0 93.5 -1.5t53.5 -7t25 -16.5t8 -30zM733 1047h-1l-289 -550h364z" />
    <glyph glyph-name="Agrave" unicode="&#xc0;" horiz-adv-x="1241" 
d="M1126 98q5 -36 4.5 -57t-14 -31.5t-44.5 -13t-85 -2.5q-38 0 -62 1.5t-37 5.5t-18 12t-6 22l-35 260h-486l-134 -254q-7 -14 -16 -23.5t-26 -14.5t-45.5 -7t-71.5 -2q-46 0 -71.5 3t-34 14.5t-2 32.5t25.5 56l628 1148q10 17 20 27.5t28.5 16t50 7t82.5 1.5
q59 0 93.5 -1.5t53.5 -7t25 -16.5t8 -30zM733 1047h-1l-289 -550h364zM891 1439q11 -14 13.5 -24t-7 -16.5t-30 -9.5t-53.5 -3q-31 0 -52 2t-35.5 6.5t-25 11t-20.5 15.5l-214 200q-14 13 -18 25t6 21.5t36 15.5t71 6q37 0 61.5 -1.5t42.5 -6.5t30 -14t24 -24zM126 1294z
" />
    <glyph glyph-name="Aacute" unicode="&#xc1;" horiz-adv-x="1241" 
d="M1126 98q5 -36 4.5 -57t-14 -31.5t-44.5 -13t-85 -2.5q-38 0 -62 1.5t-37 5.5t-18 12t-6 22l-35 260h-486l-134 -254q-7 -14 -16 -23.5t-26 -14.5t-45.5 -7t-71.5 -2q-46 0 -71.5 3t-34 14.5t-2 32.5t25.5 56l628 1148q10 17 20 27.5t28.5 16t50 7t82.5 1.5
q59 0 93.5 -1.5t53.5 -7t25 -16.5t8 -30zM733 1047h-1l-289 -550h364zM919 1421q-11 -9 -21.5 -15.5t-25 -10.5t-36 -6.5t-52.5 -2.5q-68 0 -83.5 13t10.5 40l189 204q13 14 26 23t31 14t43 7t61 2q47 0 72 -6t34 -15.5t3.5 -21.5t-20.5 -25zM383 1294z" />
    <glyph glyph-name="Acircumflex" unicode="&#xc2;" horiz-adv-x="1241" 
d="M1126 98q5 -36 4.5 -57t-14 -31.5t-44.5 -13t-85 -2.5q-38 0 -62 1.5t-37 5.5t-18 12t-6 22l-35 260h-486l-134 -254q-7 -14 -16 -23.5t-26 -14.5t-45.5 -7t-71.5 -2q-46 0 -71.5 3t-34 14.5t-2 32.5t25.5 56l628 1148q10 17 20 27.5t28.5 16t50 7t82.5 1.5
q59 0 93.5 -1.5t53.5 -7t25 -16.5t8 -30zM733 1047h-1l-289 -550h364zM1165 1434q9 -14 10 -23.5t-9 -15t-31 -7.5t-55 -2q-42 0 -66.5 1.5t-39 5t-21 9.5t-12.5 15l-90 137l-149 -134q-11 -11 -21.5 -17.5t-27.5 -10t-43.5 -5t-67.5 -1.5q-34 0 -54 2.5t-27.5 8t-3 14.5
t19.5 23l238 214q13 13 27.5 21t32.5 12.5t42 6t58 1.5q32 0 53.5 -1t36 -5t25 -12.5t20.5 -22.5zM166 1294z" />
    <glyph glyph-name="Atilde" unicode="&#xc3;" horiz-adv-x="1241" 
d="M1126 98q5 -36 4.5 -57t-14 -31.5t-44.5 -13t-85 -2.5q-38 0 -62 1.5t-37 5.5t-18 12t-6 22l-35 260h-486l-134 -254q-7 -14 -16 -23.5t-26 -14.5t-45.5 -7t-71.5 -2q-46 0 -71.5 3t-34 14.5t-2 32.5t25.5 56l628 1148q10 17 20 27.5t28.5 16t50 7t82.5 1.5
q59 0 93.5 -1.5t53.5 -7t25 -16.5t8 -30zM733 1047h-1l-289 -550h364zM1048 1636q1 8 5.5 13t14 8t25 4t37.5 1q44 0 58 -6.5t14 -19.5q0 -5 -2 -25t-9.5 -47.5t-22 -58t-41 -56.5t-66 -43t-97.5 -17q-53 0 -91.5 15.5t-69.5 34l-57.5 34t-56.5 15.5q-34 0 -51 -19t-20 -54
q-2 -8 -6.5 -13t-14 -7.5t-24.5 -4t-37 -1.5q-44 0 -59 6t-15 22q0 9 2.5 31t11.5 49t25 56t42.5 53.5t65 40t93.5 15.5q53 0 91.5 -15.5t69 -34.5l57.5 -34.5t56 -15.5q30 0 48.5 16.5t23.5 57.5zM163 1294z" />
    <glyph glyph-name="Adieresis" unicode="&#xc4;" horiz-adv-x="1241" 
d="M1126 98q5 -36 4.5 -57t-14 -31.5t-44.5 -13t-85 -2.5q-38 0 -62 1.5t-37 5.5t-18 12t-6 22l-35 260h-486l-134 -254q-7 -14 -16 -23.5t-26 -14.5t-45.5 -7t-71.5 -2q-46 0 -71.5 3t-34 14.5t-2 32.5t25.5 56l628 1148q10 17 20 27.5t28.5 16t50 7t82.5 1.5
q59 0 93.5 -1.5t53.5 -7t25 -16.5t8 -30zM733 1047h-1l-289 -550h364zM1186 1528q-6 -35 -17.5 -58t-30 -37t-44.5 -19.5t-62 -5.5q-38 0 -61.5 5.5t-36.5 19.5t-15 37t4 58q7 37 17.5 62t28.5 39.5t44 20.5t64 6q36 0 60 -6t37 -20.5t15.5 -39.5t-3.5 -62zM749 1528
q-6 -35 -17 -58t-29.5 -37t-45 -19.5t-61.5 -5.5q-38 0 -62 5.5t-37 19.5t-15 37t5 58q6 37 17 62t28.5 39.5t44 20.5t64.5 6q36 0 59.5 -6t37 -20.5t16 -39.5t-4.5 -62zM171 1294z" />
    <glyph glyph-name="Amacron" unicode="&#x100;" horiz-adv-x="1241" 
d="M1126 98q5 -36 4.5 -57t-14 -31.5t-44.5 -13t-85 -2.5q-38 0 -62 1.5t-37 5.5t-18 12t-6 22l-35 260h-486l-134 -254q-7 -14 -16 -23.5t-26 -14.5t-45.5 -7t-71.5 -2q-46 0 -71.5 3t-34 14.5t-2 32.5t25.5 56l628 1148q10 17 20 27.5t28.5 16t50 7t82.5 1.5
q59 0 93.5 -1.5t53.5 -7t25 -16.5t8 -30zM733 1047h-1l-289 -550h364zM1185 1578q0 -8 -1.5 -22t-5 -30t-8.5 -33t-12.5 -31t-17 -22.5t-21.5 -8.5h-590q-18 0 -25 9t-7 30q0 6 1.5 20t4 30t8 33t13.5 31t18.5 23t24.5 9h590q15 0 21.5 -10t6.5 -28zM190 1294z" />
    <glyph glyph-name="Abreve" unicode="&#x102;" horiz-adv-x="1241" 
d="M1126 98q5 -36 4.5 -57t-14 -31.5t-44.5 -13t-85 -2.5q-38 0 -62 1.5t-37 5.5t-18 12t-6 22l-35 260h-486l-134 -254q-7 -14 -16 -23.5t-26 -14.5t-45.5 -7t-71.5 -2q-46 0 -71.5 3t-34 14.5t-2 32.5t25.5 56l628 1148q10 17 20 27.5t28.5 16t50 7t82.5 1.5
q59 0 93.5 -1.5t53.5 -7t25 -16.5t8 -30zM733 1047h-1l-289 -550h364zM1159 1670q0 -11 -5 -36t-19 -56.5t-38 -65.5t-62.5 -62t-92.5 -46t-128 -18q-77 0 -127.5 16t-81.5 43.5t-43.5 63.5t-12.5 75q0 11 1 26t3 29t6 25.5t9 15.5q8 9 27 13t52 4q25 0 41 -2t25 -6
t12.5 -10t3.5 -13q0 -8 -1.5 -18.5t-1.5 -21.5q0 -19 5.5 -34t17.5 -25t31.5 -15.5t47.5 -5.5t52.5 6.5t44.5 20t35 34.5t24 52q3 10 9 17t16.5 12t27.5 7t42 2t41 -2t24.5 -5t11.5 -8.5t3 -11.5zM216 1294z" />
    <glyph glyph-name="Aring" unicode="&#xc5;" horiz-adv-x="1241" 
d="M1126 98q5 -36 4.5 -57t-14 -31.5t-44.5 -13t-85 -2.5q-38 0 -62 1.5t-37 5.5t-18 12t-6 22l-35 260h-486l-134 -254q-7 -14 -16 -23.5t-26 -14.5t-45.5 -7t-71.5 -2q-46 0 -71.5 3t-34 14.5t-2 32.5t25.5 56l628 1148q10 17 20 27.5t28.5 16t50 7t82.5 1.5
q59 0 93.5 -1.5t53.5 -7t25 -16.5t8 -30zM733 1047h-1l-289 -550h364zM1081 1586q0 -44 -14.5 -85.5t-47 -74t-83.5 -52t-123 -19.5q-58 0 -98 12.5t-65.5 34.5t-37 52t-11.5 65q0 27 6 55.5t19.5 54t34 48.5t50.5 40t69 26.5t89 9.5q58 0 98.5 -13t65.5 -36t36.5 -53.5
t11.5 -64.5zM927 1568q0 14 -4 27t-13 23t-24 16t-37 6q-25 0 -42.5 -8.5t-28.5 -23t-16.5 -33.5t-5.5 -38q0 -14 4 -26.5t12.5 -22t23 -15.5t36.5 -6q24 0 42 8t29.5 21.5t17.5 32t6 39.5zM283 1294z" />
    <glyph glyph-name="Aringacute" unicode="&#x1fa;" horiz-adv-x="1241" 
d="M1126 98q5 -36 4.5 -57t-14 -31.5t-44.5 -13t-85 -2.5q-38 0 -62 1.5t-37 5.5t-18 12t-6 22l-35 260h-486l-134 -254q-7 -14 -16 -23.5t-26 -14.5t-45.5 -7t-71.5 -2q-46 0 -71.5 3t-34 14.5t-2 32.5t25.5 56l628 1148q10 17 20 27.5t28.5 16t50 7t82.5 1.5
q59 0 93.5 -1.5t53.5 -7t25 -16.5t8 -30zM733 1047h-1l-289 -550h364zM924 1745q-10 -7 -19.5 -13t-21 -9.5t-29 -5.5t-44.5 -2q-33 0 -52.5 2.5t-27 8t-4 14t14.5 19.5l163 156q10 10 21 17t25.5 11t35.5 5.5t51 1.5q44 0 68.5 -4.5t34.5 -11.5t8 -15.5t-12 -15.5z
M1050 1536q0 -47 -18.5 -84t-51 -62t-78 -38t-100.5 -13q-56 0 -96.5 11t-66.5 31t-38 47.5t-12 61.5q0 48 18 84.5t51.5 61t79.5 37t102 12.5q55 0 94.5 -10.5t65 -30.5t38 -47.5t12.5 -60.5zM902 1519q0 14 -4 26t-13.5 21.5t-24.5 15t-37 5.5q-40 0 -63 -21t-23 -61
q0 -15 4 -27.5t13 -21.5t24 -14t38 -5q40 0 63 21.5t23 60.5zM285 1294z" />
    <glyph glyph-name="Aogonek" unicode="&#x104;" horiz-adv-x="1241" 
d="M1095 -219q0 -10 -2 -25.5t-6 -31.5t-9 -29.5t-11 -19.5q-8 -8 -25.5 -15t-42 -12.5t-53.5 -9t-58 -3.5q-49 0 -89.5 8.5t-69.5 26.5t-45 44.5t-16 63.5q0 24 7 46.5t22 46t40 49.5t62 57l65 53l-35 265h-486l-134 -254q-7 -14 -16 -23.5t-26 -14.5t-45.5 -7t-71.5 -2
q-46 0 -71.5 3t-34 14.5t-2 32.5t25.5 56l628 1148q10 17 20 27.5t28.5 16t50 7t82.5 1.5q59 0 93.5 -1.5t53 -7t24.5 -16.5t9 -30l166 -1129q4 -25 4.5 -42.5t-3.5 -31t-13 -24.5t-23 -22l-82 -69q-22 -18 -35.5 -32t-21.5 -24.5t-11 -18.5t-3 -15q0 -14 12.5 -23t39.5 -9
h80q16 0 22 -5.5t6 -18.5zM734 1048h-2l-289 -551h364z" />
    <glyph glyph-name="AE" unicode="&#xc6;" horiz-adv-x="1588" 
d="M1429 164q0 -7 -2 -22t-5.5 -33.5t-8.5 -37.5t-12.5 -35t-17 -26t-20.5 -10h-641q-17 0 -30.5 4.5t-21.5 15t-11 26t1 37.5l40 198h-389l-167 -240q-9 -14 -19.5 -23.5t-29 -14.5t-47 -7t-73.5 -2t-70 3t-32 14.5t2.5 32.5t31.5 56l796 1140q11 18 22.5 28.5t31 16.5
t51 7.5t82.5 1.5h726q26 0 26 -39q0 -8 -1.5 -23t-4.5 -33.5t-8.5 -38t-13 -35.5t-17.5 -26.5t-22 -10.5h-454l-63 -317h383q13 0 19.5 -10t6.5 -31q0 -8 -2 -23t-5 -33t-8.5 -37t-13 -34.5t-17 -25t-21.5 -9.5h-384l-72 -362h458q14 0 20.5 -11t6.5 -31zM860 1088h-3
l-424 -606h307z" />
    <glyph glyph-name="AEacute" unicode="&#x1fc;" horiz-adv-x="1588" 
d="M1429 164q0 -7 -2 -22t-5.5 -33.5t-8.5 -37.5t-12.5 -35t-17 -26t-20.5 -10h-641q-17 0 -30.5 4.5t-21.5 15t-11 26t1 37.5l40 198h-389l-167 -240q-9 -14 -19.5 -23.5t-29 -14.5t-47 -7t-73.5 -2t-70 3t-32 14.5t2.5 32.5t31.5 56l796 1140q11 18 22.5 28.5t31 16.5
t51 7.5t82.5 1.5h726q26 0 26 -39q0 -8 -1.5 -23t-4.5 -33.5t-8.5 -38t-13 -35.5t-17.5 -26.5t-22 -10.5h-454l-63 -317h383q13 0 19.5 -10t6.5 -31q0 -8 -2 -23t-5 -33t-8.5 -37t-13 -34.5t-17 -25t-21.5 -9.5h-384l-72 -362h458q14 0 20.5 -11t6.5 -31zM860 1088h-3
l-424 -606h307zM1188 1421q-11 -9 -21.5 -15.5t-25 -10.5t-36 -6.5t-52.5 -2.5q-68 0 -83.5 13t10.5 40l189 204q13 14 26 23t31 14t43 7t61 2q47 0 72 -6t34 -15.5t3.5 -21.5t-20.5 -25zM652 1294z" />
    <glyph glyph-name="B" unicode="B" horiz-adv-x="1148" 
d="M1107 1030q0 -59 -16.5 -111.5t-48 -96t-76 -77t-99.5 -53.5q44 -8 81 -28t63.5 -51t41 -73.5t14.5 -95.5q0 -48 -13 -99.5t-41 -100.5t-73 -93.5t-108.5 -78t-146.5 -53t-193 -19.5h-359q-41 0 -59.5 20t-9.5 63l226 1128q8 44 35.5 63.5t63.5 19.5h311q103 0 178 -16
t126 -48.5t77 -82t26 -117.5zM836 981q0 28 -10 49t-30 36t-50.5 23t-77.5 8h-143l-68 -336h148q65 0 108 20.5t70.5 53t40 71.5t12.5 75zM792 431q0 64 -47.5 101t-151.5 37h-175l-73 -368h186q71 0 119.5 20t80 52t46.5 73.5t15 84.5z" />
    <glyph glyph-name="C" unicode="C" horiz-adv-x="1062" 
d="M1145 1169q0 -28 -9.5 -75t-24 -75.5t-32.5 -28.5q-13 0 -31 16.5t-47 35.5t-74 35.5t-112 16.5q-74 0 -135 -29.5t-109 -78t-84 -111.5t-59.5 -131t-35 -135.5t-11.5 -125.5q0 -70 17.5 -123t50.5 -88t81 -52.5t108 -17.5q71 0 121.5 15t86 33t59 33t42.5 15
q13 0 17.5 -9.5t4.5 -26.5q0 -7 -2 -21t-5 -31.5t-7 -38t-9 -38t-11.5 -32t-17.5 -25.5t-43 -28.5t-78 -32.5t-104 -25.5t-124 -10.5q-109 0 -196.5 29t-148.5 88t-94 148t-33 208q0 93 19 193.5t57.5 196.5t97.5 182t139.5 150.5t183 102.5t227.5 38q70 0 132.5 -14.5
t109 -38.5t65 -43.5t18.5 -49.5z" />
    <glyph glyph-name="Cacute" unicode="&#x106;" horiz-adv-x="1062" 
d="M1145 1169q0 -28 -9.5 -75t-24 -75.5t-32.5 -28.5q-13 0 -31 16.5t-47 35.5t-74 35.5t-112 16.5q-74 0 -135 -29.5t-109 -78t-84 -111.5t-59.5 -131t-35 -135.5t-11.5 -125.5q0 -70 17.5 -123t50.5 -88t81 -52.5t108 -17.5q71 0 121.5 15t86 33t59 33t42.5 15
q13 0 17.5 -9.5t4.5 -26.5q0 -7 -2 -21t-5 -31.5t-7 -38t-9 -38t-11.5 -32t-17.5 -25.5t-43 -28.5t-78 -32.5t-104 -25.5t-124 -10.5q-109 0 -196.5 29t-148.5 88t-94 148t-33 208q0 93 19 193.5t57.5 196.5t97.5 182t139.5 150.5t183 102.5t227.5 38q70 0 132.5 -14.5
t109 -38.5t65 -43.5t18.5 -49.5zM924 1421q-11 -9 -21.5 -15.5t-25 -10.5t-36 -6.5t-52.5 -2.5q-68 0 -83.5 13t10.5 40l189 204q13 14 26 23t31 14t43 7t61 2q47 0 72 -6t34 -15.5t3.5 -21.5t-20.5 -25zM388 1294z" />
    <glyph glyph-name="Ccircumflex" unicode="&#x108;" horiz-adv-x="1062" 
d="M1145 1169q0 -28 -9.5 -75t-24 -75.5t-32.5 -28.5q-13 0 -31 16.5t-47 35.5t-74 35.5t-112 16.5q-74 0 -135 -29.5t-109 -78t-84 -111.5t-59.5 -131t-35 -135.5t-11.5 -125.5q0 -70 17.5 -123t50.5 -88t81 -52.5t108 -17.5q71 0 121.5 15t86 33t59 33t42.5 15
q13 0 17.5 -9.5t4.5 -26.5q0 -7 -2 -21t-5 -31.5t-7 -38t-9 -38t-11.5 -32t-17.5 -25.5t-43 -28.5t-78 -32.5t-104 -25.5t-124 -10.5q-109 0 -196.5 29t-148.5 88t-94 148t-33 208q0 93 19 193.5t57.5 196.5t97.5 182t139.5 150.5t183 102.5t227.5 38q70 0 132.5 -14.5
t109 -38.5t65 -43.5t18.5 -49.5zM1165 1434q9 -14 10 -23.5t-9 -15t-31 -7.5t-55 -2q-42 0 -66.5 1.5t-39 5t-21 9.5t-12.5 15l-90 137l-149 -134q-11 -11 -21.5 -17.5t-27.5 -10t-43.5 -5t-67.5 -1.5q-34 0 -54 2.5t-27.5 8t-3 14.5t19.5 23l238 214q13 13 27.5 21
t32.5 12.5t42 6t58 1.5q32 0 53.5 -1t36 -5t25 -12.5t20.5 -22.5zM166 1294z" />
    <glyph glyph-name="Ccaron" unicode="&#x10c;" horiz-adv-x="1062" 
d="M1145 1169q0 -28 -9.5 -75t-24 -75.5t-32.5 -28.5q-13 0 -31 16.5t-47 35.5t-74 35.5t-112 16.5q-74 0 -135 -29.5t-109 -78t-84 -111.5t-59.5 -131t-35 -135.5t-11.5 -125.5q0 -70 17.5 -123t50.5 -88t81 -52.5t108 -17.5q71 0 121.5 15t86 33t59 33t42.5 15
q13 0 17.5 -9.5t4.5 -26.5q0 -7 -2 -21t-5 -31.5t-7 -38t-9 -38t-11.5 -32t-17.5 -25.5t-43 -28.5t-78 -32.5t-104 -25.5t-124 -10.5q-109 0 -196.5 29t-148.5 88t-94 148t-33 208q0 93 19 193.5t57.5 196.5t97.5 182t139.5 150.5t183 102.5t227.5 38q70 0 132.5 -14.5
t109 -38.5t65 -43.5t18.5 -49.5zM964 1427q-13 -13 -28 -21t-33.5 -12t-42.5 -6t-58 -2q-32 0 -53 1t-36 5.5t-25 13t-20 21.5l-156 214q-10 15 -11 24.5t9 14.5t31.5 7t55.5 2q42 0 66.5 -1.5t38 -5t20 -9.5t12.5 -15l91 -137l149 135q11 9 21.5 15.5t28 10.5t44 5.5
t68.5 1.5q34 0 53.5 -2.5t27 -8t3 -15t-18.5 -22.5zM159 1294z" />
    <glyph glyph-name="Cdotaccent" unicode="&#x10a;" horiz-adv-x="1062" 
d="M1145 1169q0 -28 -9.5 -75t-24 -75.5t-32.5 -28.5q-13 0 -31 16.5t-47 35.5t-74 35.5t-112 16.5q-74 0 -135 -29.5t-109 -78t-84 -111.5t-59.5 -131t-35 -135.5t-11.5 -125.5q0 -70 17.5 -123t50.5 -88t81 -52.5t108 -17.5q71 0 121.5 15t86 33t59 33t42.5 15
q13 0 17.5 -9.5t4.5 -26.5q0 -7 -2 -21t-5 -31.5t-7 -38t-9 -38t-11.5 -32t-17.5 -25.5t-43 -28.5t-78 -32.5t-104 -25.5t-124 -10.5q-109 0 -196.5 29t-148.5 88t-94 148t-33 208q0 93 19 193.5t57.5 196.5t97.5 182t139.5 150.5t183 102.5t227.5 38q70 0 132.5 -14.5
t109 -38.5t65 -43.5t18.5 -49.5zM721 1531q7 35 18.5 59t30.5 39t47 21.5t68 6.5t65 -6.5t38 -21.5t14.5 -39t-5.5 -59q-6 -34 -17.5 -58t-30.5 -39t-47 -21.5t-68 -6.5t-65 6.5t-38 21.5t-15 39t5 58zM406 1294z" />
    <glyph glyph-name="Ccedilla" unicode="&#xc7;" horiz-adv-x="1062" 
d="M436 -8q-121 24 -195 89t-108.5 158t-34.5 213q0 93 19 193.5t57.5 196.5t97.5 182t139.5 150.5t183 102.5t227.5 38q70 0 132.5 -14.5t109 -38.5t64.5 -43.5t18 -49.5q0 -28 -9 -75t-23.5 -75.5t-32.5 -28.5q-13 0 -31 16.5t-47 35.5t-74 35.5t-112 16.5
q-74 0 -135 -29.5t-109 -78t-84 -111.5t-59.5 -131t-35 -135.5t-11.5 -125.5q0 -70 17.5 -123t50.5 -88t81 -52.5t108 -17.5q71 0 121.5 15t86 33t60 33t39.5 15q14 0 19 -9.5t5 -26.5q0 -7 -2 -21t-5 -31.5t-7 -38t-9 -38t-11.5 -32t-17.5 -25.5t-45.5 -30t-95.5 -38
t-141 -26l13 -48q6 -25 10 -47t4 -44q0 -54 -17.5 -93.5t-49.5 -65t-76.5 -37.5t-98.5 -12q-29 0 -56 2t-50.5 6.5t-41.5 10t-30 10.5q-11 6 -15 12.5t-4 19.5q0 10 2.5 28t8.5 36t16.5 31.5t26.5 13.5h114q14 0 27 3.5t22.5 10t15 17.5t5.5 25q0 10 -1.5 23t-4.5 26z" />
    <glyph glyph-name="D" unicode="D" horiz-adv-x="1291" 
d="M1270 826q0 -60 -7.5 -127t-25 -136.5t-47 -138t-73.5 -131t-104.5 -116.5t-139.5 -93.5t-178 -61.5t-236 -22h-329q-16 0 -30.5 4t-24 13.5t-13 25.5t1.5 40l226 1128q8 44 35 63.5t64 19.5h312q154 0 257.5 -30t173 -89t104 -146.5t34.5 -202.5zM994 795q0 63 -17 117
t-55 93t-97.5 61t-159.5 22h-137l-177 -880h138q105 0 176.5 25.5t126 70t93 103t63 123.5t35.5 133t11 132z" />
    <glyph glyph-name="Dcaron" unicode="&#x10e;" horiz-adv-x="1291" 
d="M1270 826q0 -60 -7.5 -127t-25 -136.5t-47 -138t-73.5 -131t-104.5 -116.5t-139.5 -93.5t-178 -61.5t-236 -22h-329q-16 0 -30.5 4t-24 13.5t-13 25.5t1.5 40l226 1128q8 44 35 63.5t64 19.5h312q154 0 257.5 -30t173 -89t104 -146.5t34.5 -202.5zM994 795q0 63 -17 117
t-55 93t-97.5 61t-159.5 22h-137l-177 -880h138q105 0 176.5 25.5t126 70t93 103t63 123.5t35.5 133t11 132zM912 1427q-13 -13 -28 -21t-33.5 -12t-42.5 -6t-58 -2q-32 0 -53 1t-36 5.5t-25 13t-20 21.5l-156 214q-10 15 -11 24.5t9 14.5t31.5 7t55.5 2q42 0 66.5 -1.5
t38 -5t20 -9.5t12.5 -15l91 -137l149 135q11 9 21.5 15.5t28 10.5t44 5.5t68.5 1.5q34 0 53.5 -2.5t27 -8t3 -15t-18.5 -22.5zM107 1294z" />
    <glyph glyph-name="Dcroat" unicode="&#x110;" horiz-adv-x="1309" 
d="M1289 826q0 -88 -15.5 -183.5t-52 -187t-96 -174.5t-148 -145.5t-208 -99t-290.5 -36.5h-333q-35 0 -53.5 19.5t-9.5 63.5l97 485h-106q-14 0 -20.5 9.5t-6.5 30.5q0 8 1.5 23.5t5 34t8.5 37t12.5 33.5t17 25t21.5 10h107l89 440q8 44 34 63.5t63 19.5h314
q153 0 257 -30.5t173 -90t104 -147t35 -200.5zM1013 795q0 64 -17.5 118t-55.5 93t-98 60.5t-159 21.5h-138l-63 -317h196q17 0 22 -11t5 -30q0 -9 -1.5 -24.5t-5 -33.5t-9 -37t-13 -34t-17 -24t-20.5 -9h-197l-72 -360h137q105 0 177 26t126.5 70t93 103t63 124t35.5 133
t11 131z" />
    <glyph glyph-name="Eth" unicode="&#xd0;" horiz-adv-x="1309" 
d="M1289 826q0 -88 -15.5 -183.5t-52 -187t-96 -174.5t-148 -145.5t-208 -99t-290.5 -36.5h-333q-35 0 -53.5 19.5t-9.5 63.5l97 485h-106q-14 0 -20.5 9.5t-6.5 30.5q0 8 1.5 23.5t5 34t8.5 37t12.5 33.5t17 25t21.5 10h107l89 440q8 44 34 63.5t63 19.5h314
q153 0 257 -30.5t173 -90t104 -147t35 -200.5zM1013 795q0 64 -17.5 118t-55.5 93t-98 60.5t-159 21.5h-138l-63 -317h196q17 0 22 -11t5 -30q0 -9 -1.5 -24.5t-5 -33.5t-9 -37t-13 -34t-17 -24t-20.5 -9h-197l-72 -360h137q105 0 177 26t126.5 70t93 103t63 124t35.5 133
t11 131z" />
    <glyph glyph-name="E" unicode="E" horiz-adv-x="999" 
d="M1056 1256q0 -6 -1.5 -21t-4.5 -33.5t-8 -38.5t-12.5 -36.5t-18 -27.5t-22.5 -11h-462l-64 -316h392q14 0 20 -10t6 -28q0 -7 -1.5 -21.5t-4.5 -33t-8 -37.5t-12.5 -35t-17.5 -26t-22 -10h-391l-74 -365h468q12 0 18 -10.5t6 -30.5q0 -7 -1 -22t-4.5 -33.5t-8.5 -37.5
t-12.5 -35.5t-17.5 -26.5t-23 -10h-650q-16 0 -29 4.5t-21.5 15t-11.5 26t1 37.5l226 1128q9 44 36 63.5t60 19.5h644q26 0 26 -38z" />
    <glyph glyph-name="Egrave" unicode="&#xc8;" horiz-adv-x="999" 
d="M1056 1256q0 -6 -1.5 -21t-4.5 -33.5t-8 -38.5t-12.5 -36.5t-18 -27.5t-22.5 -11h-462l-64 -316h392q14 0 20 -10t6 -28q0 -7 -1.5 -21.5t-4.5 -33t-8 -37.5t-12.5 -35t-17.5 -26t-22 -10h-391l-74 -365h468q12 0 18 -10.5t6 -30.5q0 -7 -1 -22t-4.5 -33.5t-8.5 -37.5
t-12.5 -35.5t-17.5 -26.5t-23 -10h-650q-16 0 -29 4.5t-21.5 15t-11.5 26t1 37.5l226 1128q9 44 36 63.5t60 19.5h644q26 0 26 -38zM802 1439q11 -14 13.5 -24t-7 -16.5t-30 -9.5t-53.5 -3q-31 0 -52 2t-35.5 6.5t-25 11t-20.5 15.5l-214 200q-14 13 -18 25t6 21.5t36 15.5
t71 6q37 0 61.5 -1.5t42.5 -6.5t30 -14t24 -24zM37 1294z" />
    <glyph glyph-name="Eacute" unicode="&#xc9;" horiz-adv-x="999" 
d="M1056 1256q0 -6 -1.5 -21t-4.5 -33.5t-8 -38.5t-12.5 -36.5t-18 -27.5t-22.5 -11h-462l-64 -316h392q14 0 20 -10t6 -28q0 -7 -1.5 -21.5t-4.5 -33t-8 -37.5t-12.5 -35t-17.5 -26t-22 -10h-391l-74 -365h468q12 0 18 -10.5t6 -30.5q0 -7 -1 -22t-4.5 -33.5t-8.5 -37.5
t-12.5 -35.5t-17.5 -26.5t-23 -10h-650q-16 0 -29 4.5t-21.5 15t-11.5 26t1 37.5l226 1128q9 44 36 63.5t60 19.5h644q26 0 26 -38zM816 1421q-11 -9 -21.5 -15.5t-25 -10.5t-36 -6.5t-52.5 -2.5q-68 0 -83.5 13t10.5 40l189 204q13 14 26 23t31 14t43 7t61 2q47 0 72 -6
t34 -15.5t3.5 -21.5t-20.5 -25zM280 1294z" />
    <glyph glyph-name="Ecircumflex" unicode="&#xca;" horiz-adv-x="999" 
d="M1056 1256q0 -6 -1.5 -21t-4.5 -33.5t-8 -38.5t-12.5 -36.5t-18 -27.5t-22.5 -11h-462l-64 -316h392q14 0 20 -10t6 -28q0 -7 -1.5 -21.5t-4.5 -33t-8 -37.5t-12.5 -35t-17.5 -26t-22 -10h-391l-74 -365h468q12 0 18 -10.5t6 -30.5q0 -7 -1 -22t-4.5 -33.5t-8.5 -37.5
t-12.5 -35.5t-17.5 -26.5t-23 -10h-650q-16 0 -29 4.5t-21.5 15t-11.5 26t1 37.5l226 1128q9 44 36 63.5t60 19.5h644q26 0 26 -38zM1056 1434q9 -14 10 -23.5t-9 -15t-31 -7.5t-55 -2q-42 0 -66.5 1.5t-39 5t-21 9.5t-12.5 15l-90 137l-149 -134q-11 -11 -21.5 -17.5
t-27.5 -10t-43.5 -5t-67.5 -1.5q-34 0 -54 2.5t-27.5 8t-3 14.5t19.5 23l238 214q13 13 27.5 21t32.5 12.5t42 6t58 1.5q32 0 53.5 -1t36 -5t25 -12.5t20.5 -22.5zM57 1294z" />
    <glyph glyph-name="Ecaron" unicode="&#x11a;" horiz-adv-x="999" 
d="M1056 1256q0 -6 -1.5 -21t-4.5 -33.5t-8 -38.5t-12.5 -36.5t-18 -27.5t-22.5 -11h-462l-64 -316h392q14 0 20 -10t6 -28q0 -7 -1.5 -21.5t-4.5 -33t-8 -37.5t-12.5 -35t-17.5 -26t-22 -10h-391l-74 -365h468q12 0 18 -10.5t6 -30.5q0 -7 -1 -22t-4.5 -33.5t-8.5 -37.5
t-12.5 -35.5t-17.5 -26.5t-23 -10h-650q-16 0 -29 4.5t-21.5 15t-11.5 26t1 37.5l226 1128q9 44 36 63.5t60 19.5h644q26 0 26 -38zM850 1427q-13 -13 -28 -21t-33.5 -12t-42.5 -6t-58 -2q-32 0 -53 1t-36 5.5t-25 13t-20 21.5l-156 214q-10 15 -11 24.5t9 14.5t31.5 7
t55.5 2q42 0 66.5 -1.5t38 -5t20 -9.5t12.5 -15l91 -137l149 135q11 9 21.5 15.5t28 10.5t44 5.5t68.5 1.5q34 0 53.5 -2.5t27 -8t3 -15t-18.5 -22.5zM45 1294z" />
    <glyph glyph-name="Edieresis" unicode="&#xcb;" horiz-adv-x="999" 
d="M1056 1256q0 -6 -1.5 -21t-4.5 -33.5t-8 -38.5t-12.5 -36.5t-18 -27.5t-22.5 -11h-462l-64 -316h392q14 0 20 -10t6 -28q0 -7 -1.5 -21.5t-4.5 -33t-8 -37.5t-12.5 -35t-17.5 -26t-22 -10h-391l-74 -365h468q12 0 18 -10.5t6 -30.5q0 -7 -1 -22t-4.5 -33.5t-8.5 -37.5
t-12.5 -35.5t-17.5 -26.5t-23 -10h-650q-16 0 -29 4.5t-21.5 15t-11.5 26t1 37.5l226 1128q9 44 36 63.5t60 19.5h644q26 0 26 -38zM1078 1528q-6 -35 -17.5 -58t-30 -37t-44.5 -19.5t-62 -5.5q-38 0 -61.5 5.5t-36.5 19.5t-15 37t4 58q7 37 17.5 62t28.5 39.5t44 20.5t64 6
q36 0 60 -6t37 -20.5t15.5 -39.5t-3.5 -62zM641 1528q-6 -35 -17 -58t-29.5 -37t-45 -19.5t-61.5 -5.5q-38 0 -62 5.5t-37 19.5t-15 37t5 58q6 37 17 62t28.5 39.5t44 20.5t64.5 6q36 0 59.5 -6t37 -20.5t16 -39.5t-4.5 -62zM63 1294z" />
    <glyph glyph-name="Emacron" unicode="&#x112;" horiz-adv-x="999" 
d="M1056 1256q0 -6 -1.5 -21t-4.5 -33.5t-8 -38.5t-12.5 -36.5t-18 -27.5t-22.5 -11h-462l-64 -316h392q14 0 20 -10t6 -28q0 -7 -1.5 -21.5t-4.5 -33t-8 -37.5t-12.5 -35t-17.5 -26t-22 -10h-391l-74 -365h468q12 0 18 -10.5t6 -30.5q0 -7 -1 -22t-4.5 -33.5t-8.5 -37.5
t-12.5 -35.5t-17.5 -26.5t-23 -10h-650q-16 0 -29 4.5t-21.5 15t-11.5 26t1 37.5l226 1128q9 44 36 63.5t60 19.5h644q26 0 26 -38zM1064 1578q0 -8 -1.5 -22t-5 -30t-8.5 -33t-12.5 -31t-17 -22.5t-21.5 -8.5h-590q-18 0 -25 9t-7 30q0 6 1.5 20t4 30t8 33t13.5 31t18.5 23
t24.5 9h590q15 0 21.5 -10t6.5 -28zM69 1294z" />
    <glyph glyph-name="Ebreve" unicode="&#x114;" horiz-adv-x="999" 
d="M1056 1256q0 -6 -1.5 -21t-4.5 -33.5t-8 -38.5t-12.5 -36.5t-18 -27.5t-22.5 -11h-462l-64 -316h392q14 0 20 -10t6 -28q0 -7 -1.5 -21.5t-4.5 -33t-8 -37.5t-12.5 -35t-17.5 -26t-22 -10h-391l-74 -365h468q12 0 18 -10.5t6 -30.5q0 -7 -1 -22t-4.5 -33.5t-8.5 -37.5
t-12.5 -35.5t-17.5 -26.5t-23 -10h-650q-16 0 -29 4.5t-21.5 15t-11.5 26t1 37.5l226 1128q9 44 36 63.5t60 19.5h644q26 0 26 -38zM1048 1670q0 -11 -5 -36t-19 -56.5t-38 -65.5t-62.5 -62t-92.5 -46t-128 -18q-77 0 -127.5 16t-81.5 43.5t-43.5 63.5t-12.5 75q0 11 1 26
t3 29t6 25.5t9 15.5q8 9 27 13t52 4q25 0 41 -2t25 -6t12.5 -10t3.5 -13q0 -8 -1.5 -18.5t-1.5 -21.5q0 -19 5.5 -34t17.5 -25t31.5 -15.5t47.5 -5.5t52.5 6.5t44.5 20t35 34.5t24 52q3 10 9 17t16.5 12t27.5 7t42 2t41 -2t24.5 -5t11.5 -8.5t3 -11.5zM105 1294z" />
    <glyph glyph-name="Edotaccent" unicode="&#x116;" horiz-adv-x="999" 
d="M1056 1256q0 -6 -1.5 -21t-4.5 -33.5t-8 -38.5t-12.5 -36.5t-18 -27.5t-22.5 -11h-462l-64 -316h392q14 0 20 -10t6 -28q0 -7 -1.5 -21.5t-4.5 -33t-8 -37.5t-12.5 -35t-17.5 -26t-22 -10h-391l-74 -365h468q12 0 18 -10.5t6 -30.5q0 -7 -1 -22t-4.5 -33.5t-8.5 -37.5
t-12.5 -35.5t-17.5 -26.5t-23 -10h-650q-16 0 -29 4.5t-21.5 15t-11.5 26t1 37.5l226 1128q9 44 36 63.5t60 19.5h644q26 0 26 -38zM594 1531q7 35 18.5 59t30.5 39t47 21.5t68 6.5t65 -6.5t38 -21.5t14.5 -39t-5.5 -59q-6 -34 -17.5 -58t-30.5 -39t-47 -21.5t-68 -6.5
t-65 6.5t-38 21.5t-15 39t5 58zM279 1294z" />
    <glyph glyph-name="Eogonek" unicode="&#x118;" horiz-adv-x="999" 
d="M798 -218q0 -10 -3 -26.5t-7.5 -32.5t-10 -29.5t-10.5 -18.5q-8 -9 -28 -16t-46 -12.5t-55 -8.5t-54 -3q-53 0 -93.5 9.5t-68 28t-41.5 45t-14 59.5q0 21 5 41.5t17 41t30.5 42t44.5 44.5l65 54h-403q-16 0 -29.5 4.5t-22 15t-11.5 26t1 37.5l226 1128q9 44 35.5 63.5
t59.5 19.5h645q14 0 20 -10.5t6 -29.5q0 -6 -1.5 -21t-5 -33.5t-8.5 -38t-12.5 -36t-17.5 -27t-23 -10.5h-461l-64 -316h392q14 0 20 -10t6 -28q0 -7 -1.5 -21.5t-4.5 -32.5t-8 -37.5t-12.5 -35.5t-17.5 -26t-23 -10h-390l-74 -365h467q13 0 19 -10.5t6 -31.5
q0 -10 -2 -31.5t-7.5 -46t-16 -47.5t-25.5 -36l-115 -94q-27 -23 -36.5 -39.5t-9.5 -30.5q0 -15 10.5 -24.5t41.5 -9.5h87q14 0 21.5 -4.5t7.5 -18.5z" />
    <glyph glyph-name="F" unicode="F" horiz-adv-x="940" 
d="M1018 1252q0 -6 -1.5 -21.5t-5 -34.5t-8.5 -39.5t-12.5 -38t-17.5 -28.5t-23 -11h-423l-70 -348h398q14 0 20 -11t6 -29q0 -7 -2 -22.5t-5.5 -34t-9 -39t-13 -37t-17.5 -27.5t-23 -11h-395l-96 -483q-2 -11 -10 -19t-24.5 -13t-42.5 -8t-64 -3q-39 0 -63.5 3t-38.5 8
t-19 13t-2 19l234 1174q9 44 36 63.5t60 19.5h606q17 0 21.5 -11t4.5 -31z" />
    <glyph glyph-name="G" unicode="G" horiz-adv-x="1305" 
d="M1312 1156q0 -10 -1.5 -26t-5 -34.5t-8.5 -37t-12 -33.5t-15.5 -24.5t-17.5 -9.5q-15 0 -42 17t-70 38t-105 38t-147 17t-156 -24.5t-129.5 -67t-103 -100t-75 -123.5t-45.5 -137t-15 -140q0 -77 22 -135t63.5 -97t100.5 -59t132 -20q49 0 97 10t89 30l60 299h-244
q-12 0 -19 9.5t-7 30.5q0 10 2 26t5.5 33.5t8.5 35.5t12.5 32t16.5 23t20 9h437q33 0 47 -22t6 -62l-104 -518q-4 -19 -10 -32.5t-16 -24.5q-11 -12 -51 -28.5t-97.5 -32.5t-128.5 -27t-145 -11q-139 0 -245 32t-177.5 95.5t-108.5 155.5t-37 212q0 108 23.5 212t70 197.5
t115 173t159 137.5t201.5 90.5t243 32.5q73 0 138 -11.5t116.5 -28t86.5 -35.5t46.5 -29.5t15.5 -23.5t4 -32z" />
    <glyph glyph-name="Gcircumflex" unicode="&#x11c;" horiz-adv-x="1305" 
d="M1312 1156q0 -10 -1.5 -26t-5 -34.5t-8.5 -37t-12 -33.5t-15.5 -24.5t-17.5 -9.5q-15 0 -42 17t-70 38t-105 38t-147 17t-156 -24.5t-129.5 -67t-103 -100t-75 -123.5t-45.5 -137t-15 -140q0 -77 22 -135t63.5 -97t100.5 -59t132 -20q49 0 97 10t89 30l60 299h-244
q-12 0 -19 9.5t-7 30.5q0 10 2 26t5.5 33.5t8.5 35.5t12.5 32t16.5 23t20 9h437q33 0 47 -22t6 -62l-104 -518q-4 -19 -10 -32.5t-16 -24.5q-11 -12 -51 -28.5t-97.5 -32.5t-128.5 -27t-145 -11q-139 0 -245 32t-177.5 95.5t-108.5 155.5t-37 212q0 108 23.5 212t70 197.5
t115 173t159 137.5t201.5 90.5t243 32.5q73 0 138 -11.5t116.5 -28t86.5 -35.5t46.5 -29.5t15.5 -23.5t4 -32zM1222 1434q9 -14 10 -23.5t-9 -15t-31 -7.5t-55 -2q-42 0 -66.5 1.5t-39 5t-21 9.5t-12.5 15l-90 137l-149 -134q-11 -11 -21.5 -17.5t-27.5 -10t-43.5 -5
t-67.5 -1.5q-34 0 -54 2.5t-27.5 8t-3 14.5t19.5 23l238 214q13 13 27.5 21t32.5 12.5t42 6t58 1.5q32 0 53.5 -1t36 -5t25 -12.5t20.5 -22.5zM223 1294z" />
    <glyph glyph-name="Gbreve" unicode="&#x11e;" horiz-adv-x="1305" 
d="M1312 1156q0 -10 -1.5 -26t-5 -34.5t-8.5 -37t-12 -33.5t-15.5 -24.5t-17.5 -9.5q-15 0 -42 17t-70 38t-105 38t-147 17t-156 -24.5t-129.5 -67t-103 -100t-75 -123.5t-45.5 -137t-15 -140q0 -77 22 -135t63.5 -97t100.5 -59t132 -20q49 0 97 10t89 30l60 299h-244
q-12 0 -19 9.5t-7 30.5q0 10 2 26t5.5 33.5t8.5 35.5t12.5 32t16.5 23t20 9h437q33 0 47 -22t6 -62l-104 -518q-4 -19 -10 -32.5t-16 -24.5q-11 -12 -51 -28.5t-97.5 -32.5t-128.5 -27t-145 -11q-139 0 -245 32t-177.5 95.5t-108.5 155.5t-37 212q0 108 23.5 212t70 197.5
t115 173t159 137.5t201.5 90.5t243 32.5q73 0 138 -11.5t116.5 -28t86.5 -35.5t46.5 -29.5t15.5 -23.5t4 -32zM1226 1670q0 -11 -5 -36t-19 -56.5t-38 -65.5t-62.5 -62t-92.5 -46t-128 -18q-77 0 -127.5 16t-81.5 43.5t-43.5 63.5t-12.5 75q0 11 1 26t3 29t6 25.5t9 15.5
q8 9 27 13t52 4q25 0 41 -2t25 -6t12.5 -10t3.5 -13q0 -8 -1.5 -18.5t-1.5 -21.5q0 -19 5.5 -34t17.5 -25t31.5 -15.5t47.5 -5.5t52.5 6.5t44.5 20t35 34.5t24 52q3 10 9 17t16.5 12t27.5 7t42 2t41 -2t24.5 -5t11.5 -8.5t3 -11.5zM283 1294z" />
    <glyph glyph-name="Gdotaccent" unicode="&#x120;" horiz-adv-x="1305" 
d="M1312 1156q0 -10 -1.5 -26t-5 -34.5t-8.5 -37t-12 -33.5t-15.5 -24.5t-17.5 -9.5q-15 0 -42 17t-70 38t-105 38t-147 17t-156 -24.5t-129.5 -67t-103 -100t-75 -123.5t-45.5 -137t-15 -140q0 -77 22 -135t63.5 -97t100.5 -59t132 -20q49 0 97 10t89 30l60 299h-244
q-12 0 -19 9.5t-7 30.5q0 10 2 26t5.5 33.5t8.5 35.5t12.5 32t16.5 23t20 9h437q33 0 47 -22t6 -62l-104 -518q-4 -19 -10 -32.5t-16 -24.5q-11 -12 -51 -28.5t-97.5 -32.5t-128.5 -27t-145 -11q-139 0 -245 32t-177.5 95.5t-108.5 155.5t-37 212q0 108 23.5 212t70 197.5
t115 173t159 137.5t201.5 90.5t243 32.5q73 0 138 -11.5t116.5 -28t86.5 -35.5t46.5 -29.5t15.5 -23.5t4 -32zM782 1531q7 35 18.5 59t30.5 39t47 21.5t68 6.5t65 -6.5t38 -21.5t14.5 -39t-5.5 -59q-6 -34 -17.5 -58t-30.5 -39t-47 -21.5t-68 -6.5t-65 6.5t-38 21.5t-15 39
t5 58zM467 1294z" />
    <glyph glyph-name="Gcommaaccent" unicode="&#x122;" horiz-adv-x="1305" 
d="M1312 1156q0 -10 -1.5 -26t-5 -34.5t-8.5 -37t-12 -33.5t-15.5 -24.5t-17.5 -9.5q-15 0 -42 17t-70 38t-105 38t-147 17t-156 -24.5t-129.5 -67t-103 -100t-75 -123.5t-45.5 -137t-15 -140q0 -77 22 -135t63.5 -97t100.5 -59t132 -20q49 0 97 10t89 30l60 299h-244
q-12 0 -19 9.5t-7 30.5q0 10 2 26t5.5 33.5t8.5 35.5t12.5 32t16.5 23t20 9h437q33 0 47 -22t6 -62l-104 -518q-4 -19 -10 -32.5t-16 -24.5q-11 -12 -51 -28.5t-97.5 -32.5t-128.5 -27t-145 -11q-139 0 -245 32t-177.5 95.5t-108.5 155.5t-37 212q0 108 23.5 212t70 197.5
t115 173t159 137.5t201.5 90.5t243 32.5q73 0 138 -11.5t116.5 -28t86.5 -35.5t46.5 -29.5t15.5 -23.5t4 -32zM544 -330q-7 -10 -14.5 -16.5t-20.5 -11t-34 -6t-53 -1.5q-31 0 -49 2.5t-25.5 9t-7 16.5t7.5 24l88 190q5 11 14 19.5t25 13.5t42.5 7t66.5 2t62.5 -4
t31.5 -11.5t7 -18.5t-12 -25z" />
    <glyph glyph-name="H" unicode="H" horiz-adv-x="1292" 
d="M1064 35q-2 -10 -10 -18t-24 -13t-42 -7.5t-64 -2.5t-63 2.5t-38.5 7.5t-18.5 13t-2 18l104 524h-484l-104 -524q-2 -10 -10 -18t-24.5 -13t-42 -7.5t-63.5 -2.5q-39 0 -63.5 2.5t-38.5 7.5t-19 13t-2 18l245 1224q1 10 9 18t24 13t42 7.5t64 2.5t63 -2.5t39 -7.5
t18.5 -13t2.5 -18l-95 -476h485l94 476q2 10 10 18t24 13t42 7.5t64 2.5t63 -2.5t39 -7.5t18.5 -13t2.5 -18z" />
    <glyph glyph-name="Hcircumflex" unicode="&#x124;" horiz-adv-x="1292" 
d="M1064 35q-2 -10 -10 -18t-24 -13t-42 -7.5t-64 -2.5t-63 2.5t-38.5 7.5t-18.5 13t-2 18l104 524h-484l-104 -524q-2 -10 -10 -18t-24.5 -13t-42 -7.5t-63.5 -2.5q-39 0 -63.5 2.5t-38.5 7.5t-19 13t-2 18l245 1224q1 10 9 18t24 13t42 7.5t64 2.5t63 -2.5t39 -7.5
t18.5 -13t2.5 -18l-95 -476h485l94 476q2 10 10 18t24 13t42 7.5t64 2.5t63 -2.5t39 -7.5t18.5 -13t2.5 -18zM1165 1434q9 -14 10 -23.5t-9 -15t-31 -7.5t-55 -2q-42 0 -66.5 1.5t-39 5t-21 9.5t-12.5 15l-90 137l-149 -134q-11 -11 -21.5 -17.5t-27.5 -10t-43.5 -5
t-67.5 -1.5q-34 0 -54 2.5t-27.5 8t-3 14.5t19.5 23l238 214q13 13 27.5 21t32.5 12.5t42 6t58 1.5q32 0 53.5 -1t36 -5t25 -12.5t20.5 -22.5zM166 1294z" />
    <glyph glyph-name="Hbar" unicode="&#x126;" horiz-adv-x="1347" 
d="M520 907l-36 -177h484l36 177h-484zM1304 1092h117q14 0 19.5 -8.5t5.5 -25.5q0 -8 -1.5 -22t-4.5 -31t-8 -34.5t-12 -31.5t-16.5 -23t-22.5 -9h-115l-174 -873q-2 -10 -10 -17.5t-23.5 -12.5t-41.5 -7.5t-64 -2.5t-63 2.5t-39 7.5t-19 12.5t-2 17.5l97 490h-484
l-97 -490q-3 -10 -10.5 -17.5t-23.5 -12.5t-41.5 -7.5t-63.5 -2.5q-39 0 -64 2.5t-39 7.5t-18.5 12.5t-2.5 17.5l175 873h-115q-14 0 -20.5 10.5t-6.5 31.5q0 12 3.5 36.5t11 48.5t19.5 41t30 17h114l34 168q2 10 10 17.5t24 12.5t42 7.5t64 2.5t63 -2.5t39 -7.5t18.5 -12.5
t2.5 -17.5l-34 -168h484l33 168q2 10 10 17.5t24 12.5t42 7.5t65 2.5q37 0 62 -2.5t39 -7.5t18.5 -12.5t2.5 -17.5z" />
    <glyph glyph-name="I" unicode="I" horiz-adv-x="546" 
d="M319 35q-2 -10 -10 -18t-24.5 -13t-42.5 -7.5t-64 -2.5q-39 0 -63.5 2.5t-38.5 7.5t-19 13t-2 18l245 1224q1 10 9.5 18t25 13t42 7.5t63.5 2.5t62.5 -2.5t39 -7.5t19 -13t2.5 -18z" />
    <glyph glyph-name="Igrave" unicode="&#xcc;" horiz-adv-x="546" 
d="M319 35q-2 -10 -10 -18t-24.5 -13t-42.5 -7.5t-64 -2.5q-39 0 -63.5 2.5t-38.5 7.5t-19 13t-2 18l245 1224q1 10 9.5 18t25 13t42 7.5t63.5 2.5t62.5 -2.5t39 -7.5t19 -13t2.5 -18zM552 1439q11 -14 13.5 -24t-7 -16.5t-30 -9.5t-53.5 -3q-31 0 -52 2t-35.5 6.5t-25 11
t-20.5 15.5l-214 200q-14 13 -18 25t6 21.5t36 15.5t71 6q37 0 61.5 -1.5t42.5 -6.5t30 -14t24 -24zM-213 1294z" />
    <glyph glyph-name="Iacute" unicode="&#xcd;" horiz-adv-x="546" 
d="M319 35q-2 -10 -10 -18t-24.5 -13t-42.5 -7.5t-64 -2.5q-39 0 -63.5 2.5t-38.5 7.5t-19 13t-2 18l245 1224q1 10 9.5 18t25 13t42 7.5t63.5 2.5t62.5 -2.5t39 -7.5t19 -13t2.5 -18zM564 1421q-11 -9 -21.5 -15.5t-25 -10.5t-36 -6.5t-52.5 -2.5q-68 0 -83.5 13t10.5 40
l189 204q13 14 26 23t31 14t43 7t61 2q47 0 72 -6t34 -15.5t3.5 -21.5t-20.5 -25zM28 1294z" />
    <glyph glyph-name="Icircumflex" unicode="&#xce;" horiz-adv-x="546" 
d="M319 35q-2 -10 -10 -18t-24.5 -13t-42.5 -7.5t-64 -2.5q-39 0 -63.5 2.5t-38.5 7.5t-19 13t-2 18l245 1224q1 10 9.5 18t25 13t42 7.5t63.5 2.5t62.5 -2.5t39 -7.5t19 -13t2.5 -18zM811 1434q9 -14 10 -23.5t-9 -15t-31 -7.5t-55 -2q-42 0 -66.5 1.5t-39 5t-21 9.5
t-12.5 15l-90 137l-149 -134q-11 -11 -21.5 -17.5t-27.5 -10t-43.5 -5t-67.5 -1.5q-34 0 -54 2.5t-27.5 8t-3 14.5t19.5 23l238 214q13 13 27.5 21t32.5 12.5t42 6t58 1.5q32 0 53.5 -1t36 -5t25 -12.5t20.5 -22.5zM-188 1294z" />
    <glyph glyph-name="Itilde" unicode="&#x128;" horiz-adv-x="546" 
d="M319 35q-2 -10 -10 -18t-24.5 -13t-42.5 -7.5t-64 -2.5q-39 0 -63.5 2.5t-38.5 7.5t-19 13t-2 18l245 1224q1 10 9.5 18t25 13t42 7.5t63.5 2.5t62.5 -2.5t39 -7.5t19 -13t2.5 -18zM696 1636q1 8 5.5 13t14 8t25 4t37.5 1q44 0 58 -6.5t14 -19.5q0 -5 -2 -25t-9.5 -47.5
t-22 -58t-41 -56.5t-66 -43t-97.5 -17q-53 0 -91.5 15.5t-69.5 34l-57.5 34t-56.5 15.5q-34 0 -51 -19t-20 -54q-2 -8 -6.5 -13t-14 -7.5t-24.5 -4t-37 -1.5q-44 0 -59 6t-15 22q0 9 2.5 31t11.5 49t25 56t42.5 53.5t65 40t93.5 15.5q53 0 91.5 -15.5t69 -34.5l57.5 -34.5
t56 -15.5q30 0 48.5 16.5t23.5 57.5zM-189 1294z" />
    <glyph glyph-name="Idieresis" unicode="&#xcf;" horiz-adv-x="546" 
d="M319 35q-2 -10 -10 -18t-24.5 -13t-42.5 -7.5t-64 -2.5q-39 0 -63.5 2.5t-38.5 7.5t-19 13t-2 18l245 1224q1 10 9.5 18t25 13t42 7.5t63.5 2.5t62.5 -2.5t39 -7.5t19 -13t2.5 -18zM835 1528q-6 -35 -17.5 -58t-30 -37t-44.5 -19.5t-62 -5.5q-38 0 -61.5 5.5t-36.5 19.5
t-15 37t4 58q7 37 17.5 62t28.5 39.5t44 20.5t64 6q36 0 60 -6t37 -20.5t15.5 -39.5t-3.5 -62zM398 1528q-6 -35 -17 -58t-29.5 -37t-45 -19.5t-61.5 -5.5q-38 0 -62 5.5t-37 19.5t-15 37t5 58q6 37 17 62t28.5 39.5t44 20.5t64.5 6q36 0 59.5 -6t37 -20.5t16 -39.5
t-4.5 -62zM-180 1294z" />
    <glyph glyph-name="Imacron" unicode="&#x12a;" horiz-adv-x="546" 
d="M319 35q-2 -10 -10 -18t-24.5 -13t-42.5 -7.5t-64 -2.5q-39 0 -63.5 2.5t-38.5 7.5t-19 13t-2 18l245 1224q1 10 9.5 18t25 13t42 7.5t63.5 2.5t62.5 -2.5t39 -7.5t19 -13t2.5 -18zM825 1578q0 -8 -1.5 -22t-5 -30t-8.5 -33t-12.5 -31t-17 -22.5t-21.5 -8.5h-590
q-18 0 -25 9t-7 30q0 6 1.5 20t4 30t8 33t13.5 31t18.5 23t24.5 9h590q15 0 21.5 -10t6.5 -28zM-170 1294z" />
    <glyph glyph-name="Ibreve" unicode="&#x12c;" horiz-adv-x="546" 
d="M319 35q-2 -10 -10 -18t-24.5 -13t-42.5 -7.5t-64 -2.5q-39 0 -63.5 2.5t-38.5 7.5t-19 13t-2 18l245 1224q1 10 9.5 18t25 13t42 7.5t63.5 2.5t62.5 -2.5t39 -7.5t19 -13t2.5 -18zM811 1670q0 -11 -5 -36t-19 -56.5t-38 -65.5t-62.5 -62t-92.5 -46t-128 -18
q-77 0 -127.5 16t-81.5 43.5t-43.5 63.5t-12.5 75q0 11 1 26t3 29t6 25.5t9 15.5q8 9 27 13t52 4q25 0 41 -2t25 -6t12.5 -10t3.5 -13q0 -8 -1.5 -18.5t-1.5 -21.5q0 -19 5.5 -34t17.5 -25t31.5 -15.5t47.5 -5.5t52.5 6.5t44.5 20t35 34.5t24 52q3 10 9 17t16.5 12t27.5 7
t42 2t41 -2t24.5 -5t11.5 -8.5t3 -11.5zM-132 1294z" />
    <glyph glyph-name="Idotaccent" unicode="&#x130;" horiz-adv-x="546" 
d="M319 35q-2 -10 -10 -18t-24.5 -13t-42.5 -7.5t-64 -2.5q-39 0 -63.5 2.5t-38.5 7.5t-19 13t-2 18l245 1224q1 10 9.5 18t25 13t42 7.5t63.5 2.5t62.5 -2.5t39 -7.5t19 -13t2.5 -18zM344 1531q7 35 18.5 59t30.5 39t47 21.5t68 6.5t65 -6.5t38 -21.5t14.5 -39t-5.5 -59
q-6 -34 -17.5 -58t-30.5 -39t-47 -21.5t-68 -6.5t-65 6.5t-38 21.5t-15 39t5 58zM29 1294z" />
    <glyph glyph-name="Iogonek" unicode="&#x12e;" horiz-adv-x="546" 
d="M322 -219q0 -11 -2.5 -27t-6.5 -31.5t-9.5 -28.5t-11.5 -19q-7 -7 -24.5 -14t-42 -13t-53.5 -9.5t-60 -3.5q-56 0 -96.5 9.5t-67.5 28.5t-40 46t-13 62q0 22 5 43t17.5 41.5t32.5 42.5t50 47l59 49q-4 4 -5.5 11t0.5 16l246 1229q1 10 9.5 17.5t25 12.5t42.5 7.5t64 2.5
t62.5 -2.5t38.5 -7.5t19 -12.5t3 -17.5l-246 -1229q-3 -14 -10 -26.5t-20 -23.5l-82 -69q-30 -24 -41.5 -41t-11.5 -32t12.5 -24.5t40.5 -9.5h88q14 0 21 -5.5t7 -18.5z" />
    <glyph glyph-name="IJ" unicode="&#x132;" horiz-adv-x="1225" 
d="M319 35q-2 -10 -10 -18t-24.5 -13t-42.5 -7.5t-64 -2.5q-39 0 -63.5 2.5t-38.5 7.5t-19 13t-2 18l245 1224q1 10 9.5 18t25 13t42 7.5t63.5 2.5t62.5 -2.5t39 -7.5t19 -13t2.5 -18zM1062 344q-17 -82 -46 -149.5t-75.5 -115t-112 -73.5t-154.5 -26q-47 0 -89.5 7t-70 19
t-35 22.5t-7.5 29.5q0 8 2 25t6 38t9.5 43.5t12.5 41t15 30t16 11.5q13 0 23 -6l23.5 -13.5t32 -14t47.5 -6.5q30 0 53 8.5t39.5 27t28.5 47.5t20 72l181 898q2 10 9.5 17.5t24 12.5t42.5 7.5t64 2.5q37 0 61.5 -2t39 -7t20 -12.5t3.5 -18.5z" />
    <glyph glyph-name="J" unicode="J" horiz-adv-x="678" 
d="M515 344q-17 -82 -46 -149.5t-75.5 -115t-112 -73.5t-154.5 -26q-47 0 -89.5 7t-70 19t-35 22.5t-7.5 29.5q0 8 2 25t6 38t9.5 43.5t12.5 41t15 30t16 11.5q13 0 23 -6l23.5 -13.5t32 -14t47.5 -6.5q30 0 53 8.5t39.5 27t28.5 47.5t20 72l181 898q2 10 9.5 17.5t24 12.5
t42.5 7.5t64 2.5q37 0 61.5 -2t39 -7t20 -12.5t3.5 -18.5z" />
    <glyph glyph-name="Jcircumflex" unicode="&#x134;" horiz-adv-x="678" 
d="M515 344q-17 -82 -46 -149.5t-75.5 -115t-112 -73.5t-154.5 -26q-47 0 -89.5 7t-70 19t-35 22.5t-7.5 29.5q0 8 2 25t6 38t9.5 43.5t12.5 41t15 30t16 11.5q13 0 23 -6l23.5 -13.5t32 -14t47.5 -6.5q30 0 53 8.5t39.5 27t28.5 47.5t20 72l181 898q2 10 9.5 17.5t24 12.5
t42.5 7.5t64 2.5q37 0 61.5 -2t39 -7t20 -12.5t3.5 -18.5zM915 1434q9 -14 10 -23.5t-9 -15t-31 -7.5t-55 -2q-42 0 -66.5 1.5t-39 5t-21 9.5t-12.5 15l-90 137l-149 -134q-11 -11 -21.5 -17.5t-27.5 -10t-43.5 -5t-67.5 -1.5q-34 0 -54 2.5t-27.5 8t-3 14.5t19.5 23
l238 214q13 13 27.5 21t32.5 12.5t42 6t58 1.5q32 0 53.5 -1t36 -5t25 -12.5t20.5 -22.5zM-84 1294z" />
    <glyph glyph-name="K" unicode="K" horiz-adv-x="1120" 
d="M1223 1258q0 -18 -13 -38t-42 -52l-458 -485l272 -577q8 -20 12 -34.5t4 -26.5q0 -14 -6.5 -23.5t-22.5 -15.5t-43.5 -9t-69.5 -3t-68 2.5t-41 7.5t-22 14t-11 21l-274 613l-121 -616q-2 -11 -10 -18.5t-24.5 -13t-42 -8t-63.5 -2.5q-39 0 -63.5 2.5t-38.5 8t-19 13
t-2 18.5l244 1223q1 11 9 18.5t24.5 12.5t42 7.5t64.5 2.5q38 0 62.5 -2.5t38.5 -7.5t19 -12.5t3 -18.5l-110 -553l480 549q10 12 21.5 21t29.5 14t44 7.5t65 2.5q40 0 65.5 -2.5t39.5 -8t19.5 -13t5.5 -18.5z" />
    <glyph glyph-name="Kcommaaccent" unicode="&#x136;" horiz-adv-x="1120" 
d="M1223 1258q0 -18 -13 -38t-42 -52l-458 -485l272 -577q8 -20 12 -34.5t4 -26.5q0 -14 -6.5 -23.5t-22.5 -15.5t-43.5 -9t-69.5 -3t-68 2.5t-41 7.5t-22 14t-11 21l-274 613l-121 -616q-2 -11 -10 -18.5t-24.5 -13t-42 -8t-63.5 -2.5q-39 0 -63.5 2.5t-38.5 8t-19 13
t-2 18.5l244 1223q1 11 9 18.5t24.5 12.5t42 7.5t64.5 2.5q38 0 62.5 -2.5t38.5 -7.5t19 -12.5t3 -18.5l-110 -553l480 549q10 12 21.5 21t29.5 14t44 7.5t65 2.5q40 0 65.5 -2.5t39.5 -8t19.5 -13t5.5 -18.5zM450 -330q-7 -10 -14.5 -16.5t-20.5 -11t-34 -6t-53 -1.5
q-31 0 -49 2.5t-25.5 9t-7 16.5t7.5 24l88 190q5 11 14 19.5t25 13.5t42.5 7t66.5 2t62.5 -4t31.5 -11.5t7 -18.5t-12 -25z" />
    <glyph glyph-name="L" unicode="L" horiz-adv-x="866" 
d="M788 177q0 -7 -1.5 -22.5t-5 -35.5t-9 -41t-13 -38.5t-17.5 -28.5t-23 -11h-593q-16 0 -29.5 4.5t-22 15t-11.5 26t1 37.5l236 1176q1 10 9 18t24.5 13t42 7.5t64.5 2.5q38 0 63 -2.5t39 -7.5t18.5 -13t2.5 -18l-208 -1042h408q14 0 19.5 -11t5.5 -29z" />
    <glyph glyph-name="Lacute" unicode="&#x139;" horiz-adv-x="866" 
d="M788 177q0 -7 -1.5 -22.5t-5 -35.5t-9 -41t-13 -38.5t-17.5 -28.5t-23 -11h-593q-16 0 -29.5 4.5t-22 15t-11.5 26t1 37.5l236 1176q1 10 9 18t24.5 13t42 7.5t64.5 2.5q38 0 63 -2.5t39 -7.5t18.5 -13t2.5 -18l-208 -1042h408q14 0 19.5 -11t5.5 -29zM647 1421
q-11 -9 -21.5 -15.5t-25 -10.5t-36 -6.5t-52.5 -2.5q-68 0 -83.5 13t10.5 40l189 204q13 14 26 23t31 14t43 7t61 2q47 0 72 -6t34 -15.5t3.5 -21.5t-20.5 -25zM111 1294z" />
    <glyph glyph-name="Lcaron" unicode="&#x13d;" horiz-adv-x="881" 
d="M788 177q0 -7 -1.5 -22.5t-5 -35.5t-9 -41t-13 -38.5t-17.5 -28.5t-23 -11h-593q-16 0 -29.5 4.5t-22 15t-11.5 26t1 37.5l236 1176q1 10 9 18t24.5 13t42 7.5t64.5 2.5q38 0 63 -2.5t39 -7.5t18.5 -13t2.5 -18l-208 -1042h408q14 0 19.5 -11t5.5 -29zM819 1010
q-6 -11 -14 -17.5t-21 -10t-32 -5t-48 -1.5q-23 0 -36 2.5t-19 7.5t-6 14t4 22l116 305q4 12 12.5 20.5t23 14.5t37.5 9t56 3q36 0 57 -3.5t30 -9.5t8.5 -15.5t-7.5 -21.5zM419 960z" />
    <glyph glyph-name="Lcommaaccent" unicode="&#x13b;" horiz-adv-x="866" 
d="M788 177q0 -7 -1.5 -22.5t-5 -35.5t-9 -41t-13 -38.5t-17.5 -28.5t-23 -11h-593q-16 0 -29.5 4.5t-22 15t-11.5 26t1 37.5l236 1176q1 10 9 18t24.5 13t42 7.5t64.5 2.5q38 0 63 -2.5t39 -7.5t18.5 -13t2.5 -18l-208 -1042h408q14 0 19.5 -11t5.5 -29zM354 -330
q-7 -10 -14.5 -16.5t-20.5 -11t-34 -6t-53 -1.5q-31 0 -49 2.5t-25.5 9t-7 16.5t7.5 24l88 190q5 11 14 19.5t25 13.5t42.5 7t66.5 2t62.5 -4t31.5 -11.5t7 -18.5t-12 -25z" />
    <glyph glyph-name="Lslash" unicode="&#x141;" horiz-adv-x="886" 
d="M808 177q0 -6 -1.5 -21.5t-5 -35.5t-9 -41t-13.5 -38.5t-18.5 -29t-23.5 -11.5h-593q-35 0 -52.5 20.5t-8.5 62.5l79 393l-102 -58q-23 -14 -31 -6.5t-8 31.5q0 8 1.5 23.5t4.5 34t8.5 38.5t12.5 38t16.5 32.5t22.5 21.5l119 66l113 563q1 10 9 17.5t24.5 12.5t42.5 7.5
t65 2.5q38 0 62.5 -2.5t38.5 -7.5t18.5 -12.5t2.5 -17.5l-80 -397l208 115q22 13 30.5 4.5t8.5 -30.5q0 -7 -1.5 -21.5t-4.5 -33t-7.5 -38.5t-11.5 -38t-16 -32.5t-20 -20.5l-230 -127l-85 -424h409q14 0 20 -12t6 -28z" />
    <glyph glyph-name="Ldot" unicode="&#x13f;" horiz-adv-x="1150" 
d="M788 177q0 -7 -1.5 -22.5t-5 -35.5t-9 -41t-13 -38.5t-17.5 -28.5t-23 -11h-593q-16 0 -29.5 4.5t-22 15t-11.5 26t1 37.5l236 1176q1 10 9 18t24.5 13t42 7.5t64.5 2.5q38 0 63 -2.5t39 -7.5t18.5 -13t2.5 -18l-208 -1042h408q14 0 19.5 -11t5.5 -29zM1091 730
q0 -22 -4 -47.5t-11.5 -50t-18 -46.5t-24.5 -36q-21 -21 -55 -29t-73 -8q-36 0 -60.5 5.5t-39 17.5t-20.5 28.5t-6 38.5q0 20 4.5 45.5t12 51.5t17.5 47.5t23 33.5q18 18 48 29t82 11q36 0 60.5 -5.5t39 -17t20 -28.5t5.5 -40z" />
    <glyph glyph-name="M" unicode="M" horiz-adv-x="1790" 
d="M1563 35q-3 -10 -9 -18t-20.5 -13t-39.5 -7.5t-62 -2.5q-39 0 -63 2.5t-37 7.5t-16.5 13t-1.5 18l210 1053h-2l-587 -1052q-12 -25 -46.5 -33.5t-97.5 -8.5q-65 0 -93.5 11.5t-29.5 28.5l-152 1055h-2l-211 -1054q-2 -10 -8.5 -18t-21 -13t-39 -7.5t-62.5 -2.5t-62 2.5
t-37 7.5t-17 13t-1 18l230 1153q5 25 15.5 45t26 33.5t35.5 20.5t43 7h164q44 0 75 -7.5t51 -25.5t30.5 -47t14.5 -70l125 -770h5l444 770q20 39 40 67.5t44.5 47t54.5 27t71 8.5h186q25 0 43 -7t28.5 -20.5t13 -33t-1.5 -44.5z" />
    <glyph glyph-name="N" unicode="N" horiz-adv-x="1344" 
d="M1127 92q-4 -23 -15.5 -41t-27 -30t-34 -17.5t-38.5 -5.5h-112q-36 0 -59 7t-39.5 25t-29.5 49t-27 79l-191 578q-22 67 -40.5 135l-35.5 135h-2q-10 -79 -23 -155.5t-29 -153.5l-132 -661q-2 -10 -9.5 -18t-22.5 -13t-38.5 -8t-58.5 -3t-57.5 3t-34.5 8t-15.5 13
t-0.5 18l233 1164q9 47 41 70.5t72 23.5h137q33 0 56.5 -7.5t40 -24t29 -42.5t23.5 -64l193 -583q19 -56 34.5 -111l32.5 -110h2q11 72 24.5 148.5l27.5 148.5l123 610q2 10 9 17.5t21.5 12t37.5 7t58 2.5t58 -2.5t35 -7t16 -12t2 -17.5z" />
    <glyph glyph-name="Nacute" unicode="&#x143;" horiz-adv-x="1344" 
d="M1127 92q-4 -23 -15.5 -41t-27 -30t-34 -17.5t-38.5 -5.5h-112q-36 0 -59 7t-39.5 25t-29.5 49t-27 79l-191 578q-22 67 -40.5 135l-35.5 135h-2q-10 -79 -23 -155.5t-29 -153.5l-132 -661q-2 -10 -9.5 -18t-22.5 -13t-38.5 -8t-58.5 -3t-57.5 3t-34.5 8t-15.5 13
t-0.5 18l233 1164q9 47 41 70.5t72 23.5h137q33 0 56.5 -7.5t40 -24t29 -42.5t23.5 -64l193 -583q19 -56 34.5 -111l32.5 -110h2q11 72 24.5 148.5l27.5 148.5l123 610q2 10 9 17.5t21.5 12t37.5 7t58 2.5t58 -2.5t35 -7t16 -12t2 -17.5zM999 1421q-11 -9 -21.5 -15.5
t-25 -10.5t-36 -6.5t-52.5 -2.5q-68 0 -83.5 13t10.5 40l189 204q13 14 26 23t31 14t43 7t61 2q47 0 72 -6t34 -15.5t3.5 -21.5t-20.5 -25zM463 1294z" />
    <glyph glyph-name="Ncaron" unicode="&#x147;" horiz-adv-x="1344" 
d="M1127 92q-4 -23 -15.5 -41t-27 -30t-34 -17.5t-38.5 -5.5h-112q-36 0 -59 7t-39.5 25t-29.5 49t-27 79l-191 578q-22 67 -40.5 135l-35.5 135h-2q-10 -79 -23 -155.5t-29 -153.5l-132 -661q-2 -10 -9.5 -18t-22.5 -13t-38.5 -8t-58.5 -3t-57.5 3t-34.5 8t-15.5 13
t-0.5 18l233 1164q9 47 41 70.5t72 23.5h137q33 0 56.5 -7.5t40 -24t29 -42.5t23.5 -64l193 -583q19 -56 34.5 -111l32.5 -110h2q11 72 24.5 148.5l27.5 148.5l123 610q2 10 9 17.5t21.5 12t37.5 7t58 2.5t58 -2.5t35 -7t16 -12t2 -17.5zM1023 1427q-13 -13 -28 -21
t-33.5 -12t-42.5 -6t-58 -2q-32 0 -53 1t-36 5.5t-25 13t-20 21.5l-156 214q-10 15 -11 24.5t9 14.5t31.5 7t55.5 2q42 0 66.5 -1.5t38 -5t20 -9.5t12.5 -15l91 -137l149 135q11 9 21.5 15.5t28 10.5t44 5.5t68.5 1.5q34 0 53.5 -2.5t27 -8t3 -15t-18.5 -22.5zM218 1294z
" />
    <glyph glyph-name="Ntilde" unicode="&#xd1;" horiz-adv-x="1344" 
d="M1127 92q-4 -23 -15.5 -41t-27 -30t-34 -17.5t-38.5 -5.5h-112q-36 0 -59 7t-39.5 25t-29.5 49t-27 79l-191 578q-22 67 -40.5 135l-35.5 135h-2q-10 -79 -23 -155.5t-29 -153.5l-132 -661q-2 -10 -9.5 -18t-22.5 -13t-38.5 -8t-58.5 -3t-57.5 3t-34.5 8t-15.5 13
t-0.5 18l233 1164q9 47 41 70.5t72 23.5h137q33 0 56.5 -7.5t40 -24t29 -42.5t23.5 -64l193 -583q19 -56 34.5 -111l32.5 -110h2q11 72 24.5 148.5l27.5 148.5l123 610q2 10 9 17.5t21.5 12t37.5 7t58 2.5t58 -2.5t35 -7t16 -12t2 -17.5zM1093 1636q1 8 5.5 13t14 8t25 4
t37.5 1q44 0 58 -6.5t14 -19.5q0 -5 -2 -25t-9.5 -47.5t-22 -58t-41 -56.5t-66 -43t-97.5 -17q-53 0 -91.5 15.5t-69.5 34l-57.5 34t-56.5 15.5q-34 0 -51 -19t-20 -54q-2 -8 -6.5 -13t-14 -7.5t-24.5 -4t-37 -1.5q-44 0 -59 6t-15 22q0 9 2.5 31t11.5 49t25 56t42.5 53.5
t65 40t93.5 15.5q53 0 91.5 -15.5t69 -34.5l57.5 -34.5t56 -15.5q30 0 48.5 16.5t23.5 57.5zM208 1294z" />
    <glyph glyph-name="Ncommaaccent" unicode="&#x145;" horiz-adv-x="1344" 
d="M1127 92q-4 -23 -15.5 -41t-27 -30t-34 -17.5t-38.5 -5.5h-112q-36 0 -59 7t-39.5 25t-29.5 49t-27 79l-191 578q-22 67 -40.5 135l-35.5 135h-2q-10 -79 -23 -155.5t-29 -153.5l-132 -661q-2 -10 -9.5 -18t-22.5 -13t-38.5 -8t-58.5 -3t-57.5 3t-34.5 8t-15.5 13
t-0.5 18l233 1164q9 47 41 70.5t72 23.5h137q33 0 56.5 -7.5t40 -24t29 -42.5t23.5 -64l193 -583q19 -56 34.5 -111l32.5 -110h2q11 72 24.5 148.5l27.5 148.5l123 610q2 10 9 17.5t21.5 12t37.5 7t58 2.5t58 -2.5t35 -7t16 -12t2 -17.5zM517 -330q-7 -10 -14.5 -16.5
t-20.5 -11t-34 -6t-53 -1.5q-31 0 -49 2.5t-25.5 9t-7 16.5t7.5 24l88 190q5 11 14 19.5t25 13.5t42.5 7t66.5 2t62.5 -4t31.5 -11.5t7 -18.5t-12 -25z" />
    <glyph glyph-name="Eng" unicode="&#x14a;" horiz-adv-x="1305" 
d="M1069 0q-18 -89 -46.5 -157t-72.5 -114.5t-105.5 -70t-145.5 -23.5q-60 0 -104 9t-57 22q-5 5 -7 12t-2 17q0 9 1.5 24t4.5 32.5t7.5 35.5t10.5 32.5t13 24t16 9.5t16 -3t17 -6.5t24.5 -6.5t38.5 -3q27 0 48 7t36.5 22.5t27 40.5t19.5 60l9 36l-265 703
q-22 60 -42.5 123.5t-37.5 125.5h-2q-13 -83 -29.5 -172.5l-34.5 -182.5l-112 -563q-2 -10 -9 -17.5t-22 -12.5t-38 -7.5t-58 -2.5q-36 0 -59 2.5t-36 7.5t-17 12.5t-1 17.5l233 1166q10 47 38.5 70.5t68.5 23.5h127q22 0 39 -4.5t30.5 -15t24.5 -27.5t21 -42l182 -481
l53 -150t49 -152h2l13 85l14.5 87t15.5 84.5l15 77.5l99 501q2 10 9 18t21.5 13t37.5 7.5t59 2.5q35 0 58 -2.5t35.5 -7.5t17 -13t2.5 -18z" />
    <glyph glyph-name="O" unicode="O" horiz-adv-x="1369" 
d="M1345 861q0 -88 -16 -188t-51.5 -198.5t-93.5 -188.5t-141 -158.5t-195 -109.5t-255 -41q-121 0 -213.5 27t-156 83t-96 141t-32.5 200q0 94 16.5 196.5t53 201t95.5 187.5t142 157t194 107.5t252 39.5q121 0 213.5 -27.5t155.5 -84t95.5 -142.5t32.5 -202zM1067 836
q0 61 -13.5 110.5t-43.5 83.5t-78.5 52.5t-118.5 18.5q-87 0 -153 -33.5t-115 -87.5t-82 -123.5t-53 -141t-28.5 -139.5t-8.5 -119q0 -62 13.5 -111t44 -82.5t79 -51.5t119.5 -18q86 0 152 33t114.5 86.5t81.5 122.5t53 140t28.5 139t8.5 121z" />
    <glyph glyph-name="Ograve" unicode="&#xd2;" horiz-adv-x="1369" 
d="M1345 861q0 -88 -16 -188t-51.5 -198.5t-93.5 -188.5t-141 -158.5t-195 -109.5t-255 -41q-121 0 -213.5 27t-156 83t-96 141t-32.5 200q0 94 16.5 196.5t53 201t95.5 187.5t142 157t194 107.5t252 39.5q121 0 213.5 -27.5t155.5 -84t95.5 -142.5t32.5 -202zM1067 836
q0 61 -13.5 110.5t-43.5 83.5t-78.5 52.5t-118.5 18.5q-87 0 -153 -33.5t-115 -87.5t-82 -123.5t-53 -141t-28.5 -139.5t-8.5 -119q0 -62 13.5 -111t44 -82.5t79 -51.5t119.5 -18q86 0 152 33t114.5 86.5t81.5 122.5t53 140t28.5 139t8.5 121zM959 1439q11 -14 13.5 -24
t-7 -16.5t-30 -9.5t-53.5 -3q-31 0 -52 2t-35.5 6.5t-25 11t-20.5 15.5l-214 200q-14 13 -18 25t6 21.5t36 15.5t71 6q37 0 61.5 -1.5t42.5 -6.5t30 -14t24 -24zM194 1294z" />
    <glyph glyph-name="Oacute" unicode="&#xd3;" horiz-adv-x="1369" 
d="M1345 861q0 -88 -16 -188t-51.5 -198.5t-93.5 -188.5t-141 -158.5t-195 -109.5t-255 -41q-121 0 -213.5 27t-156 83t-96 141t-32.5 200q0 94 16.5 196.5t53 201t95.5 187.5t142 157t194 107.5t252 39.5q121 0 213.5 -27.5t155.5 -84t95.5 -142.5t32.5 -202zM1067 836
q0 61 -13.5 110.5t-43.5 83.5t-78.5 52.5t-118.5 18.5q-87 0 -153 -33.5t-115 -87.5t-82 -123.5t-53 -141t-28.5 -139.5t-8.5 -119q0 -62 13.5 -111t44 -82.5t79 -51.5t119.5 -18q86 0 152 33t114.5 86.5t81.5 122.5t53 140t28.5 139t8.5 121zM954 1421q-11 -9 -21.5 -15.5
t-25 -10.5t-36 -6.5t-52.5 -2.5q-68 0 -83.5 13t10.5 40l189 204q13 14 26 23t31 14t43 7t61 2q47 0 72 -6t34 -15.5t3.5 -21.5t-20.5 -25zM418 1294z" />
    <glyph glyph-name="Ocircumflex" unicode="&#xd4;" horiz-adv-x="1369" 
d="M1345 861q0 -88 -16 -188t-51.5 -198.5t-93.5 -188.5t-141 -158.5t-195 -109.5t-255 -41q-121 0 -213.5 27t-156 83t-96 141t-32.5 200q0 94 16.5 196.5t53 201t95.5 187.5t142 157t194 107.5t252 39.5q121 0 213.5 -27.5t155.5 -84t95.5 -142.5t32.5 -202zM1067 836
q0 61 -13.5 110.5t-43.5 83.5t-78.5 52.5t-118.5 18.5q-87 0 -153 -33.5t-115 -87.5t-82 -123.5t-53 -141t-28.5 -139.5t-8.5 -119q0 -62 13.5 -111t44 -82.5t79 -51.5t119.5 -18q86 0 152 33t114.5 86.5t81.5 122.5t53 140t28.5 139t8.5 121zM1217 1434q9 -14 10 -23.5
t-9 -15t-31 -7.5t-55 -2q-42 0 -66.5 1.5t-39 5t-21 9.5t-12.5 15l-90 137l-149 -134q-11 -11 -21.5 -17.5t-27.5 -10t-43.5 -5t-67.5 -1.5q-34 0 -54 2.5t-27.5 8t-3 14.5t19.5 23l238 214q13 13 27.5 21t32.5 12.5t42 6t58 1.5q32 0 53.5 -1t36 -5t25 -12.5t20.5 -22.5z
M218 1294z" />
    <glyph glyph-name="Otilde" unicode="&#xd5;" horiz-adv-x="1369" 
d="M1345 861q0 -88 -16 -188t-51.5 -198.5t-93.5 -188.5t-141 -158.5t-195 -109.5t-255 -41q-121 0 -213.5 27t-156 83t-96 141t-32.5 200q0 94 16.5 196.5t53 201t95.5 187.5t142 157t194 107.5t252 39.5q121 0 213.5 -27.5t155.5 -84t95.5 -142.5t32.5 -202zM1067 836
q0 61 -13.5 110.5t-43.5 83.5t-78.5 52.5t-118.5 18.5q-87 0 -153 -33.5t-115 -87.5t-82 -123.5t-53 -141t-28.5 -139.5t-8.5 -119q0 -62 13.5 -111t44 -82.5t79 -51.5t119.5 -18q86 0 152 33t114.5 86.5t81.5 122.5t53 140t28.5 139t8.5 121zM1109 1636q1 8 5.5 13t14 8
t25 4t37.5 1q44 0 58 -6.5t14 -19.5q0 -5 -2 -25t-9.5 -47.5t-22 -58t-41 -56.5t-66 -43t-97.5 -17q-53 0 -91.5 15.5t-69.5 34l-57.5 34t-56.5 15.5q-34 0 -51 -19t-20 -54q-2 -8 -6.5 -13t-14 -7.5t-24.5 -4t-37 -1.5q-44 0 -59 6t-15 22q0 9 2.5 31t11.5 49t25 56
t42.5 53.5t65 40t93.5 15.5q53 0 91.5 -15.5t69 -34.5l57.5 -34.5t56 -15.5q30 0 48.5 16.5t23.5 57.5zM224 1294z" />
    <glyph glyph-name="Odieresis" unicode="&#xd6;" horiz-adv-x="1369" 
d="M1345 861q0 -88 -16 -188t-51.5 -198.5t-93.5 -188.5t-141 -158.5t-195 -109.5t-255 -41q-121 0 -213.5 27t-156 83t-96 141t-32.5 200q0 94 16.5 196.5t53 201t95.5 187.5t142 157t194 107.5t252 39.5q121 0 213.5 -27.5t155.5 -84t95.5 -142.5t32.5 -202zM1067 836
q0 61 -13.5 110.5t-43.5 83.5t-78.5 52.5t-118.5 18.5q-87 0 -153 -33.5t-115 -87.5t-82 -123.5t-53 -141t-28.5 -139.5t-8.5 -119q0 -62 13.5 -111t44 -82.5t79 -51.5t119.5 -18q86 0 152 33t114.5 86.5t81.5 122.5t53 140t28.5 139t8.5 121zM1252 1528q-6 -35 -17.5 -58
t-30 -37t-44.5 -19.5t-62 -5.5q-38 0 -61.5 5.5t-36.5 19.5t-15 37t4 58q7 37 17.5 62t28.5 39.5t44 20.5t64 6q36 0 60 -6t37 -20.5t15.5 -39.5t-3.5 -62zM815 1528q-6 -35 -17 -58t-29.5 -37t-45 -19.5t-61.5 -5.5q-38 0 -62 5.5t-37 19.5t-15 37t5 58q6 37 17 62
t28.5 39.5t44 20.5t64.5 6q36 0 59.5 -6t37 -20.5t16 -39.5t-4.5 -62zM237 1294z" />
    <glyph glyph-name="Omacron" unicode="&#x14c;" horiz-adv-x="1369" 
d="M1345 861q0 -88 -16 -188t-51.5 -198.5t-93.5 -188.5t-141 -158.5t-195 -109.5t-255 -41q-121 0 -213.5 27t-156 83t-96 141t-32.5 200q0 94 16.5 196.5t53 201t95.5 187.5t142 157t194 107.5t252 39.5q121 0 213.5 -27.5t155.5 -84t95.5 -142.5t32.5 -202zM1067 836
q0 61 -13.5 110.5t-43.5 83.5t-78.5 52.5t-118.5 18.5q-87 0 -153 -33.5t-115 -87.5t-82 -123.5t-53 -141t-28.5 -139.5t-8.5 -119q0 -62 13.5 -111t44 -82.5t79 -51.5t119.5 -18q86 0 152 33t114.5 86.5t81.5 122.5t53 140t28.5 139t8.5 121zM1244 1578q0 -8 -1.5 -22
t-5 -30t-8.5 -33t-12.5 -31t-17 -22.5t-21.5 -8.5h-590q-18 0 -25 9t-7 30q0 6 1.5 20t4 30t8 33t13.5 31t18.5 23t24.5 9h590q15 0 21.5 -10t6.5 -28zM249 1294z" />
    <glyph glyph-name="Obreve" unicode="&#x14e;" horiz-adv-x="1369" 
d="M1345 861q0 -88 -16 -188t-51.5 -198.5t-93.5 -188.5t-141 -158.5t-195 -109.5t-255 -41q-121 0 -213.5 27t-156 83t-96 141t-32.5 200q0 94 16.5 196.5t53 201t95.5 187.5t142 157t194 107.5t252 39.5q121 0 213.5 -27.5t155.5 -84t95.5 -142.5t32.5 -202zM1067 836
q0 61 -13.5 110.5t-43.5 83.5t-78.5 52.5t-118.5 18.5q-87 0 -153 -33.5t-115 -87.5t-82 -123.5t-53 -141t-28.5 -139.5t-8.5 -119q0 -62 13.5 -111t44 -82.5t79 -51.5t119.5 -18q86 0 152 33t114.5 86.5t81.5 122.5t53 140t28.5 139t8.5 121zM1228 1670q0 -11 -5 -36
t-19 -56.5t-38 -65.5t-62.5 -62t-92.5 -46t-128 -18q-77 0 -127.5 16t-81.5 43.5t-43.5 63.5t-12.5 75q0 11 1 26t3 29t6 25.5t9 15.5q8 9 27 13t52 4q25 0 41 -2t25 -6t12.5 -10t3.5 -13q0 -8 -1.5 -18.5t-1.5 -21.5q0 -19 5.5 -34t17.5 -25t31.5 -15.5t47.5 -5.5t52.5 6.5
t44.5 20t35 34.5t24 52q3 10 9 17t16.5 12t27.5 7t42 2t41 -2t24.5 -5t11.5 -8.5t3 -11.5zM285 1294z" />
    <glyph glyph-name="Ohungarumlaut" unicode="&#x150;" horiz-adv-x="1369" 
d="M1345 861q0 -88 -16 -188t-51.5 -198.5t-93.5 -188.5t-141 -158.5t-195 -109.5t-255 -41q-121 0 -213.5 27t-156 83t-96 141t-32.5 200q0 94 16.5 196.5t53 201t95.5 187.5t142 157t194 107.5t252 39.5q121 0 213.5 -27.5t155.5 -84t95.5 -142.5t32.5 -202zM1067 836
q0 61 -13.5 110.5t-43.5 83.5t-78.5 52.5t-118.5 18.5q-87 0 -153 -33.5t-115 -87.5t-82 -123.5t-53 -141t-28.5 -139.5t-8.5 -119q0 -62 13.5 -111t44 -82.5t79 -51.5t119.5 -18q86 0 152 33t114.5 86.5t81.5 122.5t53 140t28.5 139t8.5 121zM1203 1411q-10 -9 -20 -14
t-24 -7.5t-33.5 -3t-49.5 -0.5q-31 0 -51 2.5t-30 7.5t-10.5 12.5t7.5 16.5l193 236q7 9 17 15.5t28 11.5t45 7t69 2q49 0 78 -3.5t40.5 -10.5t8.5 -17t-17 -22zM770 1409q-8 -8 -17.5 -12.5t-23 -7t-33 -3t-46.5 -0.5q-54 0 -69.5 11t-0.5 32l175 232q8 10 19 16.5t28 11
t41.5 6.5t57.5 2q54 0 84 -3t42 -10t8 -16.5t-18 -22.5zM260 1294z" />
    <glyph glyph-name="Oslash" unicode="&#xd8;" horiz-adv-x="1387" 
d="M227 85q-63 55 -97.5 139.5t-34.5 203.5q0 81 13.5 177.5t46.5 195.5t89 192t141 165t202.5 115.5t274.5 43.5q52 0 102 -7.5t89 -21.5l131 191q12 17 40.5 24t85.5 7q38 0 60 -4.5t31.5 -12t8 -18t-10.5 -23.5l-169 -245q64 -54 98.5 -139t34.5 -202q0 -80 -13.5 -177
t-47 -196t-89.5 -192t-141 -165t-202.5 -115.5t-272.5 -43.5q-61 0 -108.5 6.5t-83.5 20.5l-135 -196q-10 -17 -39.5 -24t-83.5 -7q-39 0 -61.5 4.5t-32.5 12t-9 18t10 23.5zM532 204q21 -9 47.5 -14t56.5 -5q97 0 168.5 37t122.5 96t84 133t51.5 148t25.5 139.5t7 109.5
q0 36 -7 69t-25 58zM926 1090q-22 10 -48.5 14.5t-56.5 4.5q-72 0 -130.5 -21t-104.5 -57.5t-80 -85t-59 -102.5t-41.5 -110.5t-26 -109t-13.5 -98.5t-4 -78q0 -37 7.5 -70t24.5 -58z" />
    <glyph glyph-name="Oslashacute" unicode="&#x1fe;" horiz-adv-x="1387" 
d="M227 85q-63 55 -97.5 139.5t-34.5 203.5q0 81 13.5 177.5t46.5 195.5t89 192t141 165t202.5 115.5t274.5 43.5q52 0 102 -7.5t89 -21.5l131 191q12 17 40.5 24t85.5 7q38 0 60 -4.5t31.5 -12t8 -18t-10.5 -23.5l-169 -245q64 -54 98.5 -139t34.5 -202q0 -80 -13.5 -177
t-47 -196t-89.5 -192t-141 -165t-202.5 -115.5t-272.5 -43.5q-61 0 -108.5 6.5t-83.5 20.5l-135 -196q-10 -17 -39.5 -24t-83.5 -7q-39 0 -61.5 4.5t-32.5 12t-9 18t10 23.5zM532 204q21 -9 47.5 -14t56.5 -5q97 0 168.5 37t122.5 96t84 133t51.5 148t25.5 139.5t7 109.5
q0 36 -7 69t-25 58zM926 1090q-22 10 -48.5 14.5t-56.5 4.5q-72 0 -130.5 -21t-104.5 -57.5t-80 -85t-59 -102.5t-41.5 -110.5t-26 -109t-13.5 -98.5t-4 -78q0 -37 7.5 -70t24.5 -58zM879 1421q-11 -9 -21.5 -15.5t-25 -10.5t-36 -6.5t-52.5 -2.5q-68 0 -83.5 13t10.5 40
l189 204q13 14 26 23t31 14t43 7t61 2q47 0 72 -6t34 -15.5t3.5 -21.5t-20.5 -25zM343 1294z" />
    <glyph glyph-name="OE" unicode="&#x152;" horiz-adv-x="1790" 
d="M1631 165q0 -6 -1 -20.5t-4.5 -33t-8.5 -38t-12.5 -36t-17 -27t-21.5 -10.5h-634q-10 0 -19.5 2t-16.5 6.5t-12 12t-6 17.5q-62 -30 -133 -45.5t-148 -15.5q-101 0 -177.5 17t-132 48t-92.5 73t-59.5 91.5t-31.5 105t-9 111.5q0 99 17 203.5t54 204t96 188t143.5 154.5
t196.5 105t254 39q39 0 77.5 -4t73 -11t65 -16.5t51.5 -21.5q12 17 28.5 23.5t35.5 6.5h632q16 0 21 -11.5t5 -30.5q0 -7 -1.5 -22t-5 -33t-8.5 -37t-12.5 -35t-17.5 -26.5t-22 -10.5h-462l-63 -317h390q15 0 21 -10.5t6 -30.5q0 -7 -1.5 -21.5t-5 -32.5t-9 -37.5t-12.5 -35
t-16.5 -25.5t-22.5 -10h-391l-72 -362h466q15 0 20 -11.5t5 -29.5zM1044 1030q-47 35 -102.5 53t-123.5 18q-91 0 -159.5 -35t-118 -91.5t-82 -127t-51.5 -142t-26.5 -137t-7.5 -110.5q0 -68 15 -117.5t47 -82t80.5 -48.5t115.5 -16q33 0 65.5 4.5t65 14.5t65.5 25.5
t66 37.5z" />
    <glyph glyph-name="P" unicode="P" horiz-adv-x="1090" 
d="M1120 977q0 -56 -12.5 -117t-40.5 -119.5t-72.5 -111t-109 -93t-149.5 -64t-200 -23.5h-135l-83 -414q-2 -10 -10 -18t-25 -13t-43 -7.5t-64 -2.5q-37 0 -61.5 2.5t-38.5 7.5t-19 12.5t-2 18.5l233 1165q9 47 39 70.5t74 23.5h283q52 0 93 -3.5t81 -11.5
q61 -12 109.5 -37t82.5 -62.5t52 -88t18 -114.5zM843 947q0 48 -23 83t-71 49q-21 7 -47 9.5t-58 2.5h-116l-86 -439h120q57 0 97.5 13.5t71 35.5t52 52t35 63t19.5 66.5t6 64.5z" />
    <glyph glyph-name="Thorn" unicode="&#xde;" horiz-adv-x="1090" 
d="M1079 778q0 -59 -12.5 -121.5t-40.5 -122t-73 -112.5t-109.5 -93t-150.5 -63.5t-204 -23.5h-130l-43 -212q-2 -10 -10 -17.5t-24.5 -12.5t-42 -7t-63.5 -2q-39 0 -63.5 2t-38.5 7t-18.5 12.5t-2.5 17.5l247 1232q1 10 9 17.5t24 12.5t41.5 7.5t64.5 2.5q38 0 63 -2.5
t39 -7.5t19 -12.5t3 -17.5l-34 -175h115q53 0 94.5 -3.5t80.5 -11.5q68 -13 117.5 -42t81 -68.5t46.5 -86.5t15 -97zM801 734q0 25 -5.5 47t-17 40t-29.5 31t-43 21q-22 7 -49.5 9.5t-62.5 2.5h-106l-88 -439h124q84 0 136 30.5t83 74.5t44.5 94t13.5 89z" />
    <glyph glyph-name="Q" unicode="Q" horiz-adv-x="1387" 
d="M1304 -53q0 -9 -2 -26t-6 -37t-10 -40.5t-14 -37t-17.5 -27t-21.5 -10.5q-10 0 -32.5 5.5t-53.5 18t-68.5 32.5t-76.5 49t-78 66.5t-73 85.5q-53 -24 -116.5 -36.5t-141.5 -12.5q-121 0 -214 27t-156 83t-95.5 141t-32.5 200q0 94 16.5 196.5t53 201t95 187.5t142 157
t194 107.5t252.5 39.5q120 0 213 -27.5t156 -84t95.5 -142.5t32.5 -202q0 -57 -6.5 -120t-20.5 -127t-36.5 -128.5t-54 -126t-74 -117t-96.5 -104.5q47 -49 87 -76t70.5 -42.5t51 -22.5t27.5 -14t9 -14t2 -22zM1067 836q0 61 -13.5 110.5t-43.5 83.5t-79 52.5t-118 18.5
q-87 0 -153.5 -33.5t-115 -87.5t-81.5 -123.5t-53 -141t-28.5 -139.5t-8.5 -119q0 -62 13.5 -111t44 -82.5t79 -51.5t118.5 -18q86 0 152 33t114.5 86.5t82 122.5t53.5 140t28.5 139t8.5 121z" />
    <glyph glyph-name="R" unicode="R" horiz-adv-x="1153" 
d="M1135 1012q0 -64 -17.5 -127t-55.5 -119t-98.5 -101t-147.5 -72q48 -19 80.5 -75.5t53.5 -154.5l53 -263q4 -22 6.5 -39.5t2.5 -29.5q0 -10 -6.5 -17t-23.5 -11.5t-46.5 -6.5t-74.5 -2q-42 0 -67.5 2.5t-39.5 8t-18.5 14.5t-6.5 21l-50 287q-8 50 -21.5 88t-34.5 63.5
t-51.5 38t-72.5 12.5h-82l-99 -494q-2 -10 -10 -18t-24.5 -13t-42.5 -7.5t-64 -2.5t-62.5 2.5t-38.5 7.5t-19 12.5t-2 18.5l236 1176q8 44 35.5 63.5t63.5 19.5h347q91 0 164.5 -17t125.5 -52t80 -88t28 -125zM853 963q0 28 -9.5 52t-30.5 41.5t-54.5 27t-80.5 9.5h-149
l-73 -367h125q75 0 127 21.5t84 55.5t46.5 75.5t14.5 84.5z" />
    <glyph glyph-name="Racute" unicode="&#x154;" horiz-adv-x="1153" 
d="M1135 1012q0 -64 -17.5 -127t-55.5 -119t-98.5 -101t-147.5 -72q48 -19 80.5 -75.5t53.5 -154.5l53 -263q4 -22 6.5 -39.5t2.5 -29.5q0 -10 -6.5 -17t-23.5 -11.5t-46.5 -6.5t-74.5 -2q-42 0 -67.5 2.5t-39.5 8t-18.5 14.5t-6.5 21l-50 287q-8 50 -21.5 88t-34.5 63.5
t-51.5 38t-72.5 12.5h-82l-99 -494q-2 -10 -10 -18t-24.5 -13t-42.5 -7.5t-64 -2.5t-62.5 2.5t-38.5 7.5t-19 12.5t-2 18.5l236 1176q8 44 35.5 63.5t63.5 19.5h347q91 0 164.5 -17t125.5 -52t80 -88t28 -125zM853 963q0 28 -9.5 52t-30.5 41.5t-54.5 27t-80.5 9.5h-149
l-73 -367h125q75 0 127 21.5t84 55.5t46.5 75.5t14.5 84.5zM829 1421q-11 -9 -21.5 -15.5t-25 -10.5t-36 -6.5t-52.5 -2.5q-68 0 -83.5 13t10.5 40l189 204q13 14 26 23t31 14t43 7t61 2q47 0 72 -6t34 -15.5t3.5 -21.5t-20.5 -25zM293 1294z" />
    <glyph glyph-name="Rcaron" unicode="&#x158;" horiz-adv-x="1153" 
d="M1135 1012q0 -64 -17.5 -127t-55.5 -119t-98.5 -101t-147.5 -72q48 -19 80.5 -75.5t53.5 -154.5l53 -263q4 -22 6.5 -39.5t2.5 -29.5q0 -10 -6.5 -17t-23.5 -11.5t-46.5 -6.5t-74.5 -2q-42 0 -67.5 2.5t-39.5 8t-18.5 14.5t-6.5 21l-50 287q-8 50 -21.5 88t-34.5 63.5
t-51.5 38t-72.5 12.5h-82l-99 -494q-2 -10 -10 -18t-24.5 -13t-42.5 -7.5t-64 -2.5t-62.5 2.5t-38.5 7.5t-19 12.5t-2 18.5l236 1176q8 44 35.5 63.5t63.5 19.5h347q91 0 164.5 -17t125.5 -52t80 -88t28 -125zM853 963q0 28 -9.5 52t-30.5 41.5t-54.5 27t-80.5 9.5h-149
l-73 -367h125q75 0 127 21.5t84 55.5t46.5 75.5t14.5 84.5zM884 1427q-13 -13 -28 -21t-33.5 -12t-42.5 -6t-58 -2q-32 0 -53 1t-36 5.5t-25 13t-20 21.5l-156 214q-10 15 -11 24.5t9 14.5t31.5 7t55.5 2q42 0 66.5 -1.5t38 -5t20 -9.5t12.5 -15l91 -137l149 135
q11 9 21.5 15.5t28 10.5t44 5.5t68.5 1.5q34 0 53.5 -2.5t27 -8t3 -15t-18.5 -22.5zM79 1294z" />
    <glyph glyph-name="Rcommaaccent" unicode="&#x156;" horiz-adv-x="1153" 
d="M1135 1012q0 -64 -17.5 -127t-55.5 -119t-98.5 -101t-147.5 -72q48 -19 80.5 -75.5t53.5 -154.5l53 -263q4 -22 6.5 -39.5t2.5 -29.5q0 -10 -6.5 -17t-23.5 -11.5t-46.5 -6.5t-74.5 -2q-42 0 -67.5 2.5t-39.5 8t-18.5 14.5t-6.5 21l-50 287q-8 50 -21.5 88t-34.5 63.5
t-51.5 38t-72.5 12.5h-82l-99 -494q-2 -10 -10 -18t-24.5 -13t-42.5 -7.5t-64 -2.5t-62.5 2.5t-38.5 7.5t-19 12.5t-2 18.5l236 1176q8 44 35.5 63.5t63.5 19.5h347q91 0 164.5 -17t125.5 -52t80 -88t28 -125zM853 963q0 28 -9.5 52t-30.5 41.5t-54.5 27t-80.5 9.5h-149
l-73 -367h125q75 0 127 21.5t84 55.5t46.5 75.5t14.5 84.5zM461 -330q-7 -10 -14.5 -16.5t-20.5 -11t-34 -6t-53 -1.5q-31 0 -49 2.5t-25.5 9t-7 16.5t7.5 24l88 190q5 11 14 19.5t25 13.5t42.5 7t66.5 2t62.5 -4t31.5 -11.5t7 -18.5t-12 -25z" />
    <glyph glyph-name="S" unicode="S" horiz-adv-x="953" 
d="M959 1195q0 -8 -1.5 -23t-4.5 -33t-7.5 -36.5t-11 -34t-14.5 -25.5t-17 -10q-14 0 -35 12.5t-51.5 27t-71.5 27t-93 12.5q-54 0 -91.5 -15t-61.5 -39.5t-35.5 -55t-11.5 -61.5q0 -36 18 -63.5t48 -51t68.5 -45.5l78 -46t78 -52.5t68.5 -66t48 -86t18 -111.5
q0 -94 -38 -174.5t-107.5 -140t-168 -93.5t-218.5 -34q-65 0 -120 10.5t-97.5 25.5t-71.5 31.5t-43 31.5t-14 45q0 8 2 24t5.5 34.5t8.5 38t12 35.5t15.5 26t18.5 10q17 0 40.5 -15.5t58.5 -34t83 -34.5t115 -16q59 0 103.5 15t74.5 41t45.5 60.5t15.5 75.5q0 37 -18 65
t-47.5 51.5t-67 44.5l-76.5 45t-76.5 52t-67 65.5t-47.5 86.5t-18 114q0 90 36 166t100 130.5t153 85t196 30.5q50 0 95 -7.5t82 -19t63 -25.5t36 -23.5t14.5 -20t4.5 -26.5z" />
    <glyph glyph-name="Sacute" unicode="&#x15a;" horiz-adv-x="953" 
d="M959 1195q0 -8 -1.5 -23t-4.5 -33t-7.5 -36.5t-11 -34t-14.5 -25.5t-17 -10q-14 0 -35 12.5t-51.5 27t-71.5 27t-93 12.5q-54 0 -91.5 -15t-61.5 -39.5t-35.5 -55t-11.5 -61.5q0 -36 18 -63.5t48 -51t68.5 -45.5l78 -46t78 -52.5t68.5 -66t48 -86t18 -111.5
q0 -94 -38 -174.5t-107.5 -140t-168 -93.5t-218.5 -34q-65 0 -120 10.5t-97.5 25.5t-71.5 31.5t-43 31.5t-14 45q0 8 2 24t5.5 34.5t8.5 38t12 35.5t15.5 26t18.5 10q17 0 40.5 -15.5t58.5 -34t83 -34.5t115 -16q59 0 103.5 15t74.5 41t45.5 60.5t15.5 75.5q0 37 -18 65
t-47.5 51.5t-67 44.5l-76.5 45t-76.5 52t-67 65.5t-47.5 86.5t-18 114q0 90 36 166t100 130.5t153 85t196 30.5q50 0 95 -7.5t82 -19t63 -25.5t36 -23.5t14.5 -20t4.5 -26.5zM757 1421q-11 -9 -21.5 -15.5t-25 -10.5t-36 -6.5t-52.5 -2.5q-68 0 -83.5 13t10.5 40l189 204
q13 14 26 23t31 14t43 7t61 2q47 0 72 -6t34 -15.5t3.5 -21.5t-20.5 -25zM221 1294z" />
    <glyph glyph-name="Scircumflex" unicode="&#x15c;" horiz-adv-x="953" 
d="M959 1195q0 -8 -1.5 -23t-4.5 -33t-7.5 -36.5t-11 -34t-14.5 -25.5t-17 -10q-14 0 -35 12.5t-51.5 27t-71.5 27t-93 12.5q-54 0 -91.5 -15t-61.5 -39.5t-35.5 -55t-11.5 -61.5q0 -36 18 -63.5t48 -51t68.5 -45.5l78 -46t78 -52.5t68.5 -66t48 -86t18 -111.5
q0 -94 -38 -174.5t-107.5 -140t-168 -93.5t-218.5 -34q-65 0 -120 10.5t-97.5 25.5t-71.5 31.5t-43 31.5t-14 45q0 8 2 24t5.5 34.5t8.5 38t12 35.5t15.5 26t18.5 10q17 0 40.5 -15.5t58.5 -34t83 -34.5t115 -16q59 0 103.5 15t74.5 41t45.5 60.5t15.5 75.5q0 37 -18 65
t-47.5 51.5t-67 44.5l-76.5 45t-76.5 52t-67 65.5t-47.5 86.5t-18 114q0 90 36 166t100 130.5t153 85t196 30.5q50 0 95 -7.5t82 -19t63 -25.5t36 -23.5t14.5 -20t4.5 -26.5zM1011 1434q9 -14 10 -23.5t-9 -15t-31 -7.5t-55 -2q-42 0 -66.5 1.5t-39 5t-21 9.5t-12.5 15
l-90 137l-149 -134q-11 -11 -21.5 -17.5t-27.5 -10t-43.5 -5t-67.5 -1.5q-34 0 -54 2.5t-27.5 8t-3 14.5t19.5 23l238 214q13 13 27.5 21t32.5 12.5t42 6t58 1.5q32 0 53.5 -1t36 -5t25 -12.5t20.5 -22.5zM12 1294z" />
    <glyph glyph-name="Scaron" unicode="&#x160;" horiz-adv-x="953" 
d="M959 1195q0 -8 -1.5 -23t-4.5 -33t-7.5 -36.5t-11 -34t-14.5 -25.5t-17 -10q-14 0 -35 12.5t-51.5 27t-71.5 27t-93 12.5q-54 0 -91.5 -15t-61.5 -39.5t-35.5 -55t-11.5 -61.5q0 -36 18 -63.5t48 -51t68.5 -45.5l78 -46t78 -52.5t68.5 -66t48 -86t18 -111.5
q0 -94 -38 -174.5t-107.5 -140t-168 -93.5t-218.5 -34q-65 0 -120 10.5t-97.5 25.5t-71.5 31.5t-43 31.5t-14 45q0 8 2 24t5.5 34.5t8.5 38t12 35.5t15.5 26t18.5 10q17 0 40.5 -15.5t58.5 -34t83 -34.5t115 -16q59 0 103.5 15t74.5 41t45.5 60.5t15.5 75.5q0 37 -18 65
t-47.5 51.5t-67 44.5l-76.5 45t-76.5 52t-67 65.5t-47.5 86.5t-18 114q0 90 36 166t100 130.5t153 85t196 30.5q50 0 95 -7.5t82 -19t63 -25.5t36 -23.5t14.5 -20t4.5 -26.5zM821 1427q-13 -13 -28 -21t-33.5 -12t-42.5 -6t-58 -2q-32 0 -53 1t-36 5.5t-25 13t-20 21.5
l-156 214q-10 15 -11 24.5t9 14.5t31.5 7t55.5 2q42 0 66.5 -1.5t38 -5t20 -9.5t12.5 -15l91 -137l149 135q11 9 21.5 15.5t28 10.5t44 5.5t68.5 1.5q34 0 53.5 -2.5t27 -8t3 -15t-18.5 -22.5zM16 1294z" />
    <glyph glyph-name="Scedilla" unicode="&#x15e;" horiz-adv-x="953" 
d="M271 -19q-82 10 -133.5 28.5t-81 35t-43.5 31.5t-14 45q0 8 2 24t5.5 34.5t8.5 38t12 35.5t15.5 26t18.5 10q17 0 40.5 -15.5t58.5 -34t83 -34.5t115 -16q59 0 103.5 15t74.5 41t45.5 60.5t15.5 75.5q0 37 -18 65t-47.5 51.5t-67 44.5l-76.5 45t-76.5 52t-67 65.5
t-47.5 86.5t-18 114q0 90 36 166t100 130.5t153 85t196 30.5q50 0 95 -7.5t82 -19t63 -25.5t36 -23.5t14.5 -20t4.5 -26.5q0 -8 -1.5 -23t-4.5 -33t-7.5 -36.5t-11 -34t-14.5 -25.5t-17 -10q-14 0 -35 12.5t-51.5 27t-71.5 27t-93 12.5q-54 0 -91.5 -15t-61.5 -39.5
t-35.5 -55t-11.5 -61.5q0 -36 18 -63.5t48 -51t68.5 -45.5l78 -46t78 -52.5t68.5 -66t48 -86t18 -111.5q0 -94 -37.5 -173.5t-101.5 -135.5t-140.5 -86t-129.5 -36l13 -54q7 -25 11 -47t4 -44q0 -54 -18 -93.5t-49.5 -65t-76 -37.5t-98.5 -12q-29 0 -56.5 2t-50.5 6.5
t-41.5 10t-29.5 10.5q-11 6 -15 12.5t-4 19.5q0 10 2.5 28t8.5 36t16.5 31.5t26.5 13.5h114q14 0 27 3.5t22.5 10t15 17.5t5.5 25q0 10 -1.5 23t-4.5 26z" />
    <glyph glyph-name="Scommaaccent" unicode="&#x218;" horiz-adv-x="953" 
d="M959 1195q0 -8 -1.5 -23t-4.5 -33t-7.5 -36.5t-11 -34t-14.5 -25.5t-17 -10q-14 0 -35 12.5t-51.5 27t-71.5 27t-93 12.5q-54 0 -91.5 -15t-61.5 -39.5t-35.5 -55t-11.5 -61.5q0 -36 18 -63.5t48 -51t68.5 -45.5l78 -46t78 -52.5t68.5 -66t48 -86t18 -111.5
q0 -94 -38 -174.5t-107.5 -140t-168 -93.5t-218.5 -34q-65 0 -120 10.5t-97.5 25.5t-71.5 31.5t-43 31.5t-14 45q0 8 2 24t5.5 34.5t8.5 38t12 35.5t15.5 26t18.5 10q17 0 40.5 -15.5t58.5 -34t83 -34.5t115 -16q59 0 103.5 15t74.5 41t45.5 60.5t15.5 75.5q0 37 -18 65
t-47.5 51.5t-67 44.5l-76.5 45t-76.5 52t-67 65.5t-47.5 86.5t-18 114q0 90 36 166t100 130.5t153 85t196 30.5q50 0 95 -7.5t82 -19t63 -25.5t36 -23.5t14.5 -20t4.5 -26.5zM323 -330q-7 -10 -14.5 -16.5t-20.5 -11t-34 -6t-53 -1.5q-31 0 -49 2.5t-25.5 9t-7 16.5t7.5 24
l88 190q5 11 14 19.5t25 13.5t42.5 7t66.5 2t62.5 -4t31.5 -11.5t7 -18.5t-12 -25z" />
    <glyph glyph-name="T" unicode="T" horiz-adv-x="1014" 
d="M1155 1252q0 -7 -1.5 -22.5t-5 -34.5t-9 -39.5t-13 -37.5t-18 -28t-22.5 -11h-325l-208 -1043q-3 -10 -11 -18t-24.5 -13t-42 -8t-64.5 -3q-38 0 -63 3t-38.5 8t-18 13t-2.5 18l208 1043h-322q-15 0 -20.5 11t-5.5 30q0 8 1.5 23.5t5 35t9 40t13.5 37.5t18 27.5t22 10.5
h912q12 0 18.5 -11t6.5 -31z" />
    <glyph glyph-name="Tcaron" unicode="&#x164;" horiz-adv-x="1014" 
d="M1155 1252q0 -7 -1.5 -22.5t-5 -34.5t-9 -39.5t-13 -37.5t-18 -28t-22.5 -11h-325l-208 -1043q-3 -10 -11 -18t-24.5 -13t-42 -8t-64.5 -3q-38 0 -63 3t-38.5 8t-18 13t-2.5 18l208 1043h-322q-15 0 -20.5 11t-5.5 30q0 8 1.5 23.5t5 35t9 40t13.5 37.5t18 27.5t22 10.5
h912q12 0 18.5 -11t6.5 -31zM826 1427q-13 -13 -28 -21t-33.5 -12t-42.5 -6t-58 -2q-32 0 -53 1t-36 5.5t-25 13t-20 21.5l-156 214q-10 15 -11 24.5t9 14.5t31.5 7t55.5 2q42 0 66.5 -1.5t38 -5t20 -9.5t12.5 -15l91 -137l149 135q11 9 21.5 15.5t28 10.5t44 5.5t68.5 1.5
q34 0 53.5 -2.5t27 -8t3 -15t-18.5 -22.5zM21 1294z" />
    <glyph glyph-name="Tcommaaccent" unicode="&#x162;" horiz-adv-x="1014" 
d="M1155 1252q0 -7 -1.5 -22.5t-5 -34.5t-9 -39.5t-13 -37.5t-18 -28t-22.5 -11h-325l-208 -1043q-3 -10 -11 -18t-24.5 -13t-42 -8t-64.5 -3q-38 0 -63 3t-38.5 8t-18 13t-2.5 18l208 1043h-322q-15 0 -20.5 11t-5.5 30q0 8 1.5 23.5t5 35t9 40t13.5 37.5t18 27.5t22 10.5
h912q12 0 18.5 -11t6.5 -31zM371 -330q-7 -10 -14.5 -16.5t-20.5 -11t-34 -6t-53 -1.5q-31 0 -49 2.5t-25.5 9t-7 16.5t7.5 24l88 190q5 11 14 19.5t25 13.5t42.5 7t66.5 2t62.5 -4t31.5 -11.5t7 -18.5t-12 -25z" />
    <glyph glyph-name="Tcommaaccent" unicode="&#x21a;" horiz-adv-x="1014" 
d="M1155 1252q0 -7 -1.5 -22.5t-5 -34.5t-9 -39.5t-13 -37.5t-18 -28t-22.5 -11h-325l-208 -1043q-3 -10 -11 -18t-24.5 -13t-42 -8t-64.5 -3q-38 0 -63 3t-38.5 8t-18 13t-2.5 18l208 1043h-322q-15 0 -20.5 11t-5.5 30q0 8 1.5 23.5t5 35t9 40t13.5 37.5t18 27.5t22 10.5
h912q12 0 18.5 -11t6.5 -31zM371 -330q-7 -10 -14.5 -16.5t-20.5 -11t-34 -6t-53 -1.5q-31 0 -49 2.5t-25.5 9t-7 16.5t7.5 24l88 190q5 11 14 19.5t25 13.5t42.5 7t66.5 2t62.5 -4t31.5 -11.5t7 -18.5t-12 -25z" />
    <glyph glyph-name="Tbar" unicode="&#x166;" horiz-adv-x="1014" 
d="M694 744h222q15 0 21 -10.5t6 -31.5q0 -7 -1.5 -21.5t-5 -32.5t-9 -36.5t-13 -34t-17 -25.5t-21.5 -10h-222l-101 -508q-3 -10 -11 -17.5t-24 -12.5t-41.5 -7.5t-64.5 -2.5q-38 0 -63 2.5t-39 7.5t-18.5 12.5t-2.5 17.5l101 508h-222q-14 0 -20 11t-6 31q0 6 1.5 20.5
t4.5 32t8 37t12 35t17 25.5t24 10h222l66 335h-324q-15 0 -20 12t-5 30q0 7 1.5 22t5 34.5t8.5 40t12.5 37.5t17.5 28t23 11h912q14 0 20 -11t6 -30q0 -8 -2 -24t-5.5 -35t-9 -39.5t-13 -37.5t-17.5 -27.5t-22 -10.5h-325z" />
    <glyph glyph-name="U" unicode="U" horiz-adv-x="1337" 
d="M1199 477q-25 -124 -78 -217.5t-132 -156.5t-181.5 -94.5t-226.5 -31.5q-132 0 -226.5 32.5t-149.5 96.5t-71 160.5t10 223.5l154 768q2 10 9.5 18t24 13t42 8t64.5 3q38 0 63 -3t39 -8t18.5 -13t2.5 -18l-154 -768q-16 -77 -9 -133t33.5 -92.5t71.5 -54t108 -17.5
q64 0 118.5 19.5t96.5 57t71.5 91.5t43.5 123l155 774q2 10 9.5 18t23 13t41.5 8t64 3t62 -3t38 -8t18.5 -13t2.5 -18z" />
    <glyph glyph-name="Ugrave" unicode="&#xd9;" horiz-adv-x="1337" 
d="M1199 477q-25 -124 -78 -217.5t-132 -156.5t-181.5 -94.5t-226.5 -31.5q-132 0 -226.5 32.5t-149.5 96.5t-71 160.5t10 223.5l154 768q2 10 9.5 18t24 13t42 8t64.5 3q38 0 63 -3t39 -8t18.5 -13t2.5 -18l-154 -768q-16 -77 -9 -133t33.5 -92.5t71.5 -54t108 -17.5
q64 0 118.5 19.5t96.5 57t71.5 91.5t43.5 123l155 774q2 10 9.5 18t23 13t41.5 8t64 3t62 -3t38 -8t18.5 -13t2.5 -18zM922 1439q11 -14 13.5 -24t-7 -16.5t-30 -9.5t-53.5 -3q-31 0 -52 2t-35.5 6.5t-25 11t-20.5 15.5l-214 200q-14 13 -18 25t6 21.5t36 15.5t71 6
q37 0 61.5 -1.5t42.5 -6.5t30 -14t24 -24zM157 1294z" />
    <glyph glyph-name="Uacute" unicode="&#xda;" horiz-adv-x="1337" 
d="M1199 477q-25 -124 -78 -217.5t-132 -156.5t-181.5 -94.5t-226.5 -31.5q-132 0 -226.5 32.5t-149.5 96.5t-71 160.5t10 223.5l154 768q2 10 9.5 18t24 13t42 8t64.5 3q38 0 63 -3t39 -8t18.5 -13t2.5 -18l-154 -768q-16 -77 -9 -133t33.5 -92.5t71.5 -54t108 -17.5
q64 0 118.5 19.5t96.5 57t71.5 91.5t43.5 123l155 774q2 10 9.5 18t23 13t41.5 8t64 3t62 -3t38 -8t18.5 -13t2.5 -18zM957 1421q-11 -9 -21.5 -15.5t-25 -10.5t-36 -6.5t-52.5 -2.5q-68 0 -83.5 13t10.5 40l189 204q13 14 26 23t31 14t43 7t61 2q47 0 72 -6t34 -15.5
t3.5 -21.5t-20.5 -25zM421 1294z" />
    <glyph glyph-name="Ucircumflex" unicode="&#xdb;" horiz-adv-x="1337" 
d="M1199 477q-25 -124 -78 -217.5t-132 -156.5t-181.5 -94.5t-226.5 -31.5q-132 0 -226.5 32.5t-149.5 96.5t-71 160.5t10 223.5l154 768q2 10 9.5 18t24 13t42 8t64.5 3q38 0 63 -3t39 -8t18.5 -13t2.5 -18l-154 -768q-16 -77 -9 -133t33.5 -92.5t71.5 -54t108 -17.5
q64 0 118.5 19.5t96.5 57t71.5 91.5t43.5 123l155 774q2 10 9.5 18t23 13t41.5 8t64 3t62 -3t38 -8t18.5 -13t2.5 -18zM1193 1434q9 -14 10 -23.5t-9 -15t-31 -7.5t-55 -2q-42 0 -66.5 1.5t-39 5t-21 9.5t-12.5 15l-90 137l-149 -134q-11 -11 -21.5 -17.5t-27.5 -10
t-43.5 -5t-67.5 -1.5q-34 0 -54 2.5t-27.5 8t-3 14.5t19.5 23l238 214q13 13 27.5 21t32.5 12.5t42 6t58 1.5q32 0 53.5 -1t36 -5t25 -12.5t20.5 -22.5zM194 1294z" />
    <glyph glyph-name="Utilde" unicode="&#x168;" horiz-adv-x="1337" 
d="M1199 477q-25 -124 -78 -217.5t-132 -156.5t-181.5 -94.5t-226.5 -31.5q-132 0 -226.5 32.5t-149.5 96.5t-71 160.5t10 223.5l154 768q2 10 9.5 18t24 13t42 8t64.5 3q38 0 63 -3t39 -8t18.5 -13t2.5 -18l-154 -768q-16 -77 -9 -133t33.5 -92.5t71.5 -54t108 -17.5
q64 0 118.5 19.5t96.5 57t71.5 91.5t43.5 123l155 774q2 10 9.5 18t23 13t41.5 8t64 3t62 -3t38 -8t18.5 -13t2.5 -18zM1086 1636q1 8 5.5 13t14 8t25 4t37.5 1q44 0 58 -6.5t14 -19.5q0 -5 -2 -25t-9.5 -47.5t-22 -58t-41 -56.5t-66 -43t-97.5 -17q-53 0 -91.5 15.5
t-69.5 34l-57.5 34t-56.5 15.5q-34 0 -51 -19t-20 -54q-2 -8 -6.5 -13t-14 -7.5t-24.5 -4t-37 -1.5q-44 0 -59 6t-15 22q0 9 2.5 31t11.5 49t25 56t42.5 53.5t65 40t93.5 15.5q53 0 91.5 -15.5t69 -34.5l57.5 -34.5t56 -15.5q30 0 48.5 16.5t23.5 57.5zM201 1294z" />
    <glyph glyph-name="Udieresis" unicode="&#xdc;" horiz-adv-x="1337" 
d="M1199 477q-25 -124 -78 -217.5t-132 -156.5t-181.5 -94.5t-226.5 -31.5q-132 0 -226.5 32.5t-149.5 96.5t-71 160.5t10 223.5l154 768q2 10 9.5 18t24 13t42 8t64.5 3q38 0 63 -3t39 -8t18.5 -13t2.5 -18l-154 -768q-16 -77 -9 -133t33.5 -92.5t71.5 -54t108 -17.5
q64 0 118.5 19.5t96.5 57t71.5 91.5t43.5 123l155 774q2 10 9.5 18t23 13t41.5 8t64 3t62 -3t38 -8t18.5 -13t2.5 -18zM1220 1528q-6 -35 -17.5 -58t-30 -37t-44.5 -19.5t-62 -5.5q-38 0 -61.5 5.5t-36.5 19.5t-15 37t4 58q7 37 17.5 62t28.5 39.5t44 20.5t64 6q36 0 60 -6
t37 -20.5t15.5 -39.5t-3.5 -62zM783 1528q-6 -35 -17 -58t-29.5 -37t-45 -19.5t-61.5 -5.5q-38 0 -62 5.5t-37 19.5t-15 37t5 58q6 37 17 62t28.5 39.5t44 20.5t64.5 6q36 0 59.5 -6t37 -20.5t16 -39.5t-4.5 -62zM205 1294z" />
    <glyph glyph-name="Umacron" unicode="&#x16a;" horiz-adv-x="1337" 
d="M1199 477q-25 -124 -78 -217.5t-132 -156.5t-181.5 -94.5t-226.5 -31.5q-132 0 -226.5 32.5t-149.5 96.5t-71 160.5t10 223.5l154 768q2 10 9.5 18t24 13t42 8t64.5 3q38 0 63 -3t39 -8t18.5 -13t2.5 -18l-154 -768q-16 -77 -9 -133t33.5 -92.5t71.5 -54t108 -17.5
q64 0 118.5 19.5t96.5 57t71.5 91.5t43.5 123l155 774q2 10 9.5 18t23 13t41.5 8t64 3t62 -3t38 -8t18.5 -13t2.5 -18zM1212 1578q0 -8 -1.5 -22t-5 -30t-8.5 -33t-12.5 -31t-17 -22.5t-21.5 -8.5h-590q-18 0 -25 9t-7 30q0 6 1.5 20t4 30t8 33t13.5 31t18.5 23t24.5 9h590
q15 0 21.5 -10t6.5 -28zM217 1294z" />
    <glyph glyph-name="Ubreve" unicode="&#x16c;" horiz-adv-x="1337" 
d="M1199 477q-25 -124 -78 -217.5t-132 -156.5t-181.5 -94.5t-226.5 -31.5q-132 0 -226.5 32.5t-149.5 96.5t-71 160.5t10 223.5l154 768q2 10 9.5 18t24 13t42 8t64.5 3q38 0 63 -3t39 -8t18.5 -13t2.5 -18l-154 -768q-16 -77 -9 -133t33.5 -92.5t71.5 -54t108 -17.5
q64 0 118.5 19.5t96.5 57t71.5 91.5t43.5 123l155 774q2 10 9.5 18t23 13t41.5 8t64 3t62 -3t38 -8t18.5 -13t2.5 -18zM1196 1670q0 -11 -5 -36t-19 -56.5t-38 -65.5t-62.5 -62t-92.5 -46t-128 -18q-77 0 -127.5 16t-81.5 43.5t-43.5 63.5t-12.5 75q0 11 1 26t3 29t6 25.5
t9 15.5q8 9 27 13t52 4q25 0 41 -2t25 -6t12.5 -10t3.5 -13q0 -8 -1.5 -18.5t-1.5 -21.5q0 -19 5.5 -34t17.5 -25t31.5 -15.5t47.5 -5.5t52.5 6.5t44.5 20t35 34.5t24 52q3 10 9 17t16.5 12t27.5 7t42 2t41 -2t24.5 -5t11.5 -8.5t3 -11.5zM253 1294z" />
    <glyph glyph-name="Uring" unicode="&#x16e;" horiz-adv-x="1337" 
d="M1199 477q-25 -124 -78 -217.5t-132 -156.5t-181.5 -94.5t-226.5 -31.5q-132 0 -226.5 32.5t-149.5 96.5t-71 160.5t10 223.5l154 768q2 10 9.5 18t24 13t42 8t64.5 3q38 0 63 -3t39 -8t18.5 -13t2.5 -18l-154 -768q-16 -77 -9 -133t33.5 -92.5t71.5 -54t108 -17.5
q64 0 118.5 19.5t96.5 57t71.5 91.5t43.5 123l155 774q2 10 9.5 18t23 13t41.5 8t64 3t62 -3t38 -8t18.5 -13t2.5 -18zM1113 1586q0 -44 -14.5 -85.5t-47 -74t-83.5 -52t-123 -19.5q-58 0 -98 12.5t-65.5 34.5t-37 52t-11.5 65q0 27 6 55.5t19.5 54t34 48.5t50.5 40t69 26.5
t89 9.5q58 0 98.5 -13t65.5 -36t36.5 -53.5t11.5 -64.5zM959 1568q0 14 -4 27t-13 23t-24 16t-37 6q-25 0 -42.5 -8.5t-28.5 -23t-16.5 -33.5t-5.5 -38q0 -14 4 -26.5t12.5 -22t23 -15.5t36.5 -6q24 0 42 8t29.5 21.5t17.5 32t6 39.5zM315 1294z" />
    <glyph glyph-name="Uhungarumlaut" unicode="&#x170;" horiz-adv-x="1337" 
d="M1199 477q-25 -124 -78 -217.5t-132 -156.5t-181.5 -94.5t-226.5 -31.5q-132 0 -226.5 32.5t-149.5 96.5t-71 160.5t10 223.5l154 768q2 10 9.5 18t24 13t42 8t64.5 3q38 0 63 -3t39 -8t18.5 -13t2.5 -18l-154 -768q-16 -77 -9 -133t33.5 -92.5t71.5 -54t108 -17.5
q64 0 118.5 19.5t96.5 57t71.5 91.5t43.5 123l155 774q2 10 9.5 18t23 13t41.5 8t64 3t62 -3t38 -8t18.5 -13t2.5 -18zM1165 1411q-10 -9 -20 -14t-24 -7.5t-33.5 -3t-49.5 -0.5q-31 0 -51 2.5t-30 7.5t-10.5 12.5t7.5 16.5l193 236q7 9 17 15.5t28 11.5t45 7t69 2
q49 0 78 -3.5t40.5 -10.5t8.5 -17t-17 -22zM732 1409q-8 -8 -17.5 -12.5t-23 -7t-33 -3t-46.5 -0.5q-54 0 -69.5 11t-0.5 32l175 232q8 10 19 16.5t28 11t41.5 6.5t57.5 2q54 0 84 -3t42 -10t8 -16.5t-18 -22.5zM222 1294z" />
    <glyph glyph-name="Uogonek" unicode="&#x172;" horiz-adv-x="1337" 
d="M1200 482q-14 -70 -37 -132.5t-57 -116t-79.5 -97.5t-104.5 -79q-26 -15 -46.5 -29l-39 -27.5t-34.5 -27l-33 -27.5l-54 -45q-21 -20 -30 -33.5t-9 -28.5t12 -24.5t41 -9.5h96q18 0 23 -5.5t5 -18.5q0 -11 -2.5 -26.5t-7 -31.5t-10 -29t-11.5 -19q-9 -9 -30.5 -16
t-48.5 -12.5t-56 -8.5t-51 -3q-55 0 -96.5 9.5t-69.5 27.5t-42 45t-14 62q0 45 24.5 85t74.5 82l46 38q-8 -1 -14.5 -1.5t-13.5 -0.5q-104 0 -187 30.5t-136.5 92.5t-72 155.5t6.5 221.5l156 778q2 10 9.5 17.5t24 12.5t42 7.5t64.5 2.5q38 0 63 -2.5t39 -7.5t18.5 -12.5
t2.5 -17.5l-154 -770q-30 -148 21.5 -222.5t185.5 -74.5q62 0 115.5 19.5t95.5 56.5t71.5 90t43.5 120l156 781q2 10 9.5 17.5t23 12.5t41.5 7.5t64 2.5t62 -2.5t38 -7.5t18.5 -12.5t2.5 -17.5z" />
    <glyph glyph-name="V" unicode="V" horiz-adv-x="1211" 
d="M702 46q-9 -17 -19 -27.5t-29 -16t-50.5 -7t-82.5 -1.5q-59 0 -94 1.5t-53 7t-24.5 16.5t-8.5 30l-158 1169q-3 27 -2 43.5t14 25t40.5 11t76.5 2.5t76.5 -2t42 -7.5t18.5 -15.5t6 -26l110 -996h2l503 1000q7 14 16 23.5t25.5 14.5t44 7t72.5 2q48 0 75 -3t36 -14
t2 -32.5t-26 -57.5z" />
    <glyph glyph-name="W" unicode="W" horiz-adv-x="1857" 
d="M1422 65q-10 -24 -23 -38.5t-35 -21.5t-55.5 -9t-84.5 -2q-54 0 -87.5 2t-52 8.5t-25.5 19.5t-8 34l-47 829h-2l-359 -822q-10 -24 -21.5 -38.5t-30.5 -21.5t-52 -9t-85 -2q-60 0 -96 2t-55.5 9t-26 22t-7.5 41l-70 1138q-1 32 1.5 51t16.5 28.5t41.5 12t77.5 2.5
q41 0 69 -2.5t41.5 -9t17 -17.5t3.5 -29l26 -987h2l437 986q8 19 17.5 30.5t26.5 18t44.5 8.5t73.5 2t73 -2t41 -8.5t18 -18.5t5 -32l50 -984h2l425 998q5 14 13.5 23.5t25 14.5t44.5 7t72 2q43 0 67.5 -3.5t33.5 -14.5t3 -32.5t-21 -56.5z" />
    <glyph glyph-name="Wgrave" unicode="&#x1e80;" horiz-adv-x="1857" 
d="M1422 65q-10 -24 -23 -38.5t-35 -21.5t-55.5 -9t-84.5 -2q-54 0 -87.5 2t-52 8.5t-25.5 19.5t-8 34l-47 829h-2l-359 -822q-10 -24 -21.5 -38.5t-30.5 -21.5t-52 -9t-85 -2q-60 0 -96 2t-55.5 9t-26 22t-7.5 41l-70 1138q-1 32 1.5 51t16.5 28.5t41.5 12t77.5 2.5
q41 0 69 -2.5t41.5 -9t17 -17.5t3.5 -29l26 -987h2l437 986q8 19 17.5 30.5t26.5 18t44.5 8.5t73.5 2t73 -2t41 -8.5t18 -18.5t5 -32l50 -984h2l425 998q5 14 13.5 23.5t25 14.5t44.5 7t72 2q43 0 67.5 -3.5t33.5 -14.5t3 -32.5t-21 -56.5zM1203 1439q11 -14 13.5 -24
t-7 -16.5t-30 -9.5t-53.5 -3q-31 0 -52 2t-35.5 6.5t-25 11t-20.5 15.5l-214 200q-14 13 -18 25t6 21.5t36 15.5t71 6q37 0 61.5 -1.5t42.5 -6.5t30 -14t24 -24zM438 1294z" />
    <glyph glyph-name="Wacute" unicode="&#x1e82;" horiz-adv-x="1857" 
d="M1422 65q-10 -24 -23 -38.5t-35 -21.5t-55.5 -9t-84.5 -2q-54 0 -87.5 2t-52 8.5t-25.5 19.5t-8 34l-47 829h-2l-359 -822q-10 -24 -21.5 -38.5t-30.5 -21.5t-52 -9t-85 -2q-60 0 -96 2t-55.5 9t-26 22t-7.5 41l-70 1138q-1 32 1.5 51t16.5 28.5t41.5 12t77.5 2.5
q41 0 69 -2.5t41.5 -9t17 -17.5t3.5 -29l26 -987h2l437 986q8 19 17.5 30.5t26.5 18t44.5 8.5t73.5 2t73 -2t41 -8.5t18 -18.5t5 -32l50 -984h2l425 998q5 14 13.5 23.5t25 14.5t44.5 7t72 2q43 0 67.5 -3.5t33.5 -14.5t3 -32.5t-21 -56.5zM1231 1421q-11 -9 -21.5 -15.5
t-25 -10.5t-36 -6.5t-52.5 -2.5q-68 0 -83.5 13t10.5 40l189 204q13 14 26 23t31 14t43 7t61 2q47 0 72 -6t34 -15.5t3.5 -21.5t-20.5 -25zM695 1294z" />
    <glyph glyph-name="Wcircumflex" unicode="&#x174;" horiz-adv-x="1857" 
d="M1422 65q-10 -24 -23 -38.5t-35 -21.5t-55.5 -9t-84.5 -2q-54 0 -87.5 2t-52 8.5t-25.5 19.5t-8 34l-47 829h-2l-359 -822q-10 -24 -21.5 -38.5t-30.5 -21.5t-52 -9t-85 -2q-60 0 -96 2t-55.5 9t-26 22t-7.5 41l-70 1138q-1 32 1.5 51t16.5 28.5t41.5 12t77.5 2.5
q41 0 69 -2.5t41.5 -9t17 -17.5t3.5 -29l26 -987h2l437 986q8 19 17.5 30.5t26.5 18t44.5 8.5t73.5 2t73 -2t41 -8.5t18 -18.5t5 -32l50 -984h2l425 998q5 14 13.5 23.5t25 14.5t44.5 7t72 2q43 0 67.5 -3.5t33.5 -14.5t3 -32.5t-21 -56.5zM1470 1434q9 -14 10 -23.5t-9 -15
t-31 -7.5t-55 -2q-42 0 -66.5 1.5t-39 5t-21 9.5t-12.5 15l-90 137l-149 -134q-11 -11 -21.5 -17.5t-27.5 -10t-43.5 -5t-67.5 -1.5q-34 0 -54 2.5t-27.5 8t-3 14.5t19.5 23l238 214q13 13 27.5 21t32.5 12.5t42 6t58 1.5q32 0 53.5 -1t36 -5t25 -12.5t20.5 -22.5zM471 1294
z" />
    <glyph glyph-name="Wdieresis" unicode="&#x1e84;" horiz-adv-x="1857" 
d="M1422 65q-10 -24 -23 -38.5t-35 -21.5t-55.5 -9t-84.5 -2q-54 0 -87.5 2t-52 8.5t-25.5 19.5t-8 34l-47 829h-2l-359 -822q-10 -24 -21.5 -38.5t-30.5 -21.5t-52 -9t-85 -2q-60 0 -96 2t-55.5 9t-26 22t-7.5 41l-70 1138q-1 32 1.5 51t16.5 28.5t41.5 12t77.5 2.5
q41 0 69 -2.5t41.5 -9t17 -17.5t3.5 -29l26 -987h2l437 986q8 19 17.5 30.5t26.5 18t44.5 8.5t73.5 2t73 -2t41 -8.5t18 -18.5t5 -32l50 -984h2l425 998q5 14 13.5 23.5t25 14.5t44.5 7t72 2q43 0 67.5 -3.5t33.5 -14.5t3 -32.5t-21 -56.5zM1501 1528q-6 -35 -17.5 -58
t-30 -37t-44.5 -19.5t-62 -5.5q-38 0 -61.5 5.5t-36.5 19.5t-15 37t4 58q7 37 17.5 62t28.5 39.5t44 20.5t64 6q36 0 60 -6t37 -20.5t15.5 -39.5t-3.5 -62zM1064 1528q-6 -35 -17 -58t-29.5 -37t-45 -19.5t-61.5 -5.5q-38 0 -62 5.5t-37 19.5t-15 37t5 58q6 37 17 62
t28.5 39.5t44 20.5t64.5 6q36 0 59.5 -6t37 -20.5t16 -39.5t-4.5 -62zM486 1294z" />
    <glyph glyph-name="X" unicode="X" horiz-adv-x="1128" 
d="M794 667l199 -565q11 -36 12.5 -57.5t-12 -33t-45.5 -14.5t-89 -3q-41 0 -65 2t-37.5 6.5t-19 12.5t-9.5 20l-157 470l-332 -470q-9 -12 -18.5 -20t-27 -12.5t-46 -6.5t-73.5 -2q-53 0 -83 3t-39 14t0.5 32t34.5 56l427 570l-181 526q-11 35 -12.5 56t12 32t45.5 14t88 3
q43 0 67.5 -2t38.5 -7t20 -14t10 -23l137 -422l302 427q8 12 17.5 20t25.5 12.5t42.5 6.5t70.5 2q54 0 85 -3t40.5 -14t0.5 -32t-34 -56z" />
    <glyph glyph-name="Y" unicode="Y" horiz-adv-x="1064" 
d="M668 491l-90 -456q-3 -10 -11 -18t-24.5 -13t-42.5 -7.5t-64 -2.5t-63 2.5t-38.5 7.5t-18 13t-2.5 18l90 456l-212 705q-11 35 -13.5 56t9.5 31.5t42 13.5t85 3q42 0 66.5 -1.5t38.5 -6.5t19.5 -14.5t9.5 -24.5l87 -311q15 -56 26.5 -106.5t20.5 -105.5h2q28 54 58 106
t64 104l207 316q8 13 17 21.5t25 13.5t42.5 7t71.5 2q58 0 88.5 -3.5t40 -15t-1 -32t-33.5 -53.5z" />
    <glyph glyph-name="Ygrave" unicode="&#x1ef2;" horiz-adv-x="1064" 
d="M668 491l-90 -456q-3 -10 -11 -18t-24.5 -13t-42.5 -7.5t-64 -2.5t-63 2.5t-38.5 7.5t-18 13t-2.5 18l90 456l-212 705q-11 35 -13.5 56t9.5 31.5t42 13.5t85 3q42 0 66.5 -1.5t38.5 -6.5t19.5 -14.5t9.5 -24.5l87 -311q15 -56 26.5 -106.5t20.5 -105.5h2q28 54 58 106
t64 104l207 316q8 13 17 21.5t25 13.5t42.5 7t71.5 2q58 0 88.5 -3.5t40 -15t-1 -32t-33.5 -53.5zM821 1439q11 -14 13.5 -24t-7 -16.5t-30 -9.5t-53.5 -3q-31 0 -52 2t-35.5 6.5t-25 11t-20.5 15.5l-214 200q-14 13 -18 25t6 21.5t36 15.5t71 6q37 0 61.5 -1.5t42.5 -6.5
t30 -14t24 -24zM56 1294z" />
    <glyph glyph-name="Yacute" unicode="&#xdd;" horiz-adv-x="1064" 
d="M668 491l-90 -456q-3 -10 -11 -18t-24.5 -13t-42.5 -7.5t-64 -2.5t-63 2.5t-38.5 7.5t-18 13t-2.5 18l90 456l-212 705q-11 35 -13.5 56t9.5 31.5t42 13.5t85 3q42 0 66.5 -1.5t38.5 -6.5t19.5 -14.5t9.5 -24.5l87 -311q15 -56 26.5 -106.5t20.5 -105.5h2q28 54 58 106
t64 104l207 316q8 13 17 21.5t25 13.5t42.5 7t71.5 2q58 0 88.5 -3.5t40 -15t-1 -32t-33.5 -53.5zM867 1421q-11 -9 -21.5 -15.5t-25 -10.5t-36 -6.5t-52.5 -2.5q-68 0 -83.5 13t10.5 40l189 204q13 14 26 23t31 14t43 7t61 2q47 0 72 -6t34 -15.5t3.5 -21.5t-20.5 -25z
M331 1294z" />
    <glyph glyph-name="Ycircumflex" unicode="&#x176;" horiz-adv-x="1064" 
d="M668 491l-90 -456q-3 -10 -11 -18t-24.5 -13t-42.5 -7.5t-64 -2.5t-63 2.5t-38.5 7.5t-18 13t-2.5 18l90 456l-212 705q-11 35 -13.5 56t9.5 31.5t42 13.5t85 3q42 0 66.5 -1.5t38.5 -6.5t19.5 -14.5t9.5 -24.5l87 -311q15 -56 26.5 -106.5t20.5 -105.5h2q28 54 58 106
t64 104l207 316q8 13 17 21.5t25 13.5t42.5 7t71.5 2q58 0 88.5 -3.5t40 -15t-1 -32t-33.5 -53.5zM1084 1434q9 -14 10 -23.5t-9 -15t-31 -7.5t-55 -2q-42 0 -66.5 1.5t-39 5t-21 9.5t-12.5 15l-90 137l-149 -134q-11 -11 -21.5 -17.5t-27.5 -10t-43.5 -5t-67.5 -1.5
q-34 0 -54 2.5t-27.5 8t-3 14.5t19.5 23l238 214q13 13 27.5 21t32.5 12.5t42 6t58 1.5q32 0 53.5 -1t36 -5t25 -12.5t20.5 -22.5zM85 1294z" />
    <glyph glyph-name="Ydieresis" unicode="&#x178;" horiz-adv-x="1064" 
d="M668 491l-90 -456q-3 -10 -11 -18t-24.5 -13t-42.5 -7.5t-64 -2.5t-63 2.5t-38.5 7.5t-18 13t-2.5 18l90 456l-212 705q-11 35 -13.5 56t9.5 31.5t42 13.5t85 3q42 0 66.5 -1.5t38.5 -6.5t19.5 -14.5t9.5 -24.5l87 -311q15 -56 26.5 -106.5t20.5 -105.5h2q28 54 58 106
t64 104l207 316q8 13 17 21.5t25 13.5t42.5 7t71.5 2q58 0 88.5 -3.5t40 -15t-1 -32t-33.5 -53.5zM1116 1528q-6 -35 -17.5 -58t-30 -37t-44.5 -19.5t-62 -5.5q-38 0 -61.5 5.5t-36.5 19.5t-15 37t4 58q7 37 17.5 62t28.5 39.5t44 20.5t64 6q36 0 60 -6t37 -20.5t15.5 -39.5
t-3.5 -62zM679 1528q-6 -35 -17 -58t-29.5 -37t-45 -19.5t-61.5 -5.5q-38 0 -62 5.5t-37 19.5t-15 37t5 58q6 37 17 62t28.5 39.5t44 20.5t64.5 6q36 0 59.5 -6t37 -20.5t16 -39.5t-4.5 -62zM101 1294z" />
    <glyph glyph-name="Z" unicode="Z" horiz-adv-x="979" 
d="M996 1294q28 0 45.5 -14t17.5 -42q0 -16 -6 -49.5t-15 -62.5q-3 -12 -8 -24t-14 -26.5t-23 -33.5t-36 -46l-643 -785h532q14 0 19.5 -10t5.5 -30q0 -8 -1 -23.5t-4.5 -35t-8.5 -39t-12 -36t-17.5 -27t-22.5 -10.5h-763q-36 0 -52.5 18t-16.5 45q0 8 1.5 22.5t5 30l7 31
t6.5 25.5q4 11 9 22t14.5 25l23.5 33t36 46l646 787h-486q-32 0 -32 43q0 6 1.5 21.5t4.5 34t8.5 38t13.5 35.5t19.5 26.5t26.5 10.5h718z" />
    <glyph glyph-name="Zacute" unicode="&#x179;" horiz-adv-x="979" 
d="M996 1294q28 0 45.5 -14t17.5 -42q0 -16 -6 -49.5t-15 -62.5q-3 -12 -8 -24t-14 -26.5t-23 -33.5t-36 -46l-643 -785h532q14 0 19.5 -10t5.5 -30q0 -8 -1 -23.5t-4.5 -35t-8.5 -39t-12 -36t-17.5 -27t-22.5 -10.5h-763q-36 0 -52.5 18t-16.5 45q0 8 1.5 22.5t5 30l7 31
t6.5 25.5q4 11 9 22t14.5 25l23.5 33t36 46l646 787h-486q-32 0 -32 43q0 6 1.5 21.5t4.5 34t8.5 38t13.5 35.5t19.5 26.5t26.5 10.5h718zM773 1421q-11 -9 -21.5 -15.5t-25 -10.5t-36 -6.5t-52.5 -2.5q-68 0 -83.5 13t10.5 40l189 204q13 14 26 23t31 14t43 7t61 2
q47 0 72 -6t34 -15.5t3.5 -21.5t-20.5 -25zM237 1294z" />
    <glyph glyph-name="Zcaron" unicode="&#x17d;" horiz-adv-x="979" 
d="M996 1294q28 0 45.5 -14t17.5 -42q0 -16 -6 -49.5t-15 -62.5q-3 -12 -8 -24t-14 -26.5t-23 -33.5t-36 -46l-643 -785h532q14 0 19.5 -10t5.5 -30q0 -8 -1 -23.5t-4.5 -35t-8.5 -39t-12 -36t-17.5 -27t-22.5 -10.5h-763q-36 0 -52.5 18t-16.5 45q0 8 1.5 22.5t5 30l7 31
t6.5 25.5q4 11 9 22t14.5 25l23.5 33t36 46l646 787h-486q-32 0 -32 43q0 6 1.5 21.5t4.5 34t8.5 38t13.5 35.5t19.5 26.5t26.5 10.5h718zM823 1427q-13 -13 -28 -21t-33.5 -12t-42.5 -6t-58 -2q-32 0 -53 1t-36 5.5t-25 13t-20 21.5l-156 214q-10 15 -11 24.5t9 14.5
t31.5 7t55.5 2q42 0 66.5 -1.5t38 -5t20 -9.5t12.5 -15l91 -137l149 135q11 9 21.5 15.5t28 10.5t44 5.5t68.5 1.5q34 0 53.5 -2.5t27 -8t3 -15t-18.5 -22.5zM18 1294z" />
    <glyph glyph-name="Zdotaccent" unicode="&#x17b;" horiz-adv-x="979" 
d="M996 1294q28 0 45.5 -14t17.5 -42q0 -16 -6 -49.5t-15 -62.5q-3 -12 -8 -24t-14 -26.5t-23 -33.5t-36 -46l-643 -785h532q14 0 19.5 -10t5.5 -30q0 -8 -1 -23.5t-4.5 -35t-8.5 -39t-12 -36t-17.5 -27t-22.5 -10.5h-763q-36 0 -52.5 18t-16.5 45q0 8 1.5 22.5t5 30l7 31
t6.5 25.5q4 11 9 22t14.5 25l23.5 33t36 46l646 787h-486q-32 0 -32 43q0 6 1.5 21.5t4.5 34t8.5 38t13.5 35.5t19.5 26.5t26.5 10.5h718zM558 1531q7 35 18.5 59t30.5 39t47 21.5t68 6.5t65 -6.5t38 -21.5t14.5 -39t-5.5 -59q-6 -34 -17.5 -58t-30.5 -39t-47 -21.5
t-68 -6.5t-65 6.5t-38 21.5t-15 39t5 58zM243 1294z" />
    <glyph glyph-name="A.c2sc" horiz-adv-x="1095" 
d="M993 95q4 -34 3.5 -54.5t-14 -31t-43.5 -13t-84 -2.5q-44 0 -69 2.5t-37 7t-15.5 11.5t-4.5 17l-30 190h-409l-98 -184q-7 -13 -16 -21.5t-26 -13.5t-45 -7t-71 -2q-46 0 -70.5 3.5t-32.5 14.5t-1.5 31.5t25.5 54.5l517 921q9 16 18.5 25.5t27.5 14.5t49.5 7t84.5 2
q60 0 96.5 -2t56.5 -7t27.5 -15.5t9.5 -28.5zM620 850h-2l-233 -436h294z" />
    <glyph glyph-name="Agrave.c2sc" horiz-adv-x="1095" 
d="M993 95q4 -34 3.5 -54.5t-14 -31t-43.5 -13t-84 -2.5q-44 0 -69 2.5t-37 7t-15.5 11.5t-4.5 17l-30 190h-409l-98 -184q-7 -13 -16 -21.5t-26 -13.5t-45 -7t-71 -2q-46 0 -70.5 3.5t-32.5 14.5t-1.5 31.5t25.5 54.5l517 921q9 16 18.5 25.5t27.5 14.5t49.5 7t84.5 2
q60 0 96.5 -2t56.5 -7t27.5 -15.5t9.5 -28.5zM620 850h-2l-233 -436h294zM753 1231q8 -13 9.5 -23t-7 -16.5t-28.5 -9.5t-56 -3q-29 0 -47.5 1.5t-31 6t-20.5 11t-16 16.5l-184 224q-8 11 -8.5 20.5t11.5 17t39 11.5t73 4q33 0 55.5 -1.5t37 -5.5t23.5 -12t16 -19zM72 1062z
" />
    <glyph glyph-name="Aacute.c2sc" horiz-adv-x="1095" 
d="M993 95q4 -34 3.5 -54.5t-14 -31t-43.5 -13t-84 -2.5q-44 0 -69 2.5t-37 7t-15.5 11.5t-4.5 17l-30 190h-409l-98 -184q-7 -13 -16 -21.5t-26 -13.5t-45 -7t-71 -2q-46 0 -70.5 3.5t-32.5 14.5t-1.5 31.5t25.5 54.5l517 921q9 16 18.5 25.5t27.5 14.5t49.5 7t84.5 2
q60 0 96.5 -2t56.5 -7t27.5 -15.5t9.5 -28.5zM620 850h-2l-233 -436h294zM789 1214q-8 -10 -16 -16.5t-20.5 -10.5t-31.5 -6t-48 -2q-35 0 -54.5 3t-27.5 9.5t-5.5 16.5t11.5 23l150 221q8 11 18 19t25.5 12t38.5 6t56 2q46 0 72 -4t37 -11.5t9.5 -17t-11.5 -20.5zM332 1062
z" />
    <glyph glyph-name="Acircumflex.c2sc" horiz-adv-x="1095" 
d="M993 95q4 -34 3.5 -54.5t-14 -31t-43.5 -13t-84 -2.5q-44 0 -69 2.5t-37 7t-15.5 11.5t-4.5 17l-30 190h-409l-98 -184q-7 -13 -16 -21.5t-26 -13.5t-45 -7t-71 -2q-46 0 -70.5 3.5t-32.5 14.5t-1.5 31.5t25.5 54.5l517 921q9 16 18.5 25.5t27.5 14.5t49.5 7t84.5 2
q60 0 96.5 -2t56.5 -7t27.5 -15.5t9.5 -28.5zM620 850h-2l-233 -436h294zM999 1240q10 -16 13 -27.5t-6 -19t-31 -11t-62 -3.5q-31 0 -51 1.5t-32 5.5t-19 10.5t-12 17.5l-83 142l-142 -143q-10 -11 -20 -17.5t-24 -10t-35 -5t-51 -1.5q-41 0 -63.5 3.5t-29 11.5t0.5 20.5
t25 30.5l212 211q10 9 20.5 16t27 11t41.5 6t62 2q35 0 56.5 -2t35 -6.5t21.5 -11.5t14 -16zM95 1062z" />
    <glyph glyph-name="Atilde.c2sc" horiz-adv-x="1095" 
d="M993 95q4 -34 3.5 -54.5t-14 -31t-43.5 -13t-84 -2.5q-44 0 -69 2.5t-37 7t-15.5 11.5t-4.5 17l-30 190h-409l-98 -184q-7 -13 -16 -21.5t-26 -13.5t-45 -7t-71 -2q-46 0 -70.5 3.5t-32.5 14.5t-1.5 31.5t25.5 54.5l517 921q9 16 18.5 25.5t27.5 14.5t49.5 7t84.5 2
q60 0 96.5 -2t56.5 -7t27.5 -15.5t9.5 -28.5zM620 850h-2l-233 -436h294zM922 1437q1 8 5.5 13.5t14 8.5t25 4t38.5 1q41 0 55.5 -6.5t14.5 -20.5q0 -7 -2 -28.5t-10 -50t-23.5 -60t-41.5 -57t-64.5 -42.5t-93.5 -17q-57 0 -96 16.5t-69.5 36.5l-56 36.5t-55.5 16.5
q-34 0 -52 -22.5t-20 -57.5q-2 -8 -7 -13t-14.5 -8t-24.5 -4t-36 -1q-42 0 -57 5.5t-15 21.5q0 10 3 32.5t11.5 51t24.5 58.5t42 55.5t64 41.5t91 16q57 0 96 -16.5t69 -37l56 -37t56 -16.5q29 0 48.5 20t23.5 60zM79 1062z" />
    <glyph glyph-name="Adieresis.c2sc" horiz-adv-x="1095" 
d="M993 95q4 -34 3.5 -54.5t-14 -31t-43.5 -13t-84 -2.5q-44 0 -69 2.5t-37 7t-15.5 11.5t-4.5 17l-30 190h-409l-98 -184q-7 -13 -16 -21.5t-26 -13.5t-45 -7t-71 -2q-46 0 -70.5 3.5t-32.5 14.5t-1.5 31.5t25.5 54.5l517 921q9 16 18.5 25.5t27.5 14.5t49.5 7t84.5 2
q60 0 96.5 -2t56.5 -7t27.5 -15.5t9.5 -28.5zM620 850h-2l-233 -436h294zM1041 1324q-7 -37 -18.5 -61t-30.5 -38t-45 -19.5t-61 -5.5q-34 0 -57.5 5.5t-36 19.5t-14.5 38t5 61q6 37 18 60.5t30.5 37t44 19t59.5 5.5q35 0 58.5 -5.5t36.5 -19t15.5 -37t-4.5 -60.5zM627 1324
q-7 -37 -18.5 -61t-30 -38t-44 -19.5t-60.5 -5.5q-34 0 -57.5 5.5t-36 19.5t-14.5 38t5 61q6 37 18 60.5t30.5 37t43.5 19t60 5.5t58 -5.5t35.5 -19t15 -37t-4.5 -60.5zM96 1062z" />
    <glyph glyph-name="Amacron.c2sc" horiz-adv-x="1095" 
d="M993 95q4 -34 3.5 -54.5t-14 -31t-43.5 -13t-84 -2.5q-44 0 -69 2.5t-37 7t-15.5 11.5t-4.5 17l-30 190h-409l-98 -184q-7 -13 -16 -21.5t-26 -13.5t-45 -7t-71 -2q-46 0 -70.5 3.5t-32.5 14.5t-1.5 31.5t25.5 54.5l517 921q9 16 18.5 25.5t27.5 14.5t49.5 7t84.5 2
q60 0 96.5 -2t56.5 -7t27.5 -15.5t9.5 -28.5zM620 850h-2l-233 -436h294zM1029 1377q0 -6 -1.5 -20t-5 -30.5t-8 -33t-12 -30.5t-17.5 -23.5t-23 -9.5h-550q-18 0 -25 10t-7 30q0 7 1 21t4.5 29.5t8.5 32.5t12.5 30.5t18 22t24.5 8.5h550q17 0 23.5 -10.5t6.5 -26.5z
M113 1062z" />
    <glyph glyph-name="Abreve.c2sc" horiz-adv-x="1095" 
d="M993 95q4 -34 3.5 -54.5t-14 -31t-43.5 -13t-84 -2.5q-44 0 -69 2.5t-37 7t-15.5 11.5t-4.5 17l-30 190h-409l-98 -184q-7 -13 -16 -21.5t-26 -13.5t-45 -7t-71 -2q-46 0 -70.5 3.5t-32.5 14.5t-1.5 31.5t25.5 54.5l517 921q9 16 18.5 25.5t27.5 14.5t49.5 7t84.5 2
q60 0 96.5 -2t56.5 -7t27.5 -15.5t9.5 -28.5zM620 850h-2l-233 -436h294zM1017 1466q0 -10 -4.5 -35.5t-17.5 -57t-37 -65.5t-61.5 -62t-92 -46.5t-128.5 -18.5q-76 0 -126 16.5t-80 43.5t-42 63.5t-12 75.5q0 11 1 26t3.5 29t6 25.5t8.5 15.5q8 9 26.5 13t52.5 4
q24 0 39.5 -2t24.5 -6t12 -10t3 -13q0 -8 -1.5 -18.5t-1.5 -21.5q0 -19 5.5 -34t17 -26t30.5 -17t47 -6t53 7t45 21t34.5 35.5t23.5 52.5q3 10 8.5 17t15 12t26 7t41.5 2t41 -2t24.5 -5t11.5 -8.5t3 -11.5zM125 1062z" />
    <glyph glyph-name="Aring.c2sc" horiz-adv-x="1095" 
d="M993 95q4 -34 3.5 -54.5t-14 -31t-43.5 -13t-84 -2.5q-44 0 -69 2.5t-37 7t-15.5 11.5t-4.5 17l-30 190h-409l-98 -184q-7 -13 -16 -21.5t-26 -13.5t-45 -7t-71 -2q-46 0 -70.5 3.5t-32.5 14.5t-1.5 31.5t25.5 54.5l517 921q9 16 18.5 25.5t27.5 14.5t49.5 7t84.5 2
q60 0 96.5 -2t56.5 -7t27.5 -15.5t9.5 -28.5zM620 850h-2l-233 -436h294zM942 1386q0 -48 -15.5 -90t-48 -73t-83 -49.5t-120.5 -18.5q-57 0 -97 12.5t-65 34.5t-36 51.5t-11 64.5q0 46 15 87.5t47 73.5t82.5 51t120.5 19q58 0 98 -13t65.5 -34.5t36.5 -51.5t11 -64z
M790 1369q0 13 -4.5 25.5t-13.5 22t-24 15.5t-36 6q-44 0 -69 -27t-25 -78q0 -13 3.5 -25t12.5 -21t24 -15t37 -6q42 0 68.5 26t26.5 77zM189 1062z" />
    <glyph glyph-name="Aringacute.c2sc" horiz-adv-x="1095" 
d="M993 95q4 -34 3.5 -54.5t-14 -31t-43.5 -13t-84 -2.5q-44 0 -69 2.5t-37 7t-15.5 11.5t-4.5 17l-30 190h-409l-98 -184q-7 -13 -16 -21.5t-26 -13.5t-45 -7t-71 -2q-46 0 -70.5 3.5t-32.5 14.5t-1.5 31.5t25.5 54.5l517 921q9 16 18.5 25.5t27.5 14.5t49.5 7t84.5 2
q60 0 96.5 -2t56.5 -7t27.5 -15.5t9.5 -28.5zM620 850h-2l-233 -436h294zM821 1552q-9 -8 -18 -13.5t-21.5 -9.5t-29.5 -5.5t-43 -1.5q-32 0 -50.5 2.5t-25.5 8t-4 13.5t15 20l148 150q10 10 20.5 17.5t24 11.5t33 6t48.5 2q42 0 65.5 -4.5t33 -11t7 -15t-12.5 -16.5z
M927 1331q0 -47 -18.5 -82.5t-50.5 -60t-77.5 -37t-99.5 -12.5q-55 0 -95 11t-65.5 31t-37.5 47.5t-12 59.5q0 47 18 83t51 60t78.5 36.5t101.5 12.5q54 0 93 -11t64.5 -30.5t37.5 -47t12 -60.5zM781 1317q0 13 -4 25t-13 21.5t-24 15t-37 5.5q-40 0 -62.5 -21t-22.5 -61
q0 -14 4 -26t13 -21t24 -14.5t37 -5.5q41 0 63 21.5t22 60.5zM210 1062z" />
    <glyph glyph-name="Aogonek.c2sc" horiz-adv-x="1095" 
d="M959 -220q0 -10 -2 -25.5t-6 -31t-9 -28.5t-12 -20t-25 -14t-42 -13t-52.5 -9.5t-57.5 -3.5q-51 0 -90.5 10.5t-66 30t-40 47t-13.5 60.5q0 27 9 52t25 47.5t39.5 45t52.5 45.5l62 50l-30 199h-410l-97 -184q-8 -14 -17.5 -22.5t-27 -13.5t-46.5 -6.5t-75 -1.5
q-45 0 -68.5 3t-30.5 14t0.5 32t25.5 55l517 921q9 16 19.5 25.5t30 14.5t51 7t82.5 2q61 0 97.5 -1.5t55.5 -7t26 -16t10 -28.5l148 -906q3 -24 3 -40.5t-6 -30t-17.5 -25.5t-30.5 -28l-65 -53l-40.5 -35t-24 -25t-11.5 -19t-3 -16q0 -13 11 -22.5t42 -9.5h82q15 0 21 -5.5
t6 -19.5zM620 850h-2l-231 -436h294z" />
    <glyph glyph-name="AE.c2sc" horiz-adv-x="1423" 
d="M1258 159q0 -8 -1.5 -22.5t-5 -32.5t-8 -36.5t-11.5 -33.5t-16 -24.5t-19 -9.5h-567q-15 0 -27.5 4.5t-20.5 13.5t-11 23t1 33l26 135h-325l-119 -171q-9 -14 -19.5 -22.5t-28 -13.5t-45 -6.5t-71.5 -1.5q-45 0 -69 3t-30.5 14t2.5 32t31 55l645 914q11 16 22.5 26
t31 15.5t50.5 7t82 1.5h651q12 0 17 -8.5t5 -26.5q0 -7 -1.5 -21t-4.5 -31.5t-8 -36t-11.5 -34t-15 -25.5t-19.5 -10h-381l-45 -225h323q10 0 16.5 -8t6.5 -29q0 -7 -1.5 -21.5t-4.5 -31.5t-8 -34.5t-11.5 -32.5t-15.5 -24t-20 -9h-323l-52 -261h383q23 0 23 -34zM730 869
h-9l-325 -469h242z" />
    <glyph glyph-name="AEacute.c2sc" horiz-adv-x="1423" 
d="M1258 159q0 -8 -1.5 -22.5t-5 -32.5t-8 -36.5t-11.5 -33.5t-16 -24.5t-19 -9.5h-567q-15 0 -27.5 4.5t-20.5 13.5t-11 23t1 33l26 135h-325l-119 -171q-9 -14 -19.5 -22.5t-28 -13.5t-45 -6.5t-71.5 -1.5q-45 0 -69 3t-30.5 14t2.5 32t31 55l645 914q11 16 22.5 26
t31 15.5t50.5 7t82 1.5h651q12 0 17 -8.5t5 -26.5q0 -7 -1.5 -21t-4.5 -31.5t-8 -36t-11.5 -34t-15 -25.5t-19.5 -10h-381l-45 -225h323q10 0 16.5 -8t6.5 -29q0 -7 -1.5 -21.5t-4.5 -31.5t-8 -34.5t-11.5 -32.5t-15.5 -24t-20 -9h-323l-52 -261h383q23 0 23 -34zM730 869
h-9l-325 -469h242zM985 1214q-8 -10 -16 -16.5t-20.5 -10.5t-31.5 -6t-48 -2q-35 0 -54.5 3t-27.5 9.5t-5.5 16.5t11.5 23l150 221q8 11 18 19t25.5 12t38.5 6t56 2q46 0 72 -4t37 -11.5t9.5 -17t-11.5 -20.5zM528 1062z" />
    <glyph glyph-name="B.c2sc" 
d="M1013 844q0 -50 -15 -94t-42 -79.5t-64 -62.5t-83 -43q38 -6 70 -21t55 -39.5t36 -57.5t13 -76q0 -46 -12.5 -91t-39 -86.5t-67.5 -76.5t-97.5 -61.5t-130.5 -41t-166 -14.5h-352q-37 0 -54 18t-8 56l182 914q6 38 31 56t59 18h330q85 0 151.5 -12.5t111.5 -39.5
t68.5 -68.5t23.5 -97.5zM743 794q0 41 -31 63t-90 22h-155l-49 -252h150q46 0 79.5 16t54.5 40.5t31 54t10 56.5zM704 353q0 23 -8.5 41.5t-26.5 31.5t-46 20.5t-66 7.5h-175l-54 -270h181q50 0 86.5 14t61 37.5t36 54.5t11.5 63z" />
    <glyph glyph-name="C.c2sc" horiz-adv-x="947" 
d="M974 963q0 -7 -1.5 -22t-4.5 -33.5t-7.5 -39t-11 -36.5t-15 -27t-17.5 -11q-14 0 -28.5 12.5t-37.5 27.5t-58.5 27.5t-89.5 12.5q-58 0 -105.5 -23t-84.5 -61t-64.5 -87.5t-45.5 -102.5t-26.5 -105t-8.5 -95q0 -54 13.5 -93.5t39 -65.5t63 -38.5t83.5 -12.5q53 0 92 11
t67.5 24.5t48.5 24.5t35 11q13 0 17 -7.5t4 -22.5q0 -10 -4 -35.5t-10.5 -54t-15 -53t-19 -35t-37 -23.5t-65 -24.5t-85.5 -19t-98 -7.5q-95 0 -170.5 23.5t-129 72t-82 122t-28.5 172.5q0 76 15.5 159t47.5 162t81.5 150.5t117.5 125.5t156 85.5t198 31.5q35 0 69.5 -4
t66 -12.5t59.5 -20.5t45 -24.5t24 -24t7 -34.5z" />
    <glyph glyph-name="Cacute.c2sc" horiz-adv-x="947" 
d="M974 963q0 -7 -1.5 -22t-4.5 -33.5t-7.5 -39t-11 -36.5t-15 -27t-17.5 -11q-14 0 -28.5 12.5t-37.5 27.5t-58.5 27.5t-89.5 12.5q-58 0 -105.5 -23t-84.5 -61t-64.5 -87.5t-45.5 -102.5t-26.5 -105t-8.5 -95q0 -54 13.5 -93.5t39 -65.5t63 -38.5t83.5 -12.5q53 0 92 11
t67.5 24.5t48.5 24.5t35 11q13 0 17 -7.5t4 -22.5q0 -10 -4 -35.5t-10.5 -54t-15 -53t-19 -35t-37 -23.5t-65 -24.5t-85.5 -19t-98 -7.5q-95 0 -170.5 23.5t-129 72t-82 122t-28.5 172.5q0 76 15.5 159t47.5 162t81.5 150.5t117.5 125.5t156 85.5t198 31.5q35 0 69.5 -4
t66 -12.5t59.5 -20.5t45 -24.5t24 -24t7 -34.5zM793 1214q-8 -10 -16 -16.5t-20.5 -10.5t-31.5 -6t-48 -2q-35 0 -54.5 3t-27.5 9.5t-5.5 16.5t11.5 23l150 221q8 11 18 19t25.5 12t38.5 6t56 2q46 0 72 -4t37 -11.5t9.5 -17t-11.5 -20.5zM336 1062z" />
    <glyph glyph-name="Ccircumflex.c2sc" horiz-adv-x="947" 
d="M974 963q0 -7 -1.5 -22t-4.5 -33.5t-7.5 -39t-11 -36.5t-15 -27t-17.5 -11q-14 0 -28.5 12.5t-37.5 27.5t-58.5 27.5t-89.5 12.5q-58 0 -105.5 -23t-84.5 -61t-64.5 -87.5t-45.5 -102.5t-26.5 -105t-8.5 -95q0 -54 13.5 -93.5t39 -65.5t63 -38.5t83.5 -12.5q53 0 92 11
t67.5 24.5t48.5 24.5t35 11q13 0 17 -7.5t4 -22.5q0 -10 -4 -35.5t-10.5 -54t-15 -53t-19 -35t-37 -23.5t-65 -24.5t-85.5 -19t-98 -7.5q-95 0 -170.5 23.5t-129 72t-82 122t-28.5 172.5q0 76 15.5 159t47.5 162t81.5 150.5t117.5 125.5t156 85.5t198 31.5q35 0 69.5 -4
t66 -12.5t59.5 -20.5t45 -24.5t24 -24t7 -34.5zM1024 1240q10 -16 13 -27.5t-6 -19t-31 -11t-62 -3.5q-31 0 -51 1.5t-32 5.5t-19 10.5t-12 17.5l-83 142l-142 -143q-10 -11 -20 -17.5t-24 -10t-35 -5t-51 -1.5q-41 0 -63.5 3.5t-29 11.5t0.5 20.5t25 30.5l212 211
q10 9 20.5 16t27 11t41.5 6t62 2q35 0 56.5 -2t35 -6.5t21.5 -11.5t14 -16zM120 1062z" />
    <glyph glyph-name="Ccaron.c2sc" horiz-adv-x="947" 
d="M974 963q0 -7 -1.5 -22t-4.5 -33.5t-7.5 -39t-11 -36.5t-15 -27t-17.5 -11q-14 0 -28.5 12.5t-37.5 27.5t-58.5 27.5t-89.5 12.5q-58 0 -105.5 -23t-84.5 -61t-64.5 -87.5t-45.5 -102.5t-26.5 -105t-8.5 -95q0 -54 13.5 -93.5t39 -65.5t63 -38.5t83.5 -12.5q53 0 92 11
t67.5 24.5t48.5 24.5t35 11q13 0 17 -7.5t4 -22.5q0 -10 -4 -35.5t-10.5 -54t-15 -53t-19 -35t-37 -23.5t-65 -24.5t-85.5 -19t-98 -7.5q-95 0 -170.5 23.5t-129 72t-82 122t-28.5 172.5q0 76 15.5 159t47.5 162t81.5 150.5t117.5 125.5t156 85.5t198 31.5q35 0 69.5 -4
t66 -12.5t59.5 -20.5t45 -24.5t24 -24t7 -34.5zM856 1216q-11 -11 -22 -18t-28 -11t-41.5 -6t-62.5 -2q-33 0 -54.5 2t-35.5 6.5t-21.5 11.5t-12.5 16l-133 213q-11 18 -14.5 30t5.5 19.5t31 10.5t62 3q35 0 55.5 -1.5t32 -5t18 -10t11.5 -16.5l82 -143l140 142
q10 10 20 16.5t24 10.5t35 5.5t52 1.5q42 0 64.5 -2.5t29.5 -9.5t0 -19.5t-27 -32.5zM127 1062z" />
    <glyph glyph-name="Cdotaccent.c2sc" horiz-adv-x="947" 
d="M974 963q0 -7 -1.5 -22t-4.5 -33.5t-7.5 -39t-11 -36.5t-15 -27t-17.5 -11q-14 0 -28.5 12.5t-37.5 27.5t-58.5 27.5t-89.5 12.5q-58 0 -105.5 -23t-84.5 -61t-64.5 -87.5t-45.5 -102.5t-26.5 -105t-8.5 -95q0 -54 13.5 -93.5t39 -65.5t63 -38.5t83.5 -12.5q53 0 92 11
t67.5 24.5t48.5 24.5t35 11q13 0 17 -7.5t4 -22.5q0 -10 -4 -35.5t-10.5 -54t-15 -53t-19 -35t-37 -23.5t-65 -24.5t-85.5 -19t-98 -7.5q-95 0 -170.5 23.5t-129 72t-82 122t-28.5 172.5q0 76 15.5 159t47.5 162t81.5 150.5t117.5 125.5t156 85.5t198 31.5q35 0 69.5 -4
t66 -12.5t59.5 -20.5t45 -24.5t24 -24t7 -34.5zM597 1323q7 34 18.5 58t30.5 39t47 21.5t68 6.5t65 -6.5t38 -21.5t15 -39t-5 -58q-6 -34 -18 -58t-31 -39t-47 -21.5t-68 -6.5q-39 0 -64.5 6.5t-38.5 21.5t-15 39t5 58zM324 1062z" />
    <glyph glyph-name="Ccedilla.c2sc" horiz-adv-x="947" 
d="M370 -9q-100 22 -162 74.5t-91.5 128.5t-29.5 175q0 76 15.5 159t47.5 162t81.5 150.5t117.5 125.5t156 85.5t198 31.5q35 0 69.5 -4t66 -12.5t59.5 -20.5t45 -24.5t24 -24t7 -34.5q0 -7 -1.5 -22t-4.5 -33.5t-7.5 -39t-11 -36.5t-15 -27t-17.5 -11q-14 0 -28.5 12.5
t-37.5 27.5t-58.5 27.5t-89.5 12.5q-58 0 -105.5 -23t-84.5 -61t-64.5 -87.5t-45.5 -102.5t-26.5 -105t-8.5 -95q0 -54 13.5 -93.5t39 -65.5t63 -38.5t83.5 -12.5q53 0 92 11t67.5 24.5t48.5 24.5t35 11q13 0 17 -7.5t4 -22.5q0 -10 -4 -35.5t-10.5 -54t-15 -53t-19 -35
t-40 -25t-76 -27.5t-96.5 -17l13 -50q6 -25 10 -47t4 -44q0 -54 -17.5 -93.5t-49 -65t-76.5 -37.5t-99 -12q-28 0 -55.5 2t-51 6.5t-41.5 10t-29 10.5q-11 6 -15.5 12.5t-4.5 19.5q0 10 2.5 28t8.5 36t16.5 31.5t27.5 13.5h114q14 0 26.5 3.5t22 10t15 17.5t5.5 25
q0 10 -1.5 23t-4.5 26z" />
    <glyph glyph-name="D.c2sc" horiz-adv-x="1169" 
d="M1107 672q0 -75 -13 -154t-43 -153.5t-79.5 -141t-123 -116t-173.5 -78.5t-245 -29h-316q-14 0 -26.5 3.5t-21.5 12t-12 23t2 35.5l182 914q7 38 31.5 56t59.5 18h283q133 0 222.5 -24t150 -73t91.5 -122t31 -171zM839 646q0 48 -13 89t-42.5 70.5t-76 45.5t-128.5 16
h-107l-134 -671h106q85 0 140 19.5t98 53t72.5 78.5t48.5 95t27.5 102.5t8.5 101.5z" />
    <glyph glyph-name="Dcaron.c2sc" horiz-adv-x="1169" 
d="M1107 672q0 -75 -13 -154t-43 -153.5t-79.5 -141t-123 -116t-173.5 -78.5t-245 -29h-316q-14 0 -26.5 3.5t-21.5 12t-12 23t2 35.5l182 914q7 38 31.5 56t59.5 18h283q133 0 222.5 -24t150 -73t91.5 -122t31 -171zM839 646q0 48 -13 89t-42.5 70.5t-76 45.5t-128.5 16
h-107l-134 -671h106q85 0 140 19.5t98 53t72.5 78.5t48.5 95t27.5 102.5t8.5 101.5zM830 1216q-11 -11 -22 -18t-28 -11t-41.5 -6t-62.5 -2q-33 0 -54.5 2t-35.5 6.5t-21.5 11.5t-12.5 16l-133 213q-11 18 -14.5 30t5.5 19.5t31 10.5t62 3q35 0 55.5 -1.5t32 -5t18 -10
t11.5 -16.5l82 -143l140 142q10 10 20 16.5t24 10.5t35 5.5t52 1.5q42 0 64.5 -2.5t29.5 -9.5t0 -19.5t-27 -32.5zM101 1062z" />
    <glyph glyph-name="Dcroat.c2sc" horiz-adv-x="1190" 
d="M1125 665q0 -68 -12 -143t-41.5 -149t-78.5 -141.5t-123 -119t-174.5 -82t-239.5 -30.5h-328q-15 0 -27 4.5t-19.5 13.5t-10 23t0.5 33l76 380h-79q-11 0 -16.5 7.5t-5.5 26.5q0 6 1.5 20t4 31.5t7.5 36t11.5 33.5t15.5 25t21 10h78l68 344q7 38 31.5 56t55.5 18h296
q147 0 240 -34t148.5 -89.5t77.5 -127t22 -146.5zM857 656q0 46 -14 85t-43.5 67.5t-77 44.5t-121.5 16h-114l-44 -225h149q12 0 16.5 -9.5t4.5 -27.5q0 -8 -1.5 -22.5t-4 -31.5t-7.5 -34.5t-11.5 -32t-15 -23.5t-19.5 -9h-149l-52 -260h116q73 0 126.5 18.5t96 51
t73.5 76.5t51.5 95.5t30.5 107.5t10 113z" />
    <glyph glyph-name="Eth.c2sc" horiz-adv-x="1190" 
d="M1125 665q0 -68 -12 -143t-41.5 -149t-78.5 -141.5t-123 -119t-174.5 -82t-239.5 -30.5h-328q-15 0 -27 4.5t-19.5 13.5t-10 23t0.5 33l76 380h-79q-11 0 -16.5 7.5t-5.5 26.5q0 6 1.5 20t4 31.5t7.5 36t11.5 33.5t15.5 25t21 10h78l68 344q7 38 31.5 56t55.5 18h296
q147 0 240 -34t148.5 -89.5t77.5 -127t22 -146.5zM857 656q0 46 -14 85t-43.5 67.5t-77 44.5t-121.5 16h-114l-44 -225h149q12 0 16.5 -9.5t4.5 -27.5q0 -8 -1.5 -22.5t-4 -31.5t-7.5 -34.5t-11.5 -32t-15 -23.5t-19.5 -9h-149l-52 -260h116q73 0 126.5 18.5t96 51
t73.5 76.5t51.5 95.5t30.5 107.5t10 113z" />
    <glyph glyph-name="E.c2sc" horiz-adv-x="911" 
d="M917 1027q0 -7 -1.5 -21.5t-5 -32.5t-8.5 -36t-11.5 -33.5t-15.5 -25t-19 -9.5h-384l-46 -228h325q23 0 24 -36q0 -9 -1.5 -24t-5 -32t-8 -34.5t-11.5 -31.5t-16 -23t-19 -9h-325l-52 -258h386q22 0 22 -33q0 -9 -1.5 -24t-4.5 -33t-8 -36.5t-12 -33.5t-15.5 -24
t-18.5 -9h-571q-16 0 -28.5 4.5t-20.5 13.5t-10.5 23t1.5 33l182 914q7 38 30.5 56t56.5 18h568q13 0 18 -9t6 -26z" />
    <glyph glyph-name="Egrave.c2sc" horiz-adv-x="911" 
d="M917 1027q0 -7 -1.5 -21.5t-5 -32.5t-8.5 -36t-11.5 -33.5t-15.5 -25t-19 -9.5h-384l-46 -228h325q23 0 24 -36q0 -9 -1.5 -24t-5 -32t-8 -34.5t-11.5 -31.5t-16 -23t-19 -9h-325l-52 -258h386q22 0 22 -33q0 -9 -1.5 -24t-4.5 -33t-8 -36.5t-12 -33.5t-15.5 -24
t-18.5 -9h-571q-16 0 -28.5 4.5t-20.5 13.5t-10.5 23t1.5 33l182 914q7 38 30.5 56t56.5 18h568q13 0 18 -9t6 -26zM708 1231q8 -13 9.5 -23t-7 -16.5t-28.5 -9.5t-56 -3q-29 0 -47.5 1.5t-31 6t-20.5 11t-16 16.5l-184 224q-8 11 -8.5 20.5t11.5 17t39 11.5t73 4
q33 0 55.5 -1.5t37 -5.5t23.5 -12t16 -19zM27 1062z" />
    <glyph glyph-name="Eacute.c2sc" horiz-adv-x="911" 
d="M917 1027q0 -7 -1.5 -21.5t-5 -32.5t-8.5 -36t-11.5 -33.5t-15.5 -25t-19 -9.5h-384l-46 -228h325q23 0 24 -36q0 -9 -1.5 -24t-5 -32t-8 -34.5t-11.5 -31.5t-16 -23t-19 -9h-325l-52 -258h386q22 0 22 -33q0 -9 -1.5 -24t-4.5 -33t-8 -36.5t-12 -33.5t-15.5 -24
t-18.5 -9h-571q-16 0 -28.5 4.5t-20.5 13.5t-10.5 23t1.5 33l182 914q7 38 30.5 56t56.5 18h568q13 0 18 -9t6 -26zM700 1214q-8 -10 -16 -16.5t-20.5 -10.5t-31.5 -6t-48 -2q-35 0 -54.5 3t-27.5 9.5t-5.5 16.5t11.5 23l150 221q8 11 18 19t25.5 12t38.5 6t56 2q46 0 72 -4
t37 -11.5t9.5 -17t-11.5 -20.5zM243 1062z" />
    <glyph glyph-name="Ecircumflex.c2sc" horiz-adv-x="911" 
d="M917 1027q0 -7 -1.5 -21.5t-5 -32.5t-8.5 -36t-11.5 -33.5t-15.5 -25t-19 -9.5h-384l-46 -228h325q23 0 24 -36q0 -9 -1.5 -24t-5 -32t-8 -34.5t-11.5 -31.5t-16 -23t-19 -9h-325l-52 -258h386q22 0 22 -33q0 -9 -1.5 -24t-4.5 -33t-8 -36.5t-12 -33.5t-15.5 -24
t-18.5 -9h-571q-16 0 -28.5 4.5t-20.5 13.5t-10.5 23t1.5 33l182 914q7 38 30.5 56t56.5 18h568q13 0 18 -9t6 -26zM936 1240q10 -16 13 -27.5t-6 -19t-31 -11t-62 -3.5q-31 0 -51 1.5t-32 5.5t-19 10.5t-12 17.5l-83 142l-142 -143q-10 -11 -20 -17.5t-24 -10t-35 -5
t-51 -1.5q-41 0 -63.5 3.5t-29 11.5t0.5 20.5t25 30.5l212 211q10 9 20.5 16t27 11t41.5 6t62 2q35 0 56.5 -2t35 -6.5t21.5 -11.5t14 -16zM32 1062z" />
    <glyph glyph-name="Ecaron.c2sc" horiz-adv-x="911" 
d="M917 1027q0 -7 -1.5 -21.5t-5 -32.5t-8.5 -36t-11.5 -33.5t-15.5 -25t-19 -9.5h-384l-46 -228h325q23 0 24 -36q0 -9 -1.5 -24t-5 -32t-8 -34.5t-11.5 -31.5t-16 -23t-19 -9h-325l-52 -258h386q22 0 22 -33q0 -9 -1.5 -24t-4.5 -33t-8 -36.5t-12 -33.5t-15.5 -24
t-18.5 -9h-571q-16 0 -28.5 4.5t-20.5 13.5t-10.5 23t1.5 33l182 914q7 38 30.5 56t56.5 18h568q13 0 18 -9t6 -26zM755 1216q-11 -11 -22 -18t-28 -11t-41.5 -6t-62.5 -2q-33 0 -54.5 2t-35.5 6.5t-21.5 11.5t-12.5 16l-133 213q-11 18 -14.5 30t5.5 19.5t31 10.5t62 3
q35 0 55.5 -1.5t32 -5t18 -10t11.5 -16.5l82 -143l140 142q10 10 20 16.5t24 10.5t35 5.5t52 1.5q42 0 64.5 -2.5t29.5 -9.5t0 -19.5t-27 -32.5zM26 1062z" />
    <glyph glyph-name="Edieresis.c2sc" horiz-adv-x="911" 
d="M917 1027q0 -7 -1.5 -21.5t-5 -32.5t-8.5 -36t-11.5 -33.5t-15.5 -25t-19 -9.5h-384l-46 -228h325q23 0 24 -36q0 -9 -1.5 -24t-5 -32t-8 -34.5t-11.5 -31.5t-16 -23t-19 -9h-325l-52 -258h386q22 0 22 -33q0 -9 -1.5 -24t-4.5 -33t-8 -36.5t-12 -33.5t-15.5 -24
t-18.5 -9h-571q-16 0 -28.5 4.5t-20.5 13.5t-10.5 23t1.5 33l182 914q7 38 30.5 56t56.5 18h568q13 0 18 -9t6 -26zM974 1324q-7 -37 -18.5 -61t-30.5 -38t-45 -19.5t-61 -5.5q-34 0 -57.5 5.5t-36 19.5t-14.5 38t5 61q6 37 18 60.5t30.5 37t44 19t59.5 5.5q35 0 58.5 -5.5
t36.5 -19t15.5 -37t-4.5 -60.5zM560 1324q-7 -37 -18.5 -61t-30 -38t-44 -19.5t-60.5 -5.5q-34 0 -57.5 5.5t-36 19.5t-14.5 38t5 61q6 37 18 60.5t30.5 37t43.5 19t60 5.5t58 -5.5t35.5 -19t15 -37t-4.5 -60.5zM29 1062z" />
    <glyph glyph-name="Emacron.c2sc" horiz-adv-x="911" 
d="M917 1027q0 -7 -1.5 -21.5t-5 -32.5t-8.5 -36t-11.5 -33.5t-15.5 -25t-19 -9.5h-384l-46 -228h325q23 0 24 -36q0 -9 -1.5 -24t-5 -32t-8 -34.5t-11.5 -31.5t-16 -23t-19 -9h-325l-52 -258h386q22 0 22 -33q0 -9 -1.5 -24t-4.5 -33t-8 -36.5t-12 -33.5t-15.5 -24
t-18.5 -9h-571q-16 0 -28.5 4.5t-20.5 13.5t-10.5 23t1.5 33l182 914q7 38 30.5 56t56.5 18h568q13 0 18 -9t6 -26zM956 1377q0 -6 -1.5 -20t-5 -30.5t-8 -33t-12 -30.5t-17.5 -23.5t-23 -9.5h-550q-18 0 -25 10t-7 30q0 7 1 21t4.5 29.5t8.5 32.5t12.5 30.5t18 22t24.5 8.5
h550q17 0 23.5 -10.5t6.5 -26.5zM40 1062z" />
    <glyph glyph-name="Ebreve.c2sc" horiz-adv-x="911" 
d="M917 1027q0 -7 -1.5 -21.5t-5 -32.5t-8.5 -36t-11.5 -33.5t-15.5 -25t-19 -9.5h-384l-46 -228h325q23 0 24 -36q0 -9 -1.5 -24t-5 -32t-8 -34.5t-11.5 -31.5t-16 -23t-19 -9h-325l-52 -258h386q22 0 22 -33q0 -9 -1.5 -24t-4.5 -33t-8 -36.5t-12 -33.5t-15.5 -24
t-18.5 -9h-571q-16 0 -28.5 4.5t-20.5 13.5t-10.5 23t1.5 33l182 914q7 38 30.5 56t56.5 18h568q13 0 18 -9t6 -26zM950 1466q0 -10 -4.5 -35.5t-17.5 -57t-37 -65.5t-61.5 -62t-92 -46.5t-128.5 -18.5q-76 0 -126 16.5t-80 43.5t-42 63.5t-12 75.5q0 11 1 26t3.5 29t6 25.5
t8.5 15.5q8 9 26.5 13t52.5 4q24 0 39.5 -2t24.5 -6t12 -10t3 -13q0 -8 -1.5 -18.5t-1.5 -21.5q0 -19 5.5 -34t17 -26t30.5 -17t47 -6t53 7t45 21t34.5 35.5t23.5 52.5q3 10 8.5 17t15 12t26 7t41.5 2t41 -2t24.5 -5t11.5 -8.5t3 -11.5zM58 1062z" />
    <glyph glyph-name="Edotaccent.c2sc" horiz-adv-x="911" 
d="M917 1027q0 -7 -1.5 -21.5t-5 -32.5t-8.5 -36t-11.5 -33.5t-15.5 -25t-19 -9.5h-384l-46 -228h325q23 0 24 -36q0 -9 -1.5 -24t-5 -32t-8 -34.5t-11.5 -31.5t-16 -23t-19 -9h-325l-52 -258h386q22 0 22 -33q0 -9 -1.5 -24t-4.5 -33t-8 -36.5t-12 -33.5t-15.5 -24
t-18.5 -9h-571q-16 0 -28.5 4.5t-20.5 13.5t-10.5 23t1.5 33l182 914q7 38 30.5 56t56.5 18h568q13 0 18 -9t6 -26zM499 1323q7 34 18.5 58t30.5 39t47 21.5t68 6.5t65 -6.5t38 -21.5t15 -39t-5 -58q-6 -34 -18 -58t-31 -39t-47 -21.5t-68 -6.5q-39 0 -64.5 6.5t-38.5 21.5
t-15 39t5 58zM226 1062z" />
    <glyph glyph-name="Eogonek.c2sc" horiz-adv-x="911" 
d="M745 160q0 -14 -2.5 -36t-9 -44.5t-16 -43t-23.5 -32.5l-101 -82q-35 -28 -50 -47t-15 -39q0 -13 10.5 -22t39.5 -9h91q15 0 21.5 -5.5t6.5 -18.5q0 -8 -2.5 -23t-6.5 -31.5t-9.5 -31t-11.5 -20.5q-8 -7 -25.5 -14t-41.5 -13t-52 -9.5t-57 -3.5q-106 0 -163 36.5
t-57 109.5q0 22 5 42.5t17.5 42t33 44t51.5 47.5l53 43h-318q-16 0 -28 4.5t-20 13.5t-10.5 23t1.5 33l182 914q7 38 30.5 56t56.5 18h569q13 0 18 -9t5 -26q0 -7 -1.5 -21.5t-5 -32.5t-8.5 -36t-11.5 -33.5t-15.5 -25t-19 -9.5h-384l-46 -228h326q23 0 23 -36
q0 -8 -1.5 -22t-4.5 -31.5t-7.5 -35t-11.5 -32t-16 -24t-19 -9.5h-326l-52 -258h386q22 0 22 -33z" />
    <glyph glyph-name="F.c2sc" horiz-adv-x="856" 
d="M887 1027q0 -8 -2 -24t-5 -34.5t-8 -37t-12 -34.5t-16 -25.5t-20 -9.5h-351l-51 -254h323q24 0 24 -40q0 -7 -1.5 -21.5t-5 -31.5t-8.5 -35t-12 -33t-15.5 -24t-19.5 -9h-323l-76 -381q-3 -10 -10.5 -17t-24 -12t-42 -7.5t-63.5 -2.5t-62.5 2.5t-38 7.5t-18 12t-2.5 17
l191 955q6 38 30.5 56t56.5 18h540q11 0 16.5 -8t5.5 -27z" />
    <glyph glyph-name="G.c2sc" horiz-adv-x="1180" 
d="M1143 951q0 -9 -1.5 -24t-4.5 -32t-8 -35.5t-12 -32.5t-15 -23.5t-18 -9.5q-13 0 -36.5 13.5t-59.5 29.5t-87 29.5t-119 13.5q-76 0 -136.5 -19.5t-107.5 -53t-82 -78.5t-58 -95.5t-34 -104.5t-11 -106q0 -59 17 -104t49 -74.5t79.5 -44.5t109.5 -15q36 0 73 6t68 19
l44 219h-186q-11 0 -17.5 8t-6.5 28q0 14 4 39t11 49.5t18 42.5t26 18h379q29 0 42.5 -19t5.5 -55l-87 -434q-5 -28 -19.5 -45t-38.5 -25q-73 -27 -161 -42.5t-182 -15.5q-117 0 -208 26.5t-154 79t-97 131t-34 181.5q0 87 19.5 172t58 161.5t96 141.5t134.5 112t172.5 73.5
t213.5 26.5q99 0 176 -17.5t123.5 -40t54 -37t7.5 -37.5z" />
    <glyph glyph-name="Gcircumflex.c2sc" horiz-adv-x="1180" 
d="M1143 951q0 -9 -1.5 -24t-4.5 -32t-8 -35.5t-12 -32.5t-15 -23.5t-18 -9.5q-13 0 -36.5 13.5t-59.5 29.5t-87 29.5t-119 13.5q-76 0 -136.5 -19.5t-107.5 -53t-82 -78.5t-58 -95.5t-34 -104.5t-11 -106q0 -59 17 -104t49 -74.5t79.5 -44.5t109.5 -15q36 0 73 6t68 19
l44 219h-186q-11 0 -17.5 8t-6.5 28q0 14 4 39t11 49.5t18 42.5t26 18h379q29 0 42.5 -19t5.5 -55l-87 -434q-5 -28 -19.5 -45t-38.5 -25q-73 -27 -161 -42.5t-182 -15.5q-117 0 -208 26.5t-154 79t-97 131t-34 181.5q0 87 19.5 172t58 161.5t96 141.5t134.5 112t172.5 73.5
t213.5 26.5q99 0 176 -17.5t123.5 -40t54 -37t7.5 -37.5zM1098 1240q10 -16 13 -27.5t-6 -19t-31 -11t-62 -3.5q-31 0 -51 1.5t-32 5.5t-19 10.5t-12 17.5l-83 142l-142 -143q-10 -11 -20 -17.5t-24 -10t-35 -5t-51 -1.5q-41 0 -63.5 3.5t-29 11.5t0.5 20.5t25 30.5l212 211
q10 9 20.5 16t27 11t41.5 6t62 2q35 0 56.5 -2t35 -6.5t21.5 -11.5t14 -16zM194 1062z" />
    <glyph glyph-name="Gbreve.c2sc" horiz-adv-x="1180" 
d="M1143 951q0 -9 -1.5 -24t-4.5 -32t-8 -35.5t-12 -32.5t-15 -23.5t-18 -9.5q-13 0 -36.5 13.5t-59.5 29.5t-87 29.5t-119 13.5q-76 0 -136.5 -19.5t-107.5 -53t-82 -78.5t-58 -95.5t-34 -104.5t-11 -106q0 -59 17 -104t49 -74.5t79.5 -44.5t109.5 -15q36 0 73 6t68 19
l44 219h-186q-11 0 -17.5 8t-6.5 28q0 14 4 39t11 49.5t18 42.5t26 18h379q29 0 42.5 -19t5.5 -55l-87 -434q-5 -28 -19.5 -45t-38.5 -25q-73 -27 -161 -42.5t-182 -15.5q-117 0 -208 26.5t-154 79t-97 131t-34 181.5q0 87 19.5 172t58 161.5t96 141.5t134.5 112t172.5 73.5
t213.5 26.5q99 0 176 -17.5t123.5 -40t54 -37t7.5 -37.5zM1129 1466q0 -10 -4.5 -35.5t-17.5 -57t-37 -65.5t-61.5 -62t-92 -46.5t-128.5 -18.5q-76 0 -126 16.5t-80 43.5t-42 63.5t-12 75.5q0 11 1 26t3.5 29t6 25.5t8.5 15.5q8 9 26.5 13t52.5 4q24 0 39.5 -2t24.5 -6
t12 -10t3 -13q0 -8 -1.5 -18.5t-1.5 -21.5q0 -19 5.5 -34t17 -26t30.5 -17t47 -6t53 7t45 21t34.5 35.5t23.5 52.5q3 10 8.5 17t15 12t26 7t41.5 2t41 -2t24.5 -5t11.5 -8.5t3 -11.5zM237 1062z" />
    <glyph glyph-name="Gdotaccent.c2sc" horiz-adv-x="1180" 
d="M1143 951q0 -9 -1.5 -24t-4.5 -32t-8 -35.5t-12 -32.5t-15 -23.5t-18 -9.5q-13 0 -36.5 13.5t-59.5 29.5t-87 29.5t-119 13.5q-76 0 -136.5 -19.5t-107.5 -53t-82 -78.5t-58 -95.5t-34 -104.5t-11 -106q0 -59 17 -104t49 -74.5t79.5 -44.5t109.5 -15q36 0 73 6t68 19
l44 219h-186q-11 0 -17.5 8t-6.5 28q0 14 4 39t11 49.5t18 42.5t26 18h379q29 0 42.5 -19t5.5 -55l-87 -434q-5 -28 -19.5 -45t-38.5 -25q-73 -27 -161 -42.5t-182 -15.5q-117 0 -208 26.5t-154 79t-97 131t-34 181.5q0 87 19.5 172t58 161.5t96 141.5t134.5 112t172.5 73.5
t213.5 26.5q99 0 176 -17.5t123.5 -40t54 -37t7.5 -37.5zM674 1323q7 34 18.5 58t30.5 39t47 21.5t68 6.5t65 -6.5t38 -21.5t15 -39t-5 -58q-6 -34 -18 -58t-31 -39t-47 -21.5t-68 -6.5q-39 0 -64.5 6.5t-38.5 21.5t-15 39t5 58zM401 1062z" />
    <glyph glyph-name="Gcommaaccent.c2sc" horiz-adv-x="1180" 
d="M1143 951q0 -9 -1.5 -24t-4.5 -32t-8 -35.5t-12 -32.5t-15 -23.5t-18 -9.5q-13 0 -36.5 13.5t-59.5 29.5t-87 29.5t-119 13.5q-76 0 -136.5 -19.5t-107.5 -53t-82 -78.5t-58 -95.5t-34 -104.5t-11 -106q0 -59 17 -104t49 -74.5t79.5 -44.5t109.5 -15q36 0 73 6t68 19
l44 219h-186q-11 0 -17.5 8t-6.5 28q0 14 4 39t11 49.5t18 42.5t26 18h379q29 0 42.5 -19t5.5 -55l-87 -434q-5 -28 -19.5 -45t-38.5 -25q-73 -27 -161 -42.5t-182 -15.5q-117 0 -208 26.5t-154 79t-97 131t-34 181.5q0 87 19.5 172t58 161.5t96 141.5t134.5 112t172.5 73.5
t213.5 26.5q99 0 176 -17.5t123.5 -40t54 -37t7.5 -37.5zM503 -330q-7 -10 -14.5 -16.5t-20.5 -11t-34 -6t-53 -1.5q-31 0 -49 2.5t-25.5 9t-7 16.5t7.5 24l88 190q5 11 14 19.5t25 13.5t42.5 7t66.5 2t62.5 -4t31.5 -11.5t7 -18.5t-12 -25z" />
    <glyph glyph-name="H.c2sc" horiz-adv-x="1175" 
d="M954 31q-3 -10 -11 -17t-24 -11.5t-41.5 -6.5t-63.5 -2t-61.5 2t-37.5 6.5t-18.5 11.5t-2.5 17l83 408h-389l-82 -408q-3 -10 -10.5 -17t-23.5 -11.5t-42 -6.5t-63 -2q-38 0 -62.5 2t-38 6.5t-17.5 11.5t-3 17l200 1000q1 9 9 16t24 11.5t41.5 7t62.5 2.5t61.5 -2.5
t38.5 -7t19 -11.5t4 -16l-76 -379h388l76 379q1 9 8 16t23 11.5t42.5 7t65.5 2.5q37 0 61.5 -2.5t38.5 -7t18.5 -11.5t2.5 -16z" />
    <glyph glyph-name="Hcircumflex.c2sc" horiz-adv-x="1175" 
d="M954 31q-3 -10 -11 -17t-24 -11.5t-41.5 -6.5t-63.5 -2t-61.5 2t-37.5 6.5t-18.5 11.5t-2.5 17l83 408h-389l-82 -408q-3 -10 -10.5 -17t-23.5 -11.5t-42 -6.5t-63 -2q-38 0 -62.5 2t-38 6.5t-17.5 11.5t-3 17l200 1000q1 9 9 16t24 11.5t41.5 7t62.5 2.5t61.5 -2.5
t38.5 -7t19 -11.5t4 -16l-76 -379h388l76 379q1 9 8 16t23 11.5t42.5 7t65.5 2.5q37 0 61.5 -2.5t38.5 -7t18.5 -11.5t2.5 -16zM1044 1240q10 -16 13 -27.5t-6 -19t-31 -11t-62 -3.5q-31 0 -51 1.5t-32 5.5t-19 10.5t-12 17.5l-83 142l-142 -143q-10 -11 -20 -17.5t-24 -10
t-35 -5t-51 -1.5q-41 0 -63.5 3.5t-29 11.5t0.5 20.5t25 30.5l212 211q10 9 20.5 16t27 11t41.5 6t62 2q35 0 56.5 -2t35 -6.5t21.5 -11.5t14 -16zM140 1062z" />
    <glyph glyph-name="Hbar.c2sc" horiz-adv-x="1217" 
d="M1220 914q14 0 19 -10t5 -26q0 -10 -3 -32t-9.5 -44t-18 -38.5t-28.5 -16.5h-64l-144 -716q-3 -10 -10 -17t-23 -11.5t-42 -6.5t-63 -2q-38 0 -62.5 2t-38 6.5t-18 11.5t-2.5 17l77 381h-393l-77 -381q-3 -10 -10.5 -17t-23.5 -11.5t-41.5 -6.5t-62.5 -2q-38 0 -62.5 2
t-38.5 6.5t-18.5 11.5t-2.5 17l143 716h-66q-11 0 -17 8.5t-6 28.5q0 6 1 18t3.5 26.5t7 30t10.5 27.5t14.5 20t20.5 8h65l24 117q2 9 10 16t24 11.5t41.5 7t63.5 2.5q37 0 61.5 -2.5t38.5 -7t19 -11.5t3 -16l-25 -117h393l25 117q2 9 9 16t22.5 11.5t41 7t63.5 2.5
t62.5 -2.5t38.5 -7t19 -11.5t3 -16l-25 -117h67zM468 747l-29 -146h393l29 146h-393z" />
    <glyph glyph-name="I.c2sc" horiz-adv-x="528" 
d="M306 31q-2 -10 -10 -17t-24.5 -11.5t-42.5 -6.5t-63 -2q-38 0 -62.5 2t-37.5 6.5t-17 11.5t-2 17l200 1001q2 9 9.5 15.5t23.5 11t41 7t63 2.5q37 0 61.5 -2.5t39 -7t19.5 -11t4 -15.5z" />
    <glyph glyph-name="Igrave.c2sc" horiz-adv-x="528" 
d="M306 31q-2 -10 -10 -17t-24.5 -11.5t-42.5 -6.5t-63 -2q-38 0 -62.5 2t-37.5 6.5t-17 11.5t-2 17l200 1001q2 9 9.5 15.5t23.5 11t41 7t63 2.5q37 0 61.5 -2.5t39 -7t19.5 -11t4 -15.5zM497 1231q8 -13 9.5 -23t-7 -16.5t-28.5 -9.5t-56 -3q-29 0 -47.5 1.5t-31 6
t-20.5 11t-16 16.5l-184 224q-8 11 -8.5 20.5t11.5 17t39 11.5t73 4q33 0 55.5 -1.5t37 -5.5t23.5 -12t16 -19zM-184 1062z" />
    <glyph glyph-name="Iacute.c2sc" horiz-adv-x="528" 
d="M306 31q-2 -10 -10 -17t-24.5 -11.5t-42.5 -6.5t-63 -2q-38 0 -62.5 2t-37.5 6.5t-17 11.5t-2 17l200 1001q2 9 9.5 15.5t23.5 11t41 7t63 2.5q37 0 61.5 -2.5t39 -7t19.5 -11t4 -15.5zM497 1214q-8 -10 -16 -16.5t-20.5 -10.5t-31.5 -6t-48 -2q-35 0 -54.5 3t-27.5 9.5
t-5.5 16.5t11.5 23l150 221q8 11 18 19t25.5 12t38.5 6t56 2q46 0 72 -4t37 -11.5t9.5 -17t-11.5 -20.5zM40 1062z" />
    <glyph glyph-name="Icircumflex.c2sc" horiz-adv-x="528" 
d="M306 31q-2 -10 -10 -17t-24.5 -11.5t-42.5 -6.5t-63 -2q-38 0 -62.5 2t-37.5 6.5t-17 11.5t-2 17l200 1001q2 9 9.5 15.5t23.5 11t41 7t63 2.5q37 0 61.5 -2.5t39 -7t19.5 -11t4 -15.5zM732 1240q10 -16 13 -27.5t-6 -19t-31 -11t-62 -3.5q-31 0 -51 1.5t-32 5.5
t-19 10.5t-12 17.5l-83 142l-142 -143q-10 -11 -20 -17.5t-24 -10t-35 -5t-51 -1.5q-41 0 -63.5 3.5t-29 11.5t0.5 20.5t25 30.5l212 211q10 9 20.5 16t27 11t41.5 6t62 2q35 0 56.5 -2t35 -6.5t21.5 -11.5t14 -16zM-172 1062z" />
    <glyph glyph-name="Itilde.c2sc" horiz-adv-x="528" 
d="M306 31q-2 -10 -10 -17t-24.5 -11.5t-42.5 -6.5t-63 -2q-38 0 -62.5 2t-37.5 6.5t-17 11.5t-2 17l200 1001q2 9 9.5 15.5t23.5 11t41 7t63 2.5q37 0 61.5 -2.5t39 -7t19.5 -11t4 -15.5zM652 1437q1 8 5.5 13.5t14 8.5t25 4t38.5 1q41 0 55.5 -6.5t14.5 -20.5
q0 -7 -2 -28.5t-10 -50t-23.5 -60t-41.5 -57t-64.5 -42.5t-93.5 -17q-57 0 -96 16.5t-69.5 36.5l-56 36.5t-55.5 16.5q-34 0 -52 -22.5t-20 -57.5q-2 -8 -7 -13t-14.5 -8t-24.5 -4t-36 -1q-42 0 -57 5.5t-15 21.5q0 10 3 32.5t11.5 51t24.5 58.5t42 55.5t64 41.5t91 16
q57 0 96 -16.5t69 -37l56 -37t56 -16.5q29 0 48.5 20t23.5 60zM-191 1062z" />
    <glyph glyph-name="Idieresis.c2sc" horiz-adv-x="528" 
d="M306 31q-2 -10 -10 -17t-24.5 -11.5t-42.5 -6.5t-63 -2q-38 0 -62.5 2t-37.5 6.5t-17 11.5t-2 17l200 1001q2 9 9.5 15.5t23.5 11t41 7t63 2.5q37 0 61.5 -2.5t39 -7t19.5 -11t4 -15.5zM772 1324q-7 -37 -18.5 -61t-30.5 -38t-45 -19.5t-61 -5.5q-34 0 -57.5 5.5
t-36 19.5t-14.5 38t5 61q6 37 18 60.5t30.5 37t44 19t59.5 5.5q35 0 58.5 -5.5t36.5 -19t15.5 -37t-4.5 -60.5zM358 1324q-7 -37 -18.5 -61t-30 -38t-44 -19.5t-60.5 -5.5q-34 0 -57.5 5.5t-36 19.5t-14.5 38t5 61q6 37 18 60.5t30.5 37t43.5 19t60 5.5t58 -5.5t35.5 -19
t15 -37t-4.5 -60.5zM-173 1062z" />
    <glyph glyph-name="Imacron.c2sc" horiz-adv-x="528" 
d="M306 31q-2 -10 -10 -17t-24.5 -11.5t-42.5 -6.5t-63 -2q-38 0 -62.5 2t-37.5 6.5t-17 11.5t-2 17l200 1001q2 9 9.5 15.5t23.5 11t41 7t63 2.5q37 0 61.5 -2.5t39 -7t19.5 -11t4 -15.5zM761 1377q0 -6 -1.5 -20t-5 -30.5t-8 -33t-12 -30.5t-17.5 -23.5t-23 -9.5h-550
q-18 0 -25 10t-7 30q0 7 1 21t4.5 29.5t8.5 32.5t12.5 30.5t18 22t24.5 8.5h550q17 0 23.5 -10.5t6.5 -26.5zM-155 1062z" />
    <glyph glyph-name="Ibreve.c2sc" horiz-adv-x="528" 
d="M306 31q-2 -10 -10 -17t-24.5 -11.5t-42.5 -6.5t-63 -2q-38 0 -62.5 2t-37.5 6.5t-17 11.5t-2 17l200 1001q2 9 9.5 15.5t23.5 11t41 7t63 2.5q37 0 61.5 -2.5t39 -7t19.5 -11t4 -15.5zM759 1466q0 -10 -4.5 -35.5t-17.5 -57t-37 -65.5t-61.5 -62t-92 -46.5t-128.5 -18.5
q-76 0 -126 16.5t-80 43.5t-42 63.5t-12 75.5q0 11 1 26t3.5 29t6 25.5t8.5 15.5q8 9 26.5 13t52.5 4q24 0 39.5 -2t24.5 -6t12 -10t3 -13q0 -8 -1.5 -18.5t-1.5 -21.5q0 -19 5.5 -34t17 -26t30.5 -17t47 -6t53 7t45 21t34.5 35.5t23.5 52.5q3 10 8.5 17t15 12t26 7t41.5 2
t41 -2t24.5 -5t11.5 -8.5t3 -11.5zM-133 1062z" />
    <glyph glyph-name="Idotaccent.c2sc" horiz-adv-x="528" 
d="M306 31q-2 -10 -10 -17t-24.5 -11.5t-42.5 -6.5t-63 -2q-38 0 -62.5 2t-37.5 6.5t-17 11.5t-2 17l200 1001q2 9 9.5 15.5t23.5 11t41 7t63 2.5q37 0 61.5 -2.5t39 -7t19.5 -11t4 -15.5zM297 1323q7 34 18.5 58t30.5 39t47 21.5t68 6.5t65 -6.5t38 -21.5t15 -39t-5 -58
q-6 -34 -18 -58t-31 -39t-47 -21.5t-68 -6.5q-39 0 -64.5 6.5t-38.5 21.5t-15 39t5 58zM24 1062z" />
    <glyph glyph-name="Iogonek.c2sc" horiz-adv-x="528" 
d="M306 26q-4 -14 -9.5 -24t-16.5 -18l-79 -65q-17 -14 -28.5 -25.5t-18.5 -21t-10 -17.5t-3 -17q0 -14 10.5 -23.5t39.5 -9.5h92q17 0 23 -7.5t3 -28.5q-1 -11 -4.5 -25.5t-8.5 -29t-12.5 -27t-16.5 -18.5q-10 -5 -25.5 -11t-37.5 -11t-50 -8.5t-61 -3.5q-54 0 -93.5 11
t-64.5 30t-37 44.5t-12 54.5q0 28 7 52t20.5 46t33 42.5t45.5 41.5l60 50q-4 3 -6 7.5t1 14.5l200 1003q2 9 10 15.5t24 11t41.5 7t63.5 2.5q36 0 61 -2.5t39 -7t19 -11t3 -15.5z" />
    <glyph glyph-name="IJ.c2sc" horiz-adv-x="1135" 
d="M306 31q-2 -10 -10 -17t-24.5 -11.5t-42.5 -6.5t-63 -2q-38 0 -62.5 2t-37.5 6.5t-17 11.5t-2 17l200 1001q2 9 9.5 15.5t23.5 11t41 7t63 2.5q37 0 61.5 -2.5t39 -7t19.5 -11t4 -15.5zM965 289q-16 -72 -42 -129.5t-67.5 -97t-100.5 -60t-139 -20.5q-20 0 -40 1.5
t-39 4.5t-37 8t-33.5 11.5t-21.5 15.5t-6 26q0 5 1.5 21t5 36.5t8.5 42t11.5 40t14 30.5t16.5 12q10 0 19 -5t20 -10.5t26 -10.5t35 -5q25 0 44 6t32.5 20.5t23 36.5t16.5 54l143 715q2 9 10 15.5t24 11t41 7t63 2.5q37 0 62 -2t38.5 -6.5t18.5 -11.5t3 -16z" />
    <glyph glyph-name="J.c2sc" horiz-adv-x="617" 
d="M447 289q-16 -72 -42 -129.5t-67.5 -97t-100.5 -60t-139 -20.5q-20 0 -40 1.5t-39 4.5t-37 8t-33.5 11.5t-21.5 15.5t-6 26q0 5 1.5 21t5 36.5t8.5 42t11.5 40t14 30.5t16.5 12q10 0 19 -5t20 -10.5t26 -10.5t35 -5q25 0 44 6t32.5 20.5t23 36.5t16.5 54l143 715
q2 9 10 15.5t24 11t41 7t63 2.5q37 0 62 -2t38.5 -6.5t18.5 -11.5t3 -16z" />
    <glyph glyph-name="Jcircumflex.c2sc" horiz-adv-x="617" 
d="M447 289q-16 -72 -42 -129.5t-67.5 -97t-100.5 -60t-139 -20.5q-20 0 -40 1.5t-39 4.5t-37 8t-33.5 11.5t-21.5 15.5t-6 26q0 5 1.5 21t5 36.5t8.5 42t11.5 40t14 30.5t16.5 12q10 0 19 -5t20 -10.5t26 -10.5t35 -5q25 0 44 6t32.5 20.5t23 36.5t16.5 54l143 715
q2 9 10 15.5t24 11t41 7t63 2.5q37 0 62 -2t38.5 -6.5t18.5 -11.5t3 -16zM802 1240q10 -16 13 -27.5t-6 -19t-31 -11t-62 -3.5q-31 0 -51 1.5t-32 5.5t-19 10.5t-12 17.5l-83 142l-142 -143q-10 -11 -20 -17.5t-24 -10t-35 -5t-51 -1.5q-41 0 -63.5 3.5t-29 11.5t0.5 20.5
t25 30.5l212 211q10 9 20.5 16t27 11t41.5 6t62 2q35 0 56.5 -2t35 -6.5t21.5 -11.5t14 -16zM-102 1062z" />
    <glyph glyph-name="K.c2sc" horiz-adv-x="1029" 
d="M1077 1030q0 -8 -2.5 -16.5t-8.5 -18.5t-15.5 -21.5l-22.5 -27.5l-361 -371l217 -475q7 -19 10.5 -34t3.5 -26q0 -12 -5.5 -20.5t-21 -14t-44 -8.5t-74.5 -3q-41 0 -64.5 2t-37 7t-19 13t-8.5 18l-216 503l-102 -505q-2 -10 -10 -17t-24 -11.5t-41.5 -7t-62.5 -2.5
q-38 0 -62.5 2.5t-38 7t-18 11.5t-2.5 17l199 999q2 9 9.5 16t23.5 11.5t41 7t63 2.5q37 0 61.5 -2.5t38.5 -7t19.5 -11.5t3.5 -16l-88 -435l376 433q9 11 19.5 18.5t26.5 12t40.5 6.5t63.5 2t65 -2.5t41 -7t21 -12t6 -16.5z" />
    <glyph glyph-name="Kcommaaccent.c2sc" horiz-adv-x="1029" 
d="M1077 1030q0 -8 -2.5 -16.5t-8.5 -18.5t-15.5 -21.5l-22.5 -27.5l-361 -371l217 -475q7 -19 10.5 -34t3.5 -26q0 -12 -5.5 -20.5t-21 -14t-44 -8.5t-74.5 -3q-41 0 -64.5 2t-37 7t-19 13t-8.5 18l-216 503l-102 -505q-2 -10 -10 -17t-24 -11.5t-41.5 -7t-62.5 -2.5
q-38 0 -62.5 2.5t-38 7t-18 11.5t-2.5 17l199 999q2 9 9.5 16t23.5 11.5t41 7t63 2.5q37 0 61.5 -2.5t38.5 -7t19.5 -11.5t3.5 -16l-88 -435l376 433q9 11 19.5 18.5t26.5 12t40.5 6.5t63.5 2t65 -2.5t41 -7t21 -12t6 -16.5zM392 -330q-7 -10 -14.5 -16.5t-20.5 -11t-34 -6
t-53 -1.5q-31 0 -49 2.5t-25.5 9t-7 16.5t7.5 24l88 190q5 11 14 19.5t25 13.5t42.5 7t66.5 2t62.5 -4t31.5 -11.5t7 -18.5t-12 -25z" />
    <glyph glyph-name="L.c2sc" horiz-adv-x="764" 
d="M692 166q0 -6 -1.5 -20.5t-4.5 -33t-8.5 -38.5t-13 -36.5t-18 -27t-24.5 -10.5h-509q-16 0 -28 4.5t-20 13.5t-10.5 23t1.5 33l191 958q1 9 9 15.5t24 11t41 7t62 2.5t61.5 -2.5t39 -7t20 -11t3.5 -15.5l-165 -828h326q13 0 18.5 -10t5.5 -28z" />
    <glyph glyph-name="Lacute.c2sc" horiz-adv-x="764" 
d="M692 166q0 -6 -1.5 -20.5t-4.5 -33t-8.5 -38.5t-13 -36.5t-18 -27t-24.5 -10.5h-509q-16 0 -28 4.5t-20 13.5t-10.5 23t1.5 33l191 958q1 9 9 15.5t24 11t41 7t62 2.5t61.5 -2.5t39 -7t20 -11t3.5 -15.5l-165 -828h326q13 0 18.5 -10t5.5 -28zM590 1214q-8 -10 -16 -16.5
t-20.5 -10.5t-31.5 -6t-48 -2q-35 0 -54.5 3t-27.5 9.5t-5.5 16.5t11.5 23l150 221q8 11 18 19t25.5 12t38.5 6t56 2q46 0 72 -4t37 -11.5t9.5 -17t-11.5 -20.5zM133 1062z" />
    <glyph glyph-name="Lcaron.c2sc" horiz-adv-x="781" 
d="M692 166q0 -6 -1.5 -20.5t-4.5 -33t-8.5 -38.5t-13 -36.5t-18 -27t-24.5 -10.5h-509q-16 0 -28 4.5t-20 13.5t-10.5 23t1.5 33l191 958q1 9 9 15.5t24 11t41 7t62 2.5t61.5 -2.5t39 -7t20 -11t3.5 -15.5l-165 -828h326q13 0 18.5 -10t5.5 -28zM790 1010q-6 -11 -14 -17.5
t-21 -10t-32 -5t-48 -1.5q-23 0 -36 2.5t-19 7.5t-6 14t4 22l116 305q4 12 12.5 20.5t23 14.5t37.5 9t56 3q36 0 57 -3.5t30 -9.5t8.5 -15.5t-7.5 -21.5zM390 960z" />
    <glyph glyph-name="Lcommaaccent.c2sc" horiz-adv-x="764" 
d="M692 166q0 -6 -1.5 -20.5t-4.5 -33t-8.5 -38.5t-13 -36.5t-18 -27t-24.5 -10.5h-509q-16 0 -28 4.5t-20 13.5t-10.5 23t1.5 33l191 958q1 9 9 15.5t24 11t41 7t62 2.5t61.5 -2.5t39 -7t20 -11t3.5 -15.5l-165 -828h326q13 0 18.5 -10t5.5 -28zM309 -330
q-7 -10 -14.5 -16.5t-20.5 -11t-34 -6t-53 -1.5q-31 0 -49 2.5t-25.5 9t-7 16.5t7.5 24l88 190q5 11 14 19.5t25 13.5t42.5 7t66.5 2t62.5 -4t31.5 -11.5t7 -18.5t-12 -25z" />
    <glyph glyph-name="Lslash.c2sc" horiz-adv-x="780" 
d="M707 164q0 -7 -1.5 -22.5t-5 -33.5t-8 -37.5t-12 -35t-16 -25.5t-20.5 -10h-512q-35 0 -49.5 18t-8.5 56l59 297l-79 -45q-15 -8 -22 -0.5t-7 26.5q0 6 1.5 19.5t4.5 31t7.5 37t11.5 36.5t15 30.5t19 19.5l89 49l92 457q2 9 10 15.5t24 11t41 7t63 2.5q37 0 61 -2.5
t38 -7t18.5 -11t3.5 -15.5l-62 -300l162 89q13 8 22 3.5t9 -26.5q0 -11 -3.5 -37t-11 -54.5t-18 -52.5t-24.5 -32l-175 -94l-66 -326h326q13 0 18.5 -8.5t5.5 -29.5z" />
    <glyph glyph-name="Ldot.c2sc" horiz-adv-x="1045" 
d="M692 166q0 -6 -1.5 -20.5t-4.5 -33t-8.5 -38.5t-13 -36.5t-18 -27t-24.5 -10.5h-509q-16 0 -28 4.5t-20 13.5t-10.5 23t1.5 33l191 958q1 9 9 15.5t24 11t41 7t62 2.5t61.5 -2.5t39 -7t20 -11t3.5 -15.5l-165 -828h326q13 0 18.5 -10t5.5 -28zM997 658q0 -22 -4 -47.5
t-11.5 -50t-18 -46.5t-24.5 -36q-21 -21 -55 -29t-73 -8q-36 0 -60.5 5.5t-39 17.5t-20.5 28.5t-6 38.5q0 20 4.5 45.5t12 51.5t17.5 47.5t23 33.5q18 18 48 29t82 11q36 0 60.5 -5.5t39 -17t20 -28.5t5.5 -40z" />
    </font>
</defs>
</svg>
