<svg id="Layer_1" data-name="Layer 1" xmlns="http://www.w3.org/2000/svg" viewBox="0 0 230.4 208.82"><defs><style>.cls-1{fill:#fff;}</style></defs><title>course</title><path class="cls-1" d="M199.3,88,116.23,50.84a2.55,2.55,0,0,0-2.06,0L80.49,65.9a2.53,2.53,0,1,0,2.07,4.62L115.2,55.93l29.88,13.36V87.94a103.79,103.79,0,0,0-29.81-6.25h-.14a104.35,104.35,0,0,0-33.3,7.6A86.65,86.65,0,0,0,63,99.74a2.53,2.53,0,0,0-.88,1.21L38.34,90.3,71.73,75.36a2.53,2.53,0,1,0-2.07-4.62L31.1,88a2.54,2.54,0,0,0,0,4.63L62,106.44v12.12a2.53,2.53,0,1,0,5.06,0V104.85h0v-1.77A82,82,0,0,1,83.74,94a102.07,102.07,0,0,1,31.46-7.23,101.47,101.47,0,0,1,29.88,6.61v25.16a8.95,8.95,0,0,0-.88,16.85L142.43,140c-11.56,2-20.71,4.73-27.23,8.16-15-7.89-40.19-10.12-48.12-10.65v-7.1a2.53,2.53,0,0,0-5.06,0v9.5a2.53,2.53,0,0,0,2.42,2.53c.33,0,33.24,1.55,49.51,10.81a2.53,2.53,0,0,0,2.5,0c5.47-3.12,13.67-5.76,23.88-7.72l-1.5,3.94a2.55,2.55,0,0,0,2.37,3.44H154a2.54,2.54,0,0,0,2.37-3.44l-2.29-6c6.89-.79,11.8-1,11.85-1a2.52,2.52,0,0,0,2.42-2.53v-9.49a2.53,2.53,0,1,0-5.06,0v7.11c-2.37.15-6.29.47-11.07,1L151,135.37a8.95,8.95,0,0,0-.88-16.85v-23a79.6,79.6,0,0,1,13.17,7.57v1.77h0v13.71a2.53,2.53,0,1,0,5.06,0V106.44L199.3,92.61a2.54,2.54,0,0,0,0-4.63Zm-54.43,59.89,2.75-7.22,2.74,7.22Zm6.63-20.77a3.89,3.89,0,1,1-3.88-3.88A3.89,3.89,0,0,1,151.5,127.1ZM168.24,101a2.53,2.53,0,0,0-.88-1.21A86.07,86.07,0,0,0,150.15,90V71.55L192.06,90.3Z"/></svg>