<svg id="Layer_1" data-name="Layer 1" xmlns="http://www.w3.org/2000/svg" viewBox="0 0 230.4 208.82"><defs><style>.cls-1{fill:#fff;}</style></defs><title>curriculum</title><path class="cls-1" d="M151.2,104H87.91a1.82,1.82,0,1,0,0,3.64H151.2a1.82,1.82,0,1,0,0-3.64Z"/><path class="cls-1" d="M151.2,115.7H87.91a1.82,1.82,0,1,0,0,3.64H151.2a1.82,1.82,0,1,0,0-3.64Z"/><path class="cls-1" d="M151.2,127.43H87.91a1.82,1.82,0,0,0,0,3.64H151.2a1.82,1.82,0,1,0,0-3.64Z"/><path class="cls-1" d="M151.2,139.17H87.91a1.82,1.82,0,1,0,0,3.64H151.2a1.82,1.82,0,0,0,0-3.64Z"/><path class="cls-1" d="M151.2,80H127.94a1.82,1.82,0,1,0,0,3.64H151.2a1.82,1.82,0,0,0,0-3.64Z"/><path class="cls-1" d="M151.2,70.32H127.94a1.83,1.83,0,0,0,0,3.65H151.2a1.83,1.83,0,0,0,0-3.65Z"/><path class="cls-1" d="M163.81,138.55a1.81,1.81,0,0,0,1.82-1.82V55.07a7.17,7.17,0,0,0-7.16-7.16H155V44.45a7.17,7.17,0,0,0-7.16-7.16H71.93a7.17,7.17,0,0,0-7.16,7.16v99.36A7.17,7.17,0,0,0,71.93,151h3.46v3.47a7.17,7.17,0,0,0,7.16,7.16h75.92a7.17,7.17,0,0,0,7.16-7.16v-9.2a1.82,1.82,0,1,0-3.64,0v9.2a3.52,3.52,0,0,1-3.52,3.51H82.55A3.52,3.52,0,0,1,79,154.44V55.07a3.52,3.52,0,0,1,3.52-3.51h75.92A3.52,3.52,0,0,1,162,55.07v81.66A1.82,1.82,0,0,0,163.81,138.55ZM75.39,55.07v92.26H71.93a3.53,3.53,0,0,1-3.52-3.52V44.45a3.53,3.53,0,0,1,3.52-3.52h75.92a3.53,3.53,0,0,1,3.52,3.52v3.46H82.55a7.17,7.17,0,0,0-7.16,7.16Z"/><path class="cls-1" d="M87.76,73.26a1.83,1.83,0,0,0-1.82,1.82V88.83a5.55,5.55,0,0,0,5,5.54c.69.08,20.31,0,20.34,0h0a5.55,5.55,0,0,0,5-5.54V65.08a5.58,5.58,0,0,0-5.57-5.57H91.52a5.58,5.58,0,0,0-5.58,5.57v1.43a1.82,1.82,0,1,0,3.64,0V65.08a1.94,1.94,0,0,1,1.94-1.93h19.15a1.94,1.94,0,0,1,1.93,1.93V83.72a15.83,15.83,0,0,0-4.92-3.52,7.81,7.81,0,1,0-13.17,0,15.87,15.87,0,0,0-4.93,3.52V75.08a1.81,1.81,0,0,0-1.82-1.82Zm13.33-1.39A4.16,4.16,0,1,1,96.94,76,4.15,4.15,0,0,1,101.09,71.87ZM97.52,83a7.78,7.78,0,0,0,7.15,0,12.14,12.14,0,0,1,7.65,6.9,1.93,1.93,0,0,1-1.44.9c-.12,0-19.25,0-19.53,0h0a1.93,1.93,0,0,1-1.44-.9A12.14,12.14,0,0,1,97.52,83Z"/></svg>