<svg id="Layer_1" data-name="Layer 1" xmlns="http://www.w3.org/2000/svg" viewBox="0 0 230.4 208.82"><defs><style>.cls-1{fill:#fff;}</style></defs><title>forum</title><circle class="cls-1" cx="129.26" cy="75.84" r="2.34"/><circle class="cls-1" cx="115.2" cy="75.84" r="2.34"/><circle class="cls-1" cx="101.14" cy="75.84" r="2.34"/><path class="cls-1" d="M124.57,118.27a9.38,9.38,0,1,0-9.37,9.37A9.38,9.38,0,0,0,124.57,118.27ZM115.2,123a4.69,4.69,0,1,1,4.69-4.68A4.69,4.69,0,0,1,115.2,123Z"/><path class="cls-1" d="M98.79,144.05v2.11a2.35,2.35,0,0,0,2.35,2.34h28.12a2.35,2.35,0,0,0,2.35-2.34v-2.11a16.41,16.41,0,0,0-32.82,0Zm16.41-11.72a11.74,11.74,0,0,1,11.72,11.48H103.48a11.74,11.74,0,0,1,11.72-11.48Z"/><path class="cls-1" d="M81,118.27a9.38,9.38,0,1,0-9.37,9.37A9.38,9.38,0,0,0,81,118.27ZM71.61,123a4.69,4.69,0,1,1,4.68-4.68A4.69,4.69,0,0,1,71.61,123Z"/><path class="cls-1" d="M57.54,148.5H85.67A2.34,2.34,0,0,0,88,146.16v-2.11a16.41,16.41,0,1,0-32.81,0v2.11A2.34,2.34,0,0,0,57.54,148.5Zm14.07-16.17a11.72,11.72,0,0,1,11.71,11.48H59.89A11.73,11.73,0,0,1,71.61,132.33Z"/><path class="cls-1" d="M168.17,118.27a9.38,9.38,0,1,0-9.38,9.37A9.39,9.39,0,0,0,168.17,118.27ZM158.79,123a4.69,4.69,0,1,1,4.69-4.68A4.69,4.69,0,0,1,158.79,123Z"/><path class="cls-1" d="M158.79,127.64a16.42,16.42,0,0,0-16.4,16.41v2.11a2.34,2.34,0,0,0,2.34,2.34h28.13a2.34,2.34,0,0,0,2.34-2.34v-2.11A16.43,16.43,0,0,0,158.79,127.64Zm-11.71,16.17a11.72,11.72,0,0,1,23.43,0Z"/><path class="cls-1" d="M165.82,59.44H125.75a2.34,2.34,0,1,0,0,4.68h40.07a4.7,4.7,0,0,1,4.69,4.69V82.87a4.69,4.69,0,0,1-4.69,4.69h-7a2.35,2.35,0,0,0-2.34,2.35v3.23l-10.67-5.33a2.42,2.42,0,0,0-1.05-.25h-22.5a2.36,2.36,0,0,0-1.66.69l-5.37,5.37-5.37-5.37a2.36,2.36,0,0,0-1.66-.69H87.08a2.35,2.35,0,0,0-1,.25L75.36,93.14V89.91A2.35,2.35,0,0,0,73,87.56H64.58a4.69,4.69,0,0,1-4.69-4.69V68.81a4.7,4.7,0,0,1,4.69-4.69h40.07a2.34,2.34,0,1,0,0-4.68H64.58a9.38,9.38,0,0,0-9.38,9.37V82.87a9.39,9.39,0,0,0,9.38,9.38h6.09v4.69a2.34,2.34,0,0,0,1.11,2,2.32,2.32,0,0,0,2.28.1l13.57-6.78H107.2l6.34,6.34a2.34,2.34,0,0,0,3.32,0l6.34-6.34h21L157.75,99a2.32,2.32,0,0,0,2.28-.1,2.34,2.34,0,0,0,1.11-2V92.25h4.68a9.39,9.39,0,0,0,9.38-9.38V68.81a9.38,9.38,0,0,0-9.38-9.37Z"/><circle class="cls-1" cx="115.2" cy="61.78" r="2.34"/></svg>