<svg id="Layer_1" data-name="Layer 1" xmlns="http://www.w3.org/2000/svg" viewBox="0 0 230.4 208.82"><defs><style>.cls-1{fill:#fff;}</style></defs><title>quiz</title><path class="cls-1" d="M136.86,121.54a2.72,2.72,0,0,0-2.72,2.72V143a13.61,13.61,0,0,1-13.59,13.59H91.19a2.73,2.73,0,0,0-2.72,2.72v5.4L82,158.25a2.71,2.71,0,0,0-2.49-1.64H61.82A13.61,13.61,0,0,1,48.23,143V101.15A13.6,13.6,0,0,1,61.82,87.56H89.28a2.72,2.72,0,0,0,0-5.44H61.82a19.06,19.06,0,0,0-19,19V143a19.06,19.06,0,0,0,19,19H78.1l11.16,11.17a2.72,2.72,0,0,0,1.93.79,2.86,2.86,0,0,0,1-.2,2.73,2.73,0,0,0,1.68-2.51v-9.25h26.64a19.06,19.06,0,0,0,19-19V124.26A2.72,2.72,0,0,0,136.86,121.54Z"/><path class="cls-1" d="M142.48,34.81h-6.89a39.52,39.52,0,0,0,0,79h6.88a39.69,39.69,0,0,0,10-1.28l10.17,10.16a2.7,2.7,0,0,0,1.92.79,2.87,2.87,0,0,0,1-.2,2.73,2.73,0,0,0,1.68-2.52V105.06a39.87,39.87,0,0,0,10.39-12.8A39.1,39.1,0,0,0,182,74.33,39.56,39.56,0,0,0,142.48,34.81ZM163,101.57a2.7,2.7,0,0,0-1.08,2.17v10.49l-6.65-6.65a2.73,2.73,0,0,0-2.72-.67,34.26,34.26,0,0,1-10,1.5h-6.89a34.08,34.08,0,0,1,0-68.16h6.89A34.08,34.08,0,0,1,163,101.57Z"/><path class="cls-1" d="M150.07,65.62a10.3,10.3,0,0,0-20.57.73,2.43,2.43,0,0,0,4.86,0,5.43,5.43,0,1,1,6.63,5.3,4.6,4.6,0,0,0-3.63,4.51V82a2.44,2.44,0,1,0,4.87,0V76.35A10.23,10.23,0,0,0,150.07,65.62Z"/><path class="cls-1" d="M117.56,119.09H60.19a2.72,2.72,0,0,0,0,5.44h57.37a2.72,2.72,0,0,0,0-5.44Z"/><path class="cls-1" d="M119.48,135.11a2.72,2.72,0,1,0,.8,1.93A2.77,2.77,0,0,0,119.48,135.11Z"/><path class="cls-1" d="M141,88.39a1.9,1.9,0,1,0,.55,1.33A1.92,1.92,0,0,0,141,88.39Z"/><path class="cls-1" d="M106.86,134.32H60.19a2.72,2.72,0,1,0,0,5.44h46.67a2.72,2.72,0,1,0,0-5.44Z"/><path class="cls-1" d="M99.88,103.87H60.19a2.72,2.72,0,0,0,0,5.44H99.88a2.72,2.72,0,0,0,0-5.44Z"/></svg>