<svg xmlns="http://www.w3.org/2000/svg" xmlns:xlink="http://www.w3.org/1999/xlink" viewBox="0 0 236.55 86.41"><defs><style>.cls-1{isolation:isolate;}.cls-2{fill:#1aa9e2;}.cls-3{opacity:0.3;mix-blend-mode:multiply;fill:url(#Degradado_sin_nombre_13);}.cls-4{fill:#005cff;opacity:0.54;}</style><linearGradient id="Degradado_sin_nombre_13" x1="118.27" y1="85.7" x2="118.27" gradientUnits="userSpaceOnUse"><stop offset="0" stop-color="#6ad4d4"/><stop offset="1" stop-color="#1ac2cc"/></linearGradient></defs><title>with highlight</title><g class="cls-1"><g id="Layer_1" data-name="Layer 1"><rect class="cls-2" width="236.55" height="86.25"/><path class="cls-3" d="M236.55,0V85.7H0V48.07a63.26,63.26,0,0,1,33.5,4c12.85,5.52,38.05,31.71,55.39,22.3,4.31-2.35,6.75-6,9-9.61q6-9.69,11.55-19.54c4.08-7.3,8.2-14.95,16.27-20.2,14.25-9.26,32.31-3.37,44.24,5.1,5.76,4.09,12,9.27,20,8.61a25.79,25.79,0,0,0,9-2.88C213.29,29.06,225.35,9.33,236.55,0Z"/><path class="cls-4" d="M236.56,0c-12.05,5.4-60.38,9.44-118.28,9.44S12.06,5.4,0,0Z"/></g></g></svg>